M48
; DRILL file {KiCad (5.1.2)-2} date 30/07/2019 01:56:49
; FORMAT={-:-/ absolute / inch / decimal}
; #@! TF.CreationDate,2019-07-30T01:56:49-03:00
; #@! TF.GenerationSoftware,Kicad,Pcbnew,(5.1.2)-2
; #@! TF.FileFunction,Plated,1,2,PTH
FMAT,2
INCH
T1C0.0276
T2C0.0295
T3C0.0315
T4C0.0394
T5C0.0472
T6C0.0591
T7C0.0630
%
G90
G05
T1
X3.2633Y-3.1323
X3.6355Y-3.7839
X3.7439Y-2.9719
X3.8031Y-3.4517
X3.8172Y-3.8804
X3.83Y-2.29
X3.9Y-4.1286
X3.926Y-3.619
X4.1012Y-2.1708
X4.1421Y-3.2416
X4.2724Y-5.093
X4.2935Y-3.6545
X4.594Y-4.3178
X4.6488Y-5.0384
X4.7354Y-2.5936
X4.8435Y-4.2221
X4.8435Y-4.3703
X4.8435Y-4.7353
X4.9196Y-1.9764
X4.923Y-3.8214
X5.1216Y-2.5928
X5.1218Y-5.043
X5.1552Y-3.143
X5.2458Y-2.4954
X5.5346Y-3.6206
X5.95Y-2.81
X5.95Y-3.28
X6.26Y-1.87
X6.4618Y-4.9898
X6.756Y-3.964
X6.8262Y-2.4772
X6.8288Y-2.726
X6.9505Y-4.6995
X6.9776Y-4.2466
X7.2742Y-4.0134
X7.3552Y-4.475
X7.4315Y-3.3177
X7.643Y-3.964
X7.7217Y-3.7779
X7.7832Y-2.6504
X8.7886Y-2.6628
T2
X4.2435Y-3.443
X4.2935Y-3.443
X4.3435Y-3.443
X4.7935Y-4.543
X4.8435Y-4.543
X4.8935Y-4.543
X4.9435Y-3.593
X4.9935Y-3.593
X5.0435Y-3.593
X4.9435Y-3.143
X4.9935Y-3.143
X5.0435Y-3.143
X7.2852Y-4.2684
X7.2852Y-4.3184
X7.2852Y-4.3684
X4.7935Y-5.043
X4.8435Y-5.043
X4.8935Y-5.043
X4.2435Y-3.243
X4.2935Y-3.243
X4.3435Y-3.243
X7.0005Y-3.964
X7.0005Y-4.014
X7.0005Y-4.064
X3.3935Y-3.293
X3.3935Y-3.343
X3.3935Y-3.393
T3
X3.379Y-4.546
X3.679Y-4.546
X3.6918Y-2.3955
X3.7705Y-2.3955
X7.4372Y-2.5392
X7.4372Y-2.7392
X8.8Y-3.445
X8.8Y-3.745
X4.274Y-3.8175
X4.274Y-4.0144
X4.5935Y-2.3946
X4.5935Y-2.493
X3.886Y-4.8583
X3.886Y-4.937
T4
X7.6172Y-1.2436
X7.7172Y-1.2436
X7.8172Y-1.2436
X9.6645Y-1.4085
X7.28Y-4.75
X7.38Y-4.75
X4.7935Y-3.993
X4.8935Y-3.993
X5.4602Y-2.387
X5.4602Y-2.487
X7.6264Y-3.6306
X2.574Y-2.897
X8.0Y-4.85
X4.8074Y-1.247
X4.9074Y-1.247
X5.0074Y-1.247
X7.7144Y-2.0724
X6.02Y-3.59
X5.2435Y-3.593
X8.8086Y-4.0586
X4.0435Y-3.143
X4.0435Y-3.543
X3.1Y-3.6194
X5.2435Y-3.143
X3.34Y-4.14
X2.2821Y-1.3711
X2.23Y-3.5
X6.8224Y-2.8407
X6.27Y-1.24
X6.37Y-1.24
X6.47Y-1.24
X5.8915Y-5.0665
X5.7802Y-2.5066
X5.7802Y-2.6066
X3.111Y-3.9552
X6.3106Y-3.5824
X4.25Y-2.87
X8.8Y-2.906
X8.8Y-3.006
X8.8Y-3.106
X5.6116Y-2.0124
X6.8224Y-2.3907
X4.65Y-3.42
X3.2834Y-2.076
X3.2834Y-2.176
X3.2834Y-2.276
X2.5925Y-4.904
T5
X6.4695Y-2.056
X6.4695Y-3.056
X6.156Y-2.055
X6.156Y-3.055
T6
X5.4144Y-1.2546
X5.629Y-1.2546
X5.8435Y-1.2546
X6.8036Y-1.2494
X7.0182Y-1.2494
X7.2327Y-1.2494
X2.216Y-2.0855
X2.216Y-2.3
X2.216Y-2.5146
X9.894Y-2.0894
X9.894Y-2.304
X9.894Y-2.5186
T7
X2.6306Y-1.3711
X3.2306Y-1.3711
X8.729Y-1.404
X9.329Y-1.404
T0
M30
