G04 #@! TF.GenerationSoftware,KiCad,Pcbnew,(5.1.2)-2*
G04 #@! TF.CreationDate,2019-07-30T01:55:56-03:00*
G04 #@! TF.ProjectId,amplificador,616d706c-6966-4696-9361-646f722e6b69,rev?*
G04 #@! TF.SameCoordinates,Original*
G04 #@! TF.FileFunction,Copper,L1,Top*
G04 #@! TF.FilePolarity,Positive*
%FSLAX46Y46*%
G04 Gerber Fmt 4.6, Leading zero omitted, Abs format (unit mm)*
G04 Created by KiCad (PCBNEW (5.1.2)-2) date 2019-07-30 01:55:56*
%MOMM*%
%LPD*%
G04 APERTURE LIST*
%ADD10O,1.800000X1.800000*%
%ADD11R,1.800000X1.800000*%
%ADD12R,1.700000X1.700000*%
%ADD13O,1.700000X1.700000*%
%ADD14O,2.400000X2.400000*%
%ADD15C,2.400000*%
%ADD16C,1.600000*%
%ADD17R,1.600000X1.600000*%
%ADD18R,1.600000X2.200000*%
%ADD19R,2.200000X1.600000*%
%ADD20O,1.600000X1.600000*%
%ADD21O,3.200000X3.200000*%
%ADD22R,3.200000X3.200000*%
%ADD23R,1.050000X1.500000*%
%ADD24O,1.050000X1.500000*%
%ADD25O,1.500000X1.050000*%
%ADD26R,1.500000X1.050000*%
%ADD27R,4.500000X2.500000*%
%ADD28O,4.500000X2.500000*%
%ADD29O,2.500000X4.500000*%
%ADD30R,2.500000X4.500000*%
%ADD31C,0.100000*%
%ADD32C,1.150000*%
%ADD33C,0.600000*%
%ADD34C,1.309624*%
%ADD35C,1.335024*%
%ADD36C,0.787400*%
%ADD37C,2.799994*%
G04 APERTURE END LIST*
D10*
X164338000Y-31496000D03*
X161798000Y-31496000D03*
D11*
X159258000Y-31496000D03*
D12*
X152908000Y-91186000D03*
X56642000Y-88900000D03*
X84836000Y-105156000D03*
X203200000Y-123190000D03*
X107950000Y-72898000D03*
X118110000Y-86868000D03*
D13*
X187452000Y-120650000D03*
D12*
X184912000Y-120650000D03*
D13*
X121754900Y-101422200D03*
D12*
X124294900Y-101422200D03*
D13*
X146817080Y-66207640D03*
D12*
X146817080Y-63667640D03*
D13*
X138689320Y-60629800D03*
D12*
X138689320Y-63169800D03*
X78740000Y-91932760D03*
X149644100Y-128689100D03*
X245478300Y-35775900D03*
X57965340Y-34825940D03*
X160289240Y-90992960D03*
X173288960Y-72153780D03*
X173288960Y-60723780D03*
X142534640Y-51114960D03*
X195945760Y-52638960D03*
X223738440Y-103088440D03*
X193710560Y-92217240D03*
X65849500Y-124561600D03*
X133184900Y-79832200D03*
X102704900Y-79832200D03*
X65379600Y-73583800D03*
X133184900Y-91262200D03*
X102704900Y-89992200D03*
X79019400Y-100462080D03*
D14*
X156362400Y-52197000D03*
D15*
X156362400Y-77597000D03*
D14*
X164325300Y-77622400D03*
D15*
X164325300Y-52222400D03*
D16*
X98704400Y-123399800D03*
D17*
X98704400Y-125399800D03*
D16*
X93770700Y-60845700D03*
D17*
X95770700Y-60845700D03*
D16*
X188904880Y-69575680D03*
X188904880Y-64495680D03*
D18*
X129374900Y-121972200D03*
X129374900Y-118972200D03*
D16*
X108559600Y-101964500D03*
X108559600Y-96964500D03*
D18*
X92341700Y-88338400D03*
X92341700Y-91338400D03*
D17*
X116674900Y-63322200D03*
D16*
X116674900Y-60822200D03*
D18*
X168910000Y-115800000D03*
X168910000Y-112800000D03*
D19*
X159754440Y-43896280D03*
X162754440Y-43896280D03*
D17*
X223520000Y-95123000D03*
D20*
X223520000Y-87503000D03*
X85826600Y-115468400D03*
D17*
X93446600Y-115468400D03*
D21*
X82057240Y-34825940D03*
D22*
X66817240Y-34825940D03*
X221716600Y-35661600D03*
D21*
X236956600Y-35661600D03*
D23*
X107784900Y-87452200D03*
D24*
X110324900Y-87452200D03*
X109054900Y-87452200D03*
D23*
X128104900Y-91262200D03*
D24*
X125564900Y-91262200D03*
X126834900Y-91262200D03*
D25*
X86194900Y-84912200D03*
X86194900Y-86182200D03*
D26*
X86194900Y-83642200D03*
D24*
X126834900Y-79832200D03*
X125564900Y-79832200D03*
D23*
X128104900Y-79832200D03*
D24*
X109054900Y-82372200D03*
X110324900Y-82372200D03*
D23*
X107784900Y-82372200D03*
D26*
X177812700Y-100685600D03*
D25*
X177812700Y-103225600D03*
X177812700Y-101955600D03*
D23*
X121754900Y-115392200D03*
D24*
X124294900Y-115392200D03*
X123024900Y-115392200D03*
D25*
X185044080Y-109687360D03*
X185044080Y-110957360D03*
D26*
X185044080Y-108417360D03*
D24*
X123024900Y-128092200D03*
X124294900Y-128092200D03*
D23*
X121754900Y-128092200D03*
D11*
X223520000Y-73812400D03*
D10*
X223520000Y-76352400D03*
X223520000Y-78892400D03*
X83398360Y-57810400D03*
X83398360Y-55270400D03*
D11*
X83398360Y-52730400D03*
D10*
X198556880Y-31587440D03*
X196016880Y-31587440D03*
D11*
X193476880Y-31587440D03*
X122107960Y-31673800D03*
D10*
X124647960Y-31673800D03*
X127187960Y-31673800D03*
D27*
X251307600Y-53071600D03*
D28*
X251307600Y-58521600D03*
X251307600Y-63971600D03*
D29*
X183711440Y-31734760D03*
X178261440Y-31734760D03*
D30*
X172811440Y-31734760D03*
D29*
X148425760Y-31866840D03*
X142975760Y-31866840D03*
D30*
X137525760Y-31866840D03*
D27*
X56286400Y-63870840D03*
D28*
X56286400Y-58420840D03*
X56286400Y-52970840D03*
D31*
G36*
X113704405Y-91833404D02*
G01*
X113728673Y-91837004D01*
X113752472Y-91842965D01*
X113775571Y-91851230D01*
X113797750Y-91861720D01*
X113818793Y-91874332D01*
X113838499Y-91888947D01*
X113856677Y-91905423D01*
X113873153Y-91923601D01*
X113887768Y-91943307D01*
X113900380Y-91964350D01*
X113910870Y-91986529D01*
X113919135Y-92009628D01*
X113925096Y-92033427D01*
X113928696Y-92057695D01*
X113929900Y-92082199D01*
X113929900Y-92982201D01*
X113928696Y-93006705D01*
X113925096Y-93030973D01*
X113919135Y-93054772D01*
X113910870Y-93077871D01*
X113900380Y-93100050D01*
X113887768Y-93121093D01*
X113873153Y-93140799D01*
X113856677Y-93158977D01*
X113838499Y-93175453D01*
X113818793Y-93190068D01*
X113797750Y-93202680D01*
X113775571Y-93213170D01*
X113752472Y-93221435D01*
X113728673Y-93227396D01*
X113704405Y-93230996D01*
X113679901Y-93232200D01*
X113029899Y-93232200D01*
X113005395Y-93230996D01*
X112981127Y-93227396D01*
X112957328Y-93221435D01*
X112934229Y-93213170D01*
X112912050Y-93202680D01*
X112891007Y-93190068D01*
X112871301Y-93175453D01*
X112853123Y-93158977D01*
X112836647Y-93140799D01*
X112822032Y-93121093D01*
X112809420Y-93100050D01*
X112798930Y-93077871D01*
X112790665Y-93054772D01*
X112784704Y-93030973D01*
X112781104Y-93006705D01*
X112779900Y-92982201D01*
X112779900Y-92082199D01*
X112781104Y-92057695D01*
X112784704Y-92033427D01*
X112790665Y-92009628D01*
X112798930Y-91986529D01*
X112809420Y-91964350D01*
X112822032Y-91943307D01*
X112836647Y-91923601D01*
X112853123Y-91905423D01*
X112871301Y-91888947D01*
X112891007Y-91874332D01*
X112912050Y-91861720D01*
X112934229Y-91851230D01*
X112957328Y-91842965D01*
X112981127Y-91837004D01*
X113005395Y-91833404D01*
X113029899Y-91832200D01*
X113679901Y-91832200D01*
X113704405Y-91833404D01*
X113704405Y-91833404D01*
G37*
D32*
X113354900Y-92532200D03*
D31*
G36*
X115754405Y-91833404D02*
G01*
X115778673Y-91837004D01*
X115802472Y-91842965D01*
X115825571Y-91851230D01*
X115847750Y-91861720D01*
X115868793Y-91874332D01*
X115888499Y-91888947D01*
X115906677Y-91905423D01*
X115923153Y-91923601D01*
X115937768Y-91943307D01*
X115950380Y-91964350D01*
X115960870Y-91986529D01*
X115969135Y-92009628D01*
X115975096Y-92033427D01*
X115978696Y-92057695D01*
X115979900Y-92082199D01*
X115979900Y-92982201D01*
X115978696Y-93006705D01*
X115975096Y-93030973D01*
X115969135Y-93054772D01*
X115960870Y-93077871D01*
X115950380Y-93100050D01*
X115937768Y-93121093D01*
X115923153Y-93140799D01*
X115906677Y-93158977D01*
X115888499Y-93175453D01*
X115868793Y-93190068D01*
X115847750Y-93202680D01*
X115825571Y-93213170D01*
X115802472Y-93221435D01*
X115778673Y-93227396D01*
X115754405Y-93230996D01*
X115729901Y-93232200D01*
X115079899Y-93232200D01*
X115055395Y-93230996D01*
X115031127Y-93227396D01*
X115007328Y-93221435D01*
X114984229Y-93213170D01*
X114962050Y-93202680D01*
X114941007Y-93190068D01*
X114921301Y-93175453D01*
X114903123Y-93158977D01*
X114886647Y-93140799D01*
X114872032Y-93121093D01*
X114859420Y-93100050D01*
X114848930Y-93077871D01*
X114840665Y-93054772D01*
X114834704Y-93030973D01*
X114831104Y-93006705D01*
X114829900Y-92982201D01*
X114829900Y-92082199D01*
X114831104Y-92057695D01*
X114834704Y-92033427D01*
X114840665Y-92009628D01*
X114848930Y-91986529D01*
X114859420Y-91964350D01*
X114872032Y-91943307D01*
X114886647Y-91923601D01*
X114903123Y-91905423D01*
X114921301Y-91888947D01*
X114941007Y-91874332D01*
X114962050Y-91861720D01*
X114984229Y-91851230D01*
X115007328Y-91842965D01*
X115031127Y-91837004D01*
X115055395Y-91833404D01*
X115079899Y-91832200D01*
X115729901Y-91832200D01*
X115754405Y-91833404D01*
X115754405Y-91833404D01*
G37*
D32*
X115404900Y-92532200D03*
D31*
G36*
X147480385Y-90497364D02*
G01*
X147504653Y-90500964D01*
X147528452Y-90506925D01*
X147551551Y-90515190D01*
X147573730Y-90525680D01*
X147594773Y-90538292D01*
X147614479Y-90552907D01*
X147632657Y-90569383D01*
X147649133Y-90587561D01*
X147663748Y-90607267D01*
X147676360Y-90628310D01*
X147686850Y-90650489D01*
X147695115Y-90673588D01*
X147701076Y-90697387D01*
X147704676Y-90721655D01*
X147705880Y-90746159D01*
X147705880Y-91646161D01*
X147704676Y-91670665D01*
X147701076Y-91694933D01*
X147695115Y-91718732D01*
X147686850Y-91741831D01*
X147676360Y-91764010D01*
X147663748Y-91785053D01*
X147649133Y-91804759D01*
X147632657Y-91822937D01*
X147614479Y-91839413D01*
X147594773Y-91854028D01*
X147573730Y-91866640D01*
X147551551Y-91877130D01*
X147528452Y-91885395D01*
X147504653Y-91891356D01*
X147480385Y-91894956D01*
X147455881Y-91896160D01*
X146805879Y-91896160D01*
X146781375Y-91894956D01*
X146757107Y-91891356D01*
X146733308Y-91885395D01*
X146710209Y-91877130D01*
X146688030Y-91866640D01*
X146666987Y-91854028D01*
X146647281Y-91839413D01*
X146629103Y-91822937D01*
X146612627Y-91804759D01*
X146598012Y-91785053D01*
X146585400Y-91764010D01*
X146574910Y-91741831D01*
X146566645Y-91718732D01*
X146560684Y-91694933D01*
X146557084Y-91670665D01*
X146555880Y-91646161D01*
X146555880Y-90746159D01*
X146557084Y-90721655D01*
X146560684Y-90697387D01*
X146566645Y-90673588D01*
X146574910Y-90650489D01*
X146585400Y-90628310D01*
X146598012Y-90607267D01*
X146612627Y-90587561D01*
X146629103Y-90569383D01*
X146647281Y-90552907D01*
X146666987Y-90538292D01*
X146688030Y-90525680D01*
X146710209Y-90515190D01*
X146733308Y-90506925D01*
X146757107Y-90500964D01*
X146781375Y-90497364D01*
X146805879Y-90496160D01*
X147455881Y-90496160D01*
X147480385Y-90497364D01*
X147480385Y-90497364D01*
G37*
D32*
X147130880Y-91196160D03*
D31*
G36*
X145430385Y-90497364D02*
G01*
X145454653Y-90500964D01*
X145478452Y-90506925D01*
X145501551Y-90515190D01*
X145523730Y-90525680D01*
X145544773Y-90538292D01*
X145564479Y-90552907D01*
X145582657Y-90569383D01*
X145599133Y-90587561D01*
X145613748Y-90607267D01*
X145626360Y-90628310D01*
X145636850Y-90650489D01*
X145645115Y-90673588D01*
X145651076Y-90697387D01*
X145654676Y-90721655D01*
X145655880Y-90746159D01*
X145655880Y-91646161D01*
X145654676Y-91670665D01*
X145651076Y-91694933D01*
X145645115Y-91718732D01*
X145636850Y-91741831D01*
X145626360Y-91764010D01*
X145613748Y-91785053D01*
X145599133Y-91804759D01*
X145582657Y-91822937D01*
X145564479Y-91839413D01*
X145544773Y-91854028D01*
X145523730Y-91866640D01*
X145501551Y-91877130D01*
X145478452Y-91885395D01*
X145454653Y-91891356D01*
X145430385Y-91894956D01*
X145405881Y-91896160D01*
X144755879Y-91896160D01*
X144731375Y-91894956D01*
X144707107Y-91891356D01*
X144683308Y-91885395D01*
X144660209Y-91877130D01*
X144638030Y-91866640D01*
X144616987Y-91854028D01*
X144597281Y-91839413D01*
X144579103Y-91822937D01*
X144562627Y-91804759D01*
X144548012Y-91785053D01*
X144535400Y-91764010D01*
X144524910Y-91741831D01*
X144516645Y-91718732D01*
X144510684Y-91694933D01*
X144507084Y-91670665D01*
X144505880Y-91646161D01*
X144505880Y-90746159D01*
X144507084Y-90721655D01*
X144510684Y-90697387D01*
X144516645Y-90673588D01*
X144524910Y-90650489D01*
X144535400Y-90628310D01*
X144548012Y-90607267D01*
X144562627Y-90587561D01*
X144579103Y-90569383D01*
X144597281Y-90552907D01*
X144616987Y-90538292D01*
X144638030Y-90525680D01*
X144660209Y-90515190D01*
X144683308Y-90506925D01*
X144707107Y-90500964D01*
X144731375Y-90497364D01*
X144755879Y-90496160D01*
X145405881Y-90496160D01*
X145430385Y-90497364D01*
X145430385Y-90497364D01*
G37*
D32*
X145080880Y-91196160D03*
D31*
G36*
X96949405Y-89293404D02*
G01*
X96973673Y-89297004D01*
X96997472Y-89302965D01*
X97020571Y-89311230D01*
X97042750Y-89321720D01*
X97063793Y-89334332D01*
X97083499Y-89348947D01*
X97101677Y-89365423D01*
X97118153Y-89383601D01*
X97132768Y-89403307D01*
X97145380Y-89424350D01*
X97155870Y-89446529D01*
X97164135Y-89469628D01*
X97170096Y-89493427D01*
X97173696Y-89517695D01*
X97174900Y-89542199D01*
X97174900Y-90442201D01*
X97173696Y-90466705D01*
X97170096Y-90490973D01*
X97164135Y-90514772D01*
X97155870Y-90537871D01*
X97145380Y-90560050D01*
X97132768Y-90581093D01*
X97118153Y-90600799D01*
X97101677Y-90618977D01*
X97083499Y-90635453D01*
X97063793Y-90650068D01*
X97042750Y-90662680D01*
X97020571Y-90673170D01*
X96997472Y-90681435D01*
X96973673Y-90687396D01*
X96949405Y-90690996D01*
X96924901Y-90692200D01*
X96274899Y-90692200D01*
X96250395Y-90690996D01*
X96226127Y-90687396D01*
X96202328Y-90681435D01*
X96179229Y-90673170D01*
X96157050Y-90662680D01*
X96136007Y-90650068D01*
X96116301Y-90635453D01*
X96098123Y-90618977D01*
X96081647Y-90600799D01*
X96067032Y-90581093D01*
X96054420Y-90560050D01*
X96043930Y-90537871D01*
X96035665Y-90514772D01*
X96029704Y-90490973D01*
X96026104Y-90466705D01*
X96024900Y-90442201D01*
X96024900Y-89542199D01*
X96026104Y-89517695D01*
X96029704Y-89493427D01*
X96035665Y-89469628D01*
X96043930Y-89446529D01*
X96054420Y-89424350D01*
X96067032Y-89403307D01*
X96081647Y-89383601D01*
X96098123Y-89365423D01*
X96116301Y-89348947D01*
X96136007Y-89334332D01*
X96157050Y-89321720D01*
X96179229Y-89311230D01*
X96202328Y-89302965D01*
X96226127Y-89297004D01*
X96250395Y-89293404D01*
X96274899Y-89292200D01*
X96924901Y-89292200D01*
X96949405Y-89293404D01*
X96949405Y-89293404D01*
G37*
D32*
X96599900Y-89992200D03*
D31*
G36*
X98999405Y-89293404D02*
G01*
X99023673Y-89297004D01*
X99047472Y-89302965D01*
X99070571Y-89311230D01*
X99092750Y-89321720D01*
X99113793Y-89334332D01*
X99133499Y-89348947D01*
X99151677Y-89365423D01*
X99168153Y-89383601D01*
X99182768Y-89403307D01*
X99195380Y-89424350D01*
X99205870Y-89446529D01*
X99214135Y-89469628D01*
X99220096Y-89493427D01*
X99223696Y-89517695D01*
X99224900Y-89542199D01*
X99224900Y-90442201D01*
X99223696Y-90466705D01*
X99220096Y-90490973D01*
X99214135Y-90514772D01*
X99205870Y-90537871D01*
X99195380Y-90560050D01*
X99182768Y-90581093D01*
X99168153Y-90600799D01*
X99151677Y-90618977D01*
X99133499Y-90635453D01*
X99113793Y-90650068D01*
X99092750Y-90662680D01*
X99070571Y-90673170D01*
X99047472Y-90681435D01*
X99023673Y-90687396D01*
X98999405Y-90690996D01*
X98974901Y-90692200D01*
X98324899Y-90692200D01*
X98300395Y-90690996D01*
X98276127Y-90687396D01*
X98252328Y-90681435D01*
X98229229Y-90673170D01*
X98207050Y-90662680D01*
X98186007Y-90650068D01*
X98166301Y-90635453D01*
X98148123Y-90618977D01*
X98131647Y-90600799D01*
X98117032Y-90581093D01*
X98104420Y-90560050D01*
X98093930Y-90537871D01*
X98085665Y-90514772D01*
X98079704Y-90490973D01*
X98076104Y-90466705D01*
X98074900Y-90442201D01*
X98074900Y-89542199D01*
X98076104Y-89517695D01*
X98079704Y-89493427D01*
X98085665Y-89469628D01*
X98093930Y-89446529D01*
X98104420Y-89424350D01*
X98117032Y-89403307D01*
X98131647Y-89383601D01*
X98148123Y-89365423D01*
X98166301Y-89348947D01*
X98186007Y-89334332D01*
X98207050Y-89321720D01*
X98229229Y-89311230D01*
X98252328Y-89302965D01*
X98276127Y-89297004D01*
X98300395Y-89293404D01*
X98324899Y-89292200D01*
X98974901Y-89292200D01*
X98999405Y-89293404D01*
X98999405Y-89293404D01*
G37*
D32*
X98649900Y-89992200D03*
D31*
G36*
X94543405Y-72100904D02*
G01*
X94567673Y-72104504D01*
X94591472Y-72110465D01*
X94614571Y-72118730D01*
X94636750Y-72129220D01*
X94657793Y-72141832D01*
X94677499Y-72156447D01*
X94695677Y-72172923D01*
X94712153Y-72191101D01*
X94726768Y-72210807D01*
X94739380Y-72231850D01*
X94749870Y-72254029D01*
X94758135Y-72277128D01*
X94764096Y-72300927D01*
X94767696Y-72325195D01*
X94768900Y-72349699D01*
X94768900Y-72999701D01*
X94767696Y-73024205D01*
X94764096Y-73048473D01*
X94758135Y-73072272D01*
X94749870Y-73095371D01*
X94739380Y-73117550D01*
X94726768Y-73138593D01*
X94712153Y-73158299D01*
X94695677Y-73176477D01*
X94677499Y-73192953D01*
X94657793Y-73207568D01*
X94636750Y-73220180D01*
X94614571Y-73230670D01*
X94591472Y-73238935D01*
X94567673Y-73244896D01*
X94543405Y-73248496D01*
X94518901Y-73249700D01*
X93618899Y-73249700D01*
X93594395Y-73248496D01*
X93570127Y-73244896D01*
X93546328Y-73238935D01*
X93523229Y-73230670D01*
X93501050Y-73220180D01*
X93480007Y-73207568D01*
X93460301Y-73192953D01*
X93442123Y-73176477D01*
X93425647Y-73158299D01*
X93411032Y-73138593D01*
X93398420Y-73117550D01*
X93387930Y-73095371D01*
X93379665Y-73072272D01*
X93373704Y-73048473D01*
X93370104Y-73024205D01*
X93368900Y-72999701D01*
X93368900Y-72349699D01*
X93370104Y-72325195D01*
X93373704Y-72300927D01*
X93379665Y-72277128D01*
X93387930Y-72254029D01*
X93398420Y-72231850D01*
X93411032Y-72210807D01*
X93425647Y-72191101D01*
X93442123Y-72172923D01*
X93460301Y-72156447D01*
X93480007Y-72141832D01*
X93501050Y-72129220D01*
X93523229Y-72118730D01*
X93546328Y-72110465D01*
X93570127Y-72104504D01*
X93594395Y-72100904D01*
X93618899Y-72099700D01*
X94518901Y-72099700D01*
X94543405Y-72100904D01*
X94543405Y-72100904D01*
G37*
D32*
X94068900Y-72674700D03*
D31*
G36*
X94543405Y-70050904D02*
G01*
X94567673Y-70054504D01*
X94591472Y-70060465D01*
X94614571Y-70068730D01*
X94636750Y-70079220D01*
X94657793Y-70091832D01*
X94677499Y-70106447D01*
X94695677Y-70122923D01*
X94712153Y-70141101D01*
X94726768Y-70160807D01*
X94739380Y-70181850D01*
X94749870Y-70204029D01*
X94758135Y-70227128D01*
X94764096Y-70250927D01*
X94767696Y-70275195D01*
X94768900Y-70299699D01*
X94768900Y-70949701D01*
X94767696Y-70974205D01*
X94764096Y-70998473D01*
X94758135Y-71022272D01*
X94749870Y-71045371D01*
X94739380Y-71067550D01*
X94726768Y-71088593D01*
X94712153Y-71108299D01*
X94695677Y-71126477D01*
X94677499Y-71142953D01*
X94657793Y-71157568D01*
X94636750Y-71170180D01*
X94614571Y-71180670D01*
X94591472Y-71188935D01*
X94567673Y-71194896D01*
X94543405Y-71198496D01*
X94518901Y-71199700D01*
X93618899Y-71199700D01*
X93594395Y-71198496D01*
X93570127Y-71194896D01*
X93546328Y-71188935D01*
X93523229Y-71180670D01*
X93501050Y-71170180D01*
X93480007Y-71157568D01*
X93460301Y-71142953D01*
X93442123Y-71126477D01*
X93425647Y-71108299D01*
X93411032Y-71088593D01*
X93398420Y-71067550D01*
X93387930Y-71045371D01*
X93379665Y-71022272D01*
X93373704Y-70998473D01*
X93370104Y-70974205D01*
X93368900Y-70949701D01*
X93368900Y-70299699D01*
X93370104Y-70275195D01*
X93373704Y-70250927D01*
X93379665Y-70227128D01*
X93387930Y-70204029D01*
X93398420Y-70181850D01*
X93411032Y-70160807D01*
X93425647Y-70141101D01*
X93442123Y-70122923D01*
X93460301Y-70106447D01*
X93480007Y-70091832D01*
X93501050Y-70079220D01*
X93523229Y-70068730D01*
X93546328Y-70060465D01*
X93570127Y-70054504D01*
X93594395Y-70050904D01*
X93618899Y-70049700D01*
X94518901Y-70049700D01*
X94543405Y-70050904D01*
X94543405Y-70050904D01*
G37*
D32*
X94068900Y-70624700D03*
D31*
G36*
X98999405Y-79133404D02*
G01*
X99023673Y-79137004D01*
X99047472Y-79142965D01*
X99070571Y-79151230D01*
X99092750Y-79161720D01*
X99113793Y-79174332D01*
X99133499Y-79188947D01*
X99151677Y-79205423D01*
X99168153Y-79223601D01*
X99182768Y-79243307D01*
X99195380Y-79264350D01*
X99205870Y-79286529D01*
X99214135Y-79309628D01*
X99220096Y-79333427D01*
X99223696Y-79357695D01*
X99224900Y-79382199D01*
X99224900Y-80282201D01*
X99223696Y-80306705D01*
X99220096Y-80330973D01*
X99214135Y-80354772D01*
X99205870Y-80377871D01*
X99195380Y-80400050D01*
X99182768Y-80421093D01*
X99168153Y-80440799D01*
X99151677Y-80458977D01*
X99133499Y-80475453D01*
X99113793Y-80490068D01*
X99092750Y-80502680D01*
X99070571Y-80513170D01*
X99047472Y-80521435D01*
X99023673Y-80527396D01*
X98999405Y-80530996D01*
X98974901Y-80532200D01*
X98324899Y-80532200D01*
X98300395Y-80530996D01*
X98276127Y-80527396D01*
X98252328Y-80521435D01*
X98229229Y-80513170D01*
X98207050Y-80502680D01*
X98186007Y-80490068D01*
X98166301Y-80475453D01*
X98148123Y-80458977D01*
X98131647Y-80440799D01*
X98117032Y-80421093D01*
X98104420Y-80400050D01*
X98093930Y-80377871D01*
X98085665Y-80354772D01*
X98079704Y-80330973D01*
X98076104Y-80306705D01*
X98074900Y-80282201D01*
X98074900Y-79382199D01*
X98076104Y-79357695D01*
X98079704Y-79333427D01*
X98085665Y-79309628D01*
X98093930Y-79286529D01*
X98104420Y-79264350D01*
X98117032Y-79243307D01*
X98131647Y-79223601D01*
X98148123Y-79205423D01*
X98166301Y-79188947D01*
X98186007Y-79174332D01*
X98207050Y-79161720D01*
X98229229Y-79151230D01*
X98252328Y-79142965D01*
X98276127Y-79137004D01*
X98300395Y-79133404D01*
X98324899Y-79132200D01*
X98974901Y-79132200D01*
X98999405Y-79133404D01*
X98999405Y-79133404D01*
G37*
D32*
X98649900Y-79832200D03*
D31*
G36*
X96949405Y-79133404D02*
G01*
X96973673Y-79137004D01*
X96997472Y-79142965D01*
X97020571Y-79151230D01*
X97042750Y-79161720D01*
X97063793Y-79174332D01*
X97083499Y-79188947D01*
X97101677Y-79205423D01*
X97118153Y-79223601D01*
X97132768Y-79243307D01*
X97145380Y-79264350D01*
X97155870Y-79286529D01*
X97164135Y-79309628D01*
X97170096Y-79333427D01*
X97173696Y-79357695D01*
X97174900Y-79382199D01*
X97174900Y-80282201D01*
X97173696Y-80306705D01*
X97170096Y-80330973D01*
X97164135Y-80354772D01*
X97155870Y-80377871D01*
X97145380Y-80400050D01*
X97132768Y-80421093D01*
X97118153Y-80440799D01*
X97101677Y-80458977D01*
X97083499Y-80475453D01*
X97063793Y-80490068D01*
X97042750Y-80502680D01*
X97020571Y-80513170D01*
X96997472Y-80521435D01*
X96973673Y-80527396D01*
X96949405Y-80530996D01*
X96924901Y-80532200D01*
X96274899Y-80532200D01*
X96250395Y-80530996D01*
X96226127Y-80527396D01*
X96202328Y-80521435D01*
X96179229Y-80513170D01*
X96157050Y-80502680D01*
X96136007Y-80490068D01*
X96116301Y-80475453D01*
X96098123Y-80458977D01*
X96081647Y-80440799D01*
X96067032Y-80421093D01*
X96054420Y-80400050D01*
X96043930Y-80377871D01*
X96035665Y-80354772D01*
X96029704Y-80330973D01*
X96026104Y-80306705D01*
X96024900Y-80282201D01*
X96024900Y-79382199D01*
X96026104Y-79357695D01*
X96029704Y-79333427D01*
X96035665Y-79309628D01*
X96043930Y-79286529D01*
X96054420Y-79264350D01*
X96067032Y-79243307D01*
X96081647Y-79223601D01*
X96098123Y-79205423D01*
X96116301Y-79188947D01*
X96136007Y-79174332D01*
X96157050Y-79161720D01*
X96179229Y-79151230D01*
X96202328Y-79142965D01*
X96226127Y-79137004D01*
X96250395Y-79133404D01*
X96274899Y-79132200D01*
X96924901Y-79132200D01*
X96949405Y-79133404D01*
X96949405Y-79133404D01*
G37*
D32*
X96599900Y-79832200D03*
D31*
G36*
X137659585Y-69811604D02*
G01*
X137683853Y-69815204D01*
X137707652Y-69821165D01*
X137730751Y-69829430D01*
X137752930Y-69839920D01*
X137773973Y-69852532D01*
X137793679Y-69867147D01*
X137811857Y-69883623D01*
X137828333Y-69901801D01*
X137842948Y-69921507D01*
X137855560Y-69942550D01*
X137866050Y-69964729D01*
X137874315Y-69987828D01*
X137880276Y-70011627D01*
X137883876Y-70035895D01*
X137885080Y-70060399D01*
X137885080Y-70960401D01*
X137883876Y-70984905D01*
X137880276Y-71009173D01*
X137874315Y-71032972D01*
X137866050Y-71056071D01*
X137855560Y-71078250D01*
X137842948Y-71099293D01*
X137828333Y-71118999D01*
X137811857Y-71137177D01*
X137793679Y-71153653D01*
X137773973Y-71168268D01*
X137752930Y-71180880D01*
X137730751Y-71191370D01*
X137707652Y-71199635D01*
X137683853Y-71205596D01*
X137659585Y-71209196D01*
X137635081Y-71210400D01*
X136985079Y-71210400D01*
X136960575Y-71209196D01*
X136936307Y-71205596D01*
X136912508Y-71199635D01*
X136889409Y-71191370D01*
X136867230Y-71180880D01*
X136846187Y-71168268D01*
X136826481Y-71153653D01*
X136808303Y-71137177D01*
X136791827Y-71118999D01*
X136777212Y-71099293D01*
X136764600Y-71078250D01*
X136754110Y-71056071D01*
X136745845Y-71032972D01*
X136739884Y-71009173D01*
X136736284Y-70984905D01*
X136735080Y-70960401D01*
X136735080Y-70060399D01*
X136736284Y-70035895D01*
X136739884Y-70011627D01*
X136745845Y-69987828D01*
X136754110Y-69964729D01*
X136764600Y-69942550D01*
X136777212Y-69921507D01*
X136791827Y-69901801D01*
X136808303Y-69883623D01*
X136826481Y-69867147D01*
X136846187Y-69852532D01*
X136867230Y-69839920D01*
X136889409Y-69829430D01*
X136912508Y-69821165D01*
X136936307Y-69815204D01*
X136960575Y-69811604D01*
X136985079Y-69810400D01*
X137635081Y-69810400D01*
X137659585Y-69811604D01*
X137659585Y-69811604D01*
G37*
D32*
X137310080Y-70510400D03*
D31*
G36*
X135609585Y-69811604D02*
G01*
X135633853Y-69815204D01*
X135657652Y-69821165D01*
X135680751Y-69829430D01*
X135702930Y-69839920D01*
X135723973Y-69852532D01*
X135743679Y-69867147D01*
X135761857Y-69883623D01*
X135778333Y-69901801D01*
X135792948Y-69921507D01*
X135805560Y-69942550D01*
X135816050Y-69964729D01*
X135824315Y-69987828D01*
X135830276Y-70011627D01*
X135833876Y-70035895D01*
X135835080Y-70060399D01*
X135835080Y-70960401D01*
X135833876Y-70984905D01*
X135830276Y-71009173D01*
X135824315Y-71032972D01*
X135816050Y-71056071D01*
X135805560Y-71078250D01*
X135792948Y-71099293D01*
X135778333Y-71118999D01*
X135761857Y-71137177D01*
X135743679Y-71153653D01*
X135723973Y-71168268D01*
X135702930Y-71180880D01*
X135680751Y-71191370D01*
X135657652Y-71199635D01*
X135633853Y-71205596D01*
X135609585Y-71209196D01*
X135585081Y-71210400D01*
X134935079Y-71210400D01*
X134910575Y-71209196D01*
X134886307Y-71205596D01*
X134862508Y-71199635D01*
X134839409Y-71191370D01*
X134817230Y-71180880D01*
X134796187Y-71168268D01*
X134776481Y-71153653D01*
X134758303Y-71137177D01*
X134741827Y-71118999D01*
X134727212Y-71099293D01*
X134714600Y-71078250D01*
X134704110Y-71056071D01*
X134695845Y-71032972D01*
X134689884Y-71009173D01*
X134686284Y-70984905D01*
X134685080Y-70960401D01*
X134685080Y-70060399D01*
X134686284Y-70035895D01*
X134689884Y-70011627D01*
X134695845Y-69987828D01*
X134704110Y-69964729D01*
X134714600Y-69942550D01*
X134727212Y-69921507D01*
X134741827Y-69901801D01*
X134758303Y-69883623D01*
X134776481Y-69867147D01*
X134796187Y-69852532D01*
X134817230Y-69839920D01*
X134839409Y-69829430D01*
X134862508Y-69821165D01*
X134886307Y-69815204D01*
X134910575Y-69811604D01*
X134935079Y-69810400D01*
X135585081Y-69810400D01*
X135609585Y-69811604D01*
X135609585Y-69811604D01*
G37*
D32*
X135260080Y-70510400D03*
D31*
G36*
X92435205Y-102102004D02*
G01*
X92459473Y-102105604D01*
X92483272Y-102111565D01*
X92506371Y-102119830D01*
X92528550Y-102130320D01*
X92549593Y-102142932D01*
X92569299Y-102157547D01*
X92587477Y-102174023D01*
X92603953Y-102192201D01*
X92618568Y-102211907D01*
X92631180Y-102232950D01*
X92641670Y-102255129D01*
X92649935Y-102278228D01*
X92655896Y-102302027D01*
X92659496Y-102326295D01*
X92660700Y-102350799D01*
X92660700Y-103000801D01*
X92659496Y-103025305D01*
X92655896Y-103049573D01*
X92649935Y-103073372D01*
X92641670Y-103096471D01*
X92631180Y-103118650D01*
X92618568Y-103139693D01*
X92603953Y-103159399D01*
X92587477Y-103177577D01*
X92569299Y-103194053D01*
X92549593Y-103208668D01*
X92528550Y-103221280D01*
X92506371Y-103231770D01*
X92483272Y-103240035D01*
X92459473Y-103245996D01*
X92435205Y-103249596D01*
X92410701Y-103250800D01*
X91510699Y-103250800D01*
X91486195Y-103249596D01*
X91461927Y-103245996D01*
X91438128Y-103240035D01*
X91415029Y-103231770D01*
X91392850Y-103221280D01*
X91371807Y-103208668D01*
X91352101Y-103194053D01*
X91333923Y-103177577D01*
X91317447Y-103159399D01*
X91302832Y-103139693D01*
X91290220Y-103118650D01*
X91279730Y-103096471D01*
X91271465Y-103073372D01*
X91265504Y-103049573D01*
X91261904Y-103025305D01*
X91260700Y-103000801D01*
X91260700Y-102350799D01*
X91261904Y-102326295D01*
X91265504Y-102302027D01*
X91271465Y-102278228D01*
X91279730Y-102255129D01*
X91290220Y-102232950D01*
X91302832Y-102211907D01*
X91317447Y-102192201D01*
X91333923Y-102174023D01*
X91352101Y-102157547D01*
X91371807Y-102142932D01*
X91392850Y-102130320D01*
X91415029Y-102119830D01*
X91438128Y-102111565D01*
X91461927Y-102105604D01*
X91486195Y-102102004D01*
X91510699Y-102100800D01*
X92410701Y-102100800D01*
X92435205Y-102102004D01*
X92435205Y-102102004D01*
G37*
D32*
X91960700Y-102675800D03*
D31*
G36*
X92435205Y-100052004D02*
G01*
X92459473Y-100055604D01*
X92483272Y-100061565D01*
X92506371Y-100069830D01*
X92528550Y-100080320D01*
X92549593Y-100092932D01*
X92569299Y-100107547D01*
X92587477Y-100124023D01*
X92603953Y-100142201D01*
X92618568Y-100161907D01*
X92631180Y-100182950D01*
X92641670Y-100205129D01*
X92649935Y-100228228D01*
X92655896Y-100252027D01*
X92659496Y-100276295D01*
X92660700Y-100300799D01*
X92660700Y-100950801D01*
X92659496Y-100975305D01*
X92655896Y-100999573D01*
X92649935Y-101023372D01*
X92641670Y-101046471D01*
X92631180Y-101068650D01*
X92618568Y-101089693D01*
X92603953Y-101109399D01*
X92587477Y-101127577D01*
X92569299Y-101144053D01*
X92549593Y-101158668D01*
X92528550Y-101171280D01*
X92506371Y-101181770D01*
X92483272Y-101190035D01*
X92459473Y-101195996D01*
X92435205Y-101199596D01*
X92410701Y-101200800D01*
X91510699Y-101200800D01*
X91486195Y-101199596D01*
X91461927Y-101195996D01*
X91438128Y-101190035D01*
X91415029Y-101181770D01*
X91392850Y-101171280D01*
X91371807Y-101158668D01*
X91352101Y-101144053D01*
X91333923Y-101127577D01*
X91317447Y-101109399D01*
X91302832Y-101089693D01*
X91290220Y-101068650D01*
X91279730Y-101046471D01*
X91271465Y-101023372D01*
X91265504Y-100999573D01*
X91261904Y-100975305D01*
X91260700Y-100950801D01*
X91260700Y-100300799D01*
X91261904Y-100276295D01*
X91265504Y-100252027D01*
X91271465Y-100228228D01*
X91279730Y-100205129D01*
X91290220Y-100182950D01*
X91302832Y-100161907D01*
X91317447Y-100142201D01*
X91333923Y-100124023D01*
X91352101Y-100107547D01*
X91371807Y-100092932D01*
X91392850Y-100080320D01*
X91415029Y-100069830D01*
X91438128Y-100061565D01*
X91461927Y-100055604D01*
X91486195Y-100052004D01*
X91510699Y-100050800D01*
X92410701Y-100050800D01*
X92435205Y-100052004D01*
X92435205Y-100052004D01*
G37*
D32*
X91960700Y-100625800D03*
D31*
G36*
X127664465Y-67932004D02*
G01*
X127688733Y-67935604D01*
X127712532Y-67941565D01*
X127735631Y-67949830D01*
X127757810Y-67960320D01*
X127778853Y-67972932D01*
X127798559Y-67987547D01*
X127816737Y-68004023D01*
X127833213Y-68022201D01*
X127847828Y-68041907D01*
X127860440Y-68062950D01*
X127870930Y-68085129D01*
X127879195Y-68108228D01*
X127885156Y-68132027D01*
X127888756Y-68156295D01*
X127889960Y-68180799D01*
X127889960Y-69080801D01*
X127888756Y-69105305D01*
X127885156Y-69129573D01*
X127879195Y-69153372D01*
X127870930Y-69176471D01*
X127860440Y-69198650D01*
X127847828Y-69219693D01*
X127833213Y-69239399D01*
X127816737Y-69257577D01*
X127798559Y-69274053D01*
X127778853Y-69288668D01*
X127757810Y-69301280D01*
X127735631Y-69311770D01*
X127712532Y-69320035D01*
X127688733Y-69325996D01*
X127664465Y-69329596D01*
X127639961Y-69330800D01*
X126989959Y-69330800D01*
X126965455Y-69329596D01*
X126941187Y-69325996D01*
X126917388Y-69320035D01*
X126894289Y-69311770D01*
X126872110Y-69301280D01*
X126851067Y-69288668D01*
X126831361Y-69274053D01*
X126813183Y-69257577D01*
X126796707Y-69239399D01*
X126782092Y-69219693D01*
X126769480Y-69198650D01*
X126758990Y-69176471D01*
X126750725Y-69153372D01*
X126744764Y-69129573D01*
X126741164Y-69105305D01*
X126739960Y-69080801D01*
X126739960Y-68180799D01*
X126741164Y-68156295D01*
X126744764Y-68132027D01*
X126750725Y-68108228D01*
X126758990Y-68085129D01*
X126769480Y-68062950D01*
X126782092Y-68041907D01*
X126796707Y-68022201D01*
X126813183Y-68004023D01*
X126831361Y-67987547D01*
X126851067Y-67972932D01*
X126872110Y-67960320D01*
X126894289Y-67949830D01*
X126917388Y-67941565D01*
X126941187Y-67935604D01*
X126965455Y-67932004D01*
X126989959Y-67930800D01*
X127639961Y-67930800D01*
X127664465Y-67932004D01*
X127664465Y-67932004D01*
G37*
D32*
X127314960Y-68630800D03*
D31*
G36*
X125614465Y-67932004D02*
G01*
X125638733Y-67935604D01*
X125662532Y-67941565D01*
X125685631Y-67949830D01*
X125707810Y-67960320D01*
X125728853Y-67972932D01*
X125748559Y-67987547D01*
X125766737Y-68004023D01*
X125783213Y-68022201D01*
X125797828Y-68041907D01*
X125810440Y-68062950D01*
X125820930Y-68085129D01*
X125829195Y-68108228D01*
X125835156Y-68132027D01*
X125838756Y-68156295D01*
X125839960Y-68180799D01*
X125839960Y-69080801D01*
X125838756Y-69105305D01*
X125835156Y-69129573D01*
X125829195Y-69153372D01*
X125820930Y-69176471D01*
X125810440Y-69198650D01*
X125797828Y-69219693D01*
X125783213Y-69239399D01*
X125766737Y-69257577D01*
X125748559Y-69274053D01*
X125728853Y-69288668D01*
X125707810Y-69301280D01*
X125685631Y-69311770D01*
X125662532Y-69320035D01*
X125638733Y-69325996D01*
X125614465Y-69329596D01*
X125589961Y-69330800D01*
X124939959Y-69330800D01*
X124915455Y-69329596D01*
X124891187Y-69325996D01*
X124867388Y-69320035D01*
X124844289Y-69311770D01*
X124822110Y-69301280D01*
X124801067Y-69288668D01*
X124781361Y-69274053D01*
X124763183Y-69257577D01*
X124746707Y-69239399D01*
X124732092Y-69219693D01*
X124719480Y-69198650D01*
X124708990Y-69176471D01*
X124700725Y-69153372D01*
X124694764Y-69129573D01*
X124691164Y-69105305D01*
X124689960Y-69080801D01*
X124689960Y-68180799D01*
X124691164Y-68156295D01*
X124694764Y-68132027D01*
X124700725Y-68108228D01*
X124708990Y-68085129D01*
X124719480Y-68062950D01*
X124732092Y-68041907D01*
X124746707Y-68022201D01*
X124763183Y-68004023D01*
X124781361Y-67987547D01*
X124801067Y-67972932D01*
X124822110Y-67960320D01*
X124844289Y-67949830D01*
X124867388Y-67941565D01*
X124891187Y-67935604D01*
X124915455Y-67932004D01*
X124939959Y-67930800D01*
X125589961Y-67930800D01*
X125614465Y-67932004D01*
X125614465Y-67932004D01*
G37*
D32*
X125264960Y-68630800D03*
D31*
G36*
X177017205Y-113301804D02*
G01*
X177041473Y-113305404D01*
X177065272Y-113311365D01*
X177088371Y-113319630D01*
X177110550Y-113330120D01*
X177131593Y-113342732D01*
X177151299Y-113357347D01*
X177169477Y-113373823D01*
X177185953Y-113392001D01*
X177200568Y-113411707D01*
X177213180Y-113432750D01*
X177223670Y-113454929D01*
X177231935Y-113478028D01*
X177237896Y-113501827D01*
X177241496Y-113526095D01*
X177242700Y-113550599D01*
X177242700Y-114200601D01*
X177241496Y-114225105D01*
X177237896Y-114249373D01*
X177231935Y-114273172D01*
X177223670Y-114296271D01*
X177213180Y-114318450D01*
X177200568Y-114339493D01*
X177185953Y-114359199D01*
X177169477Y-114377377D01*
X177151299Y-114393853D01*
X177131593Y-114408468D01*
X177110550Y-114421080D01*
X177088371Y-114431570D01*
X177065272Y-114439835D01*
X177041473Y-114445796D01*
X177017205Y-114449396D01*
X176992701Y-114450600D01*
X176092699Y-114450600D01*
X176068195Y-114449396D01*
X176043927Y-114445796D01*
X176020128Y-114439835D01*
X175997029Y-114431570D01*
X175974850Y-114421080D01*
X175953807Y-114408468D01*
X175934101Y-114393853D01*
X175915923Y-114377377D01*
X175899447Y-114359199D01*
X175884832Y-114339493D01*
X175872220Y-114318450D01*
X175861730Y-114296271D01*
X175853465Y-114273172D01*
X175847504Y-114249373D01*
X175843904Y-114225105D01*
X175842700Y-114200601D01*
X175842700Y-113550599D01*
X175843904Y-113526095D01*
X175847504Y-113501827D01*
X175853465Y-113478028D01*
X175861730Y-113454929D01*
X175872220Y-113432750D01*
X175884832Y-113411707D01*
X175899447Y-113392001D01*
X175915923Y-113373823D01*
X175934101Y-113357347D01*
X175953807Y-113342732D01*
X175974850Y-113330120D01*
X175997029Y-113319630D01*
X176020128Y-113311365D01*
X176043927Y-113305404D01*
X176068195Y-113301804D01*
X176092699Y-113300600D01*
X176992701Y-113300600D01*
X177017205Y-113301804D01*
X177017205Y-113301804D01*
G37*
D32*
X176542700Y-113875600D03*
D31*
G36*
X177017205Y-115351804D02*
G01*
X177041473Y-115355404D01*
X177065272Y-115361365D01*
X177088371Y-115369630D01*
X177110550Y-115380120D01*
X177131593Y-115392732D01*
X177151299Y-115407347D01*
X177169477Y-115423823D01*
X177185953Y-115442001D01*
X177200568Y-115461707D01*
X177213180Y-115482750D01*
X177223670Y-115504929D01*
X177231935Y-115528028D01*
X177237896Y-115551827D01*
X177241496Y-115576095D01*
X177242700Y-115600599D01*
X177242700Y-116250601D01*
X177241496Y-116275105D01*
X177237896Y-116299373D01*
X177231935Y-116323172D01*
X177223670Y-116346271D01*
X177213180Y-116368450D01*
X177200568Y-116389493D01*
X177185953Y-116409199D01*
X177169477Y-116427377D01*
X177151299Y-116443853D01*
X177131593Y-116458468D01*
X177110550Y-116471080D01*
X177088371Y-116481570D01*
X177065272Y-116489835D01*
X177041473Y-116495796D01*
X177017205Y-116499396D01*
X176992701Y-116500600D01*
X176092699Y-116500600D01*
X176068195Y-116499396D01*
X176043927Y-116495796D01*
X176020128Y-116489835D01*
X175997029Y-116481570D01*
X175974850Y-116471080D01*
X175953807Y-116458468D01*
X175934101Y-116443853D01*
X175915923Y-116427377D01*
X175899447Y-116409199D01*
X175884832Y-116389493D01*
X175872220Y-116368450D01*
X175861730Y-116346271D01*
X175853465Y-116323172D01*
X175847504Y-116299373D01*
X175843904Y-116275105D01*
X175842700Y-116250601D01*
X175842700Y-115600599D01*
X175843904Y-115576095D01*
X175847504Y-115551827D01*
X175853465Y-115528028D01*
X175861730Y-115504929D01*
X175872220Y-115482750D01*
X175884832Y-115461707D01*
X175899447Y-115442001D01*
X175915923Y-115423823D01*
X175934101Y-115407347D01*
X175953807Y-115392732D01*
X175974850Y-115380120D01*
X175997029Y-115369630D01*
X176020128Y-115361365D01*
X176043927Y-115355404D01*
X176068195Y-115351804D01*
X176092699Y-115350600D01*
X176992701Y-115350600D01*
X177017205Y-115351804D01*
X177017205Y-115351804D01*
G37*
D32*
X176542700Y-115925600D03*
D31*
G36*
X177017205Y-122971804D02*
G01*
X177041473Y-122975404D01*
X177065272Y-122981365D01*
X177088371Y-122989630D01*
X177110550Y-123000120D01*
X177131593Y-123012732D01*
X177151299Y-123027347D01*
X177169477Y-123043823D01*
X177185953Y-123062001D01*
X177200568Y-123081707D01*
X177213180Y-123102750D01*
X177223670Y-123124929D01*
X177231935Y-123148028D01*
X177237896Y-123171827D01*
X177241496Y-123196095D01*
X177242700Y-123220599D01*
X177242700Y-123870601D01*
X177241496Y-123895105D01*
X177237896Y-123919373D01*
X177231935Y-123943172D01*
X177223670Y-123966271D01*
X177213180Y-123988450D01*
X177200568Y-124009493D01*
X177185953Y-124029199D01*
X177169477Y-124047377D01*
X177151299Y-124063853D01*
X177131593Y-124078468D01*
X177110550Y-124091080D01*
X177088371Y-124101570D01*
X177065272Y-124109835D01*
X177041473Y-124115796D01*
X177017205Y-124119396D01*
X176992701Y-124120600D01*
X176092699Y-124120600D01*
X176068195Y-124119396D01*
X176043927Y-124115796D01*
X176020128Y-124109835D01*
X175997029Y-124101570D01*
X175974850Y-124091080D01*
X175953807Y-124078468D01*
X175934101Y-124063853D01*
X175915923Y-124047377D01*
X175899447Y-124029199D01*
X175884832Y-124009493D01*
X175872220Y-123988450D01*
X175861730Y-123966271D01*
X175853465Y-123943172D01*
X175847504Y-123919373D01*
X175843904Y-123895105D01*
X175842700Y-123870601D01*
X175842700Y-123220599D01*
X175843904Y-123196095D01*
X175847504Y-123171827D01*
X175853465Y-123148028D01*
X175861730Y-123124929D01*
X175872220Y-123102750D01*
X175884832Y-123081707D01*
X175899447Y-123062001D01*
X175915923Y-123043823D01*
X175934101Y-123027347D01*
X175953807Y-123012732D01*
X175974850Y-123000120D01*
X175997029Y-122989630D01*
X176020128Y-122981365D01*
X176043927Y-122975404D01*
X176068195Y-122971804D01*
X176092699Y-122970600D01*
X176992701Y-122970600D01*
X177017205Y-122971804D01*
X177017205Y-122971804D01*
G37*
D32*
X176542700Y-123545600D03*
D31*
G36*
X177017205Y-120921804D02*
G01*
X177041473Y-120925404D01*
X177065272Y-120931365D01*
X177088371Y-120939630D01*
X177110550Y-120950120D01*
X177131593Y-120962732D01*
X177151299Y-120977347D01*
X177169477Y-120993823D01*
X177185953Y-121012001D01*
X177200568Y-121031707D01*
X177213180Y-121052750D01*
X177223670Y-121074929D01*
X177231935Y-121098028D01*
X177237896Y-121121827D01*
X177241496Y-121146095D01*
X177242700Y-121170599D01*
X177242700Y-121820601D01*
X177241496Y-121845105D01*
X177237896Y-121869373D01*
X177231935Y-121893172D01*
X177223670Y-121916271D01*
X177213180Y-121938450D01*
X177200568Y-121959493D01*
X177185953Y-121979199D01*
X177169477Y-121997377D01*
X177151299Y-122013853D01*
X177131593Y-122028468D01*
X177110550Y-122041080D01*
X177088371Y-122051570D01*
X177065272Y-122059835D01*
X177041473Y-122065796D01*
X177017205Y-122069396D01*
X176992701Y-122070600D01*
X176092699Y-122070600D01*
X176068195Y-122069396D01*
X176043927Y-122065796D01*
X176020128Y-122059835D01*
X175997029Y-122051570D01*
X175974850Y-122041080D01*
X175953807Y-122028468D01*
X175934101Y-122013853D01*
X175915923Y-121997377D01*
X175899447Y-121979199D01*
X175884832Y-121959493D01*
X175872220Y-121938450D01*
X175861730Y-121916271D01*
X175853465Y-121893172D01*
X175847504Y-121869373D01*
X175843904Y-121845105D01*
X175842700Y-121820601D01*
X175842700Y-121170599D01*
X175843904Y-121146095D01*
X175847504Y-121121827D01*
X175853465Y-121098028D01*
X175861730Y-121074929D01*
X175872220Y-121052750D01*
X175884832Y-121031707D01*
X175899447Y-121012001D01*
X175915923Y-120993823D01*
X175934101Y-120977347D01*
X175953807Y-120962732D01*
X175974850Y-120950120D01*
X175997029Y-120939630D01*
X176020128Y-120931365D01*
X176043927Y-120925404D01*
X176068195Y-120921804D01*
X176092699Y-120920600D01*
X176992701Y-120920600D01*
X177017205Y-120921804D01*
X177017205Y-120921804D01*
G37*
D32*
X176542700Y-121495600D03*
D31*
G36*
X133867145Y-58183484D02*
G01*
X133891413Y-58187084D01*
X133915212Y-58193045D01*
X133938311Y-58201310D01*
X133960490Y-58211800D01*
X133981533Y-58224412D01*
X134001239Y-58239027D01*
X134019417Y-58255503D01*
X134035893Y-58273681D01*
X134050508Y-58293387D01*
X134063120Y-58314430D01*
X134073610Y-58336609D01*
X134081875Y-58359708D01*
X134087836Y-58383507D01*
X134091436Y-58407775D01*
X134092640Y-58432279D01*
X134092640Y-59332281D01*
X134091436Y-59356785D01*
X134087836Y-59381053D01*
X134081875Y-59404852D01*
X134073610Y-59427951D01*
X134063120Y-59450130D01*
X134050508Y-59471173D01*
X134035893Y-59490879D01*
X134019417Y-59509057D01*
X134001239Y-59525533D01*
X133981533Y-59540148D01*
X133960490Y-59552760D01*
X133938311Y-59563250D01*
X133915212Y-59571515D01*
X133891413Y-59577476D01*
X133867145Y-59581076D01*
X133842641Y-59582280D01*
X133192639Y-59582280D01*
X133168135Y-59581076D01*
X133143867Y-59577476D01*
X133120068Y-59571515D01*
X133096969Y-59563250D01*
X133074790Y-59552760D01*
X133053747Y-59540148D01*
X133034041Y-59525533D01*
X133015863Y-59509057D01*
X132999387Y-59490879D01*
X132984772Y-59471173D01*
X132972160Y-59450130D01*
X132961670Y-59427951D01*
X132953405Y-59404852D01*
X132947444Y-59381053D01*
X132943844Y-59356785D01*
X132942640Y-59332281D01*
X132942640Y-58432279D01*
X132943844Y-58407775D01*
X132947444Y-58383507D01*
X132953405Y-58359708D01*
X132961670Y-58336609D01*
X132972160Y-58314430D01*
X132984772Y-58293387D01*
X132999387Y-58273681D01*
X133015863Y-58255503D01*
X133034041Y-58239027D01*
X133053747Y-58224412D01*
X133074790Y-58211800D01*
X133096969Y-58201310D01*
X133120068Y-58193045D01*
X133143867Y-58187084D01*
X133168135Y-58183484D01*
X133192639Y-58182280D01*
X133842641Y-58182280D01*
X133867145Y-58183484D01*
X133867145Y-58183484D01*
G37*
D32*
X133517640Y-58882280D03*
D31*
G36*
X131817145Y-58183484D02*
G01*
X131841413Y-58187084D01*
X131865212Y-58193045D01*
X131888311Y-58201310D01*
X131910490Y-58211800D01*
X131931533Y-58224412D01*
X131951239Y-58239027D01*
X131969417Y-58255503D01*
X131985893Y-58273681D01*
X132000508Y-58293387D01*
X132013120Y-58314430D01*
X132023610Y-58336609D01*
X132031875Y-58359708D01*
X132037836Y-58383507D01*
X132041436Y-58407775D01*
X132042640Y-58432279D01*
X132042640Y-59332281D01*
X132041436Y-59356785D01*
X132037836Y-59381053D01*
X132031875Y-59404852D01*
X132023610Y-59427951D01*
X132013120Y-59450130D01*
X132000508Y-59471173D01*
X131985893Y-59490879D01*
X131969417Y-59509057D01*
X131951239Y-59525533D01*
X131931533Y-59540148D01*
X131910490Y-59552760D01*
X131888311Y-59563250D01*
X131865212Y-59571515D01*
X131841413Y-59577476D01*
X131817145Y-59581076D01*
X131792641Y-59582280D01*
X131142639Y-59582280D01*
X131118135Y-59581076D01*
X131093867Y-59577476D01*
X131070068Y-59571515D01*
X131046969Y-59563250D01*
X131024790Y-59552760D01*
X131003747Y-59540148D01*
X130984041Y-59525533D01*
X130965863Y-59509057D01*
X130949387Y-59490879D01*
X130934772Y-59471173D01*
X130922160Y-59450130D01*
X130911670Y-59427951D01*
X130903405Y-59404852D01*
X130897444Y-59381053D01*
X130893844Y-59356785D01*
X130892640Y-59332281D01*
X130892640Y-58432279D01*
X130893844Y-58407775D01*
X130897444Y-58383507D01*
X130903405Y-58359708D01*
X130911670Y-58336609D01*
X130922160Y-58314430D01*
X130934772Y-58293387D01*
X130949387Y-58273681D01*
X130965863Y-58255503D01*
X130984041Y-58239027D01*
X131003747Y-58224412D01*
X131024790Y-58211800D01*
X131046969Y-58201310D01*
X131070068Y-58193045D01*
X131093867Y-58187084D01*
X131118135Y-58183484D01*
X131142639Y-58182280D01*
X131792641Y-58182280D01*
X131817145Y-58183484D01*
X131817145Y-58183484D01*
G37*
D32*
X131467640Y-58882280D03*
D31*
G36*
X115999405Y-114693404D02*
G01*
X116023673Y-114697004D01*
X116047472Y-114702965D01*
X116070571Y-114711230D01*
X116092750Y-114721720D01*
X116113793Y-114734332D01*
X116133499Y-114748947D01*
X116151677Y-114765423D01*
X116168153Y-114783601D01*
X116182768Y-114803307D01*
X116195380Y-114824350D01*
X116205870Y-114846529D01*
X116214135Y-114869628D01*
X116220096Y-114893427D01*
X116223696Y-114917695D01*
X116224900Y-114942199D01*
X116224900Y-115842201D01*
X116223696Y-115866705D01*
X116220096Y-115890973D01*
X116214135Y-115914772D01*
X116205870Y-115937871D01*
X116195380Y-115960050D01*
X116182768Y-115981093D01*
X116168153Y-116000799D01*
X116151677Y-116018977D01*
X116133499Y-116035453D01*
X116113793Y-116050068D01*
X116092750Y-116062680D01*
X116070571Y-116073170D01*
X116047472Y-116081435D01*
X116023673Y-116087396D01*
X115999405Y-116090996D01*
X115974901Y-116092200D01*
X115324899Y-116092200D01*
X115300395Y-116090996D01*
X115276127Y-116087396D01*
X115252328Y-116081435D01*
X115229229Y-116073170D01*
X115207050Y-116062680D01*
X115186007Y-116050068D01*
X115166301Y-116035453D01*
X115148123Y-116018977D01*
X115131647Y-116000799D01*
X115117032Y-115981093D01*
X115104420Y-115960050D01*
X115093930Y-115937871D01*
X115085665Y-115914772D01*
X115079704Y-115890973D01*
X115076104Y-115866705D01*
X115074900Y-115842201D01*
X115074900Y-114942199D01*
X115076104Y-114917695D01*
X115079704Y-114893427D01*
X115085665Y-114869628D01*
X115093930Y-114846529D01*
X115104420Y-114824350D01*
X115117032Y-114803307D01*
X115131647Y-114783601D01*
X115148123Y-114765423D01*
X115166301Y-114748947D01*
X115186007Y-114734332D01*
X115207050Y-114721720D01*
X115229229Y-114711230D01*
X115252328Y-114702965D01*
X115276127Y-114697004D01*
X115300395Y-114693404D01*
X115324899Y-114692200D01*
X115974901Y-114692200D01*
X115999405Y-114693404D01*
X115999405Y-114693404D01*
G37*
D32*
X115649900Y-115392200D03*
D31*
G36*
X118049405Y-114693404D02*
G01*
X118073673Y-114697004D01*
X118097472Y-114702965D01*
X118120571Y-114711230D01*
X118142750Y-114721720D01*
X118163793Y-114734332D01*
X118183499Y-114748947D01*
X118201677Y-114765423D01*
X118218153Y-114783601D01*
X118232768Y-114803307D01*
X118245380Y-114824350D01*
X118255870Y-114846529D01*
X118264135Y-114869628D01*
X118270096Y-114893427D01*
X118273696Y-114917695D01*
X118274900Y-114942199D01*
X118274900Y-115842201D01*
X118273696Y-115866705D01*
X118270096Y-115890973D01*
X118264135Y-115914772D01*
X118255870Y-115937871D01*
X118245380Y-115960050D01*
X118232768Y-115981093D01*
X118218153Y-116000799D01*
X118201677Y-116018977D01*
X118183499Y-116035453D01*
X118163793Y-116050068D01*
X118142750Y-116062680D01*
X118120571Y-116073170D01*
X118097472Y-116081435D01*
X118073673Y-116087396D01*
X118049405Y-116090996D01*
X118024901Y-116092200D01*
X117374899Y-116092200D01*
X117350395Y-116090996D01*
X117326127Y-116087396D01*
X117302328Y-116081435D01*
X117279229Y-116073170D01*
X117257050Y-116062680D01*
X117236007Y-116050068D01*
X117216301Y-116035453D01*
X117198123Y-116018977D01*
X117181647Y-116000799D01*
X117167032Y-115981093D01*
X117154420Y-115960050D01*
X117143930Y-115937871D01*
X117135665Y-115914772D01*
X117129704Y-115890973D01*
X117126104Y-115866705D01*
X117124900Y-115842201D01*
X117124900Y-114942199D01*
X117126104Y-114917695D01*
X117129704Y-114893427D01*
X117135665Y-114869628D01*
X117143930Y-114846529D01*
X117154420Y-114824350D01*
X117167032Y-114803307D01*
X117181647Y-114783601D01*
X117198123Y-114765423D01*
X117216301Y-114748947D01*
X117236007Y-114734332D01*
X117257050Y-114721720D01*
X117279229Y-114711230D01*
X117302328Y-114702965D01*
X117326127Y-114697004D01*
X117350395Y-114693404D01*
X117374899Y-114692200D01*
X118024901Y-114692200D01*
X118049405Y-114693404D01*
X118049405Y-114693404D01*
G37*
D32*
X117699900Y-115392200D03*
D31*
G36*
X190617205Y-101256804D02*
G01*
X190641473Y-101260404D01*
X190665272Y-101266365D01*
X190688371Y-101274630D01*
X190710550Y-101285120D01*
X190731593Y-101297732D01*
X190751299Y-101312347D01*
X190769477Y-101328823D01*
X190785953Y-101347001D01*
X190800568Y-101366707D01*
X190813180Y-101387750D01*
X190823670Y-101409929D01*
X190831935Y-101433028D01*
X190837896Y-101456827D01*
X190841496Y-101481095D01*
X190842700Y-101505599D01*
X190842700Y-102405601D01*
X190841496Y-102430105D01*
X190837896Y-102454373D01*
X190831935Y-102478172D01*
X190823670Y-102501271D01*
X190813180Y-102523450D01*
X190800568Y-102544493D01*
X190785953Y-102564199D01*
X190769477Y-102582377D01*
X190751299Y-102598853D01*
X190731593Y-102613468D01*
X190710550Y-102626080D01*
X190688371Y-102636570D01*
X190665272Y-102644835D01*
X190641473Y-102650796D01*
X190617205Y-102654396D01*
X190592701Y-102655600D01*
X189942699Y-102655600D01*
X189918195Y-102654396D01*
X189893927Y-102650796D01*
X189870128Y-102644835D01*
X189847029Y-102636570D01*
X189824850Y-102626080D01*
X189803807Y-102613468D01*
X189784101Y-102598853D01*
X189765923Y-102582377D01*
X189749447Y-102564199D01*
X189734832Y-102544493D01*
X189722220Y-102523450D01*
X189711730Y-102501271D01*
X189703465Y-102478172D01*
X189697504Y-102454373D01*
X189693904Y-102430105D01*
X189692700Y-102405601D01*
X189692700Y-101505599D01*
X189693904Y-101481095D01*
X189697504Y-101456827D01*
X189703465Y-101433028D01*
X189711730Y-101409929D01*
X189722220Y-101387750D01*
X189734832Y-101366707D01*
X189749447Y-101347001D01*
X189765923Y-101328823D01*
X189784101Y-101312347D01*
X189803807Y-101297732D01*
X189824850Y-101285120D01*
X189847029Y-101274630D01*
X189870128Y-101266365D01*
X189893927Y-101260404D01*
X189918195Y-101256804D01*
X189942699Y-101255600D01*
X190592701Y-101255600D01*
X190617205Y-101256804D01*
X190617205Y-101256804D01*
G37*
D32*
X190267700Y-101955600D03*
D31*
G36*
X188567205Y-101256804D02*
G01*
X188591473Y-101260404D01*
X188615272Y-101266365D01*
X188638371Y-101274630D01*
X188660550Y-101285120D01*
X188681593Y-101297732D01*
X188701299Y-101312347D01*
X188719477Y-101328823D01*
X188735953Y-101347001D01*
X188750568Y-101366707D01*
X188763180Y-101387750D01*
X188773670Y-101409929D01*
X188781935Y-101433028D01*
X188787896Y-101456827D01*
X188791496Y-101481095D01*
X188792700Y-101505599D01*
X188792700Y-102405601D01*
X188791496Y-102430105D01*
X188787896Y-102454373D01*
X188781935Y-102478172D01*
X188773670Y-102501271D01*
X188763180Y-102523450D01*
X188750568Y-102544493D01*
X188735953Y-102564199D01*
X188719477Y-102582377D01*
X188701299Y-102598853D01*
X188681593Y-102613468D01*
X188660550Y-102626080D01*
X188638371Y-102636570D01*
X188615272Y-102644835D01*
X188591473Y-102650796D01*
X188567205Y-102654396D01*
X188542701Y-102655600D01*
X187892699Y-102655600D01*
X187868195Y-102654396D01*
X187843927Y-102650796D01*
X187820128Y-102644835D01*
X187797029Y-102636570D01*
X187774850Y-102626080D01*
X187753807Y-102613468D01*
X187734101Y-102598853D01*
X187715923Y-102582377D01*
X187699447Y-102564199D01*
X187684832Y-102544493D01*
X187672220Y-102523450D01*
X187661730Y-102501271D01*
X187653465Y-102478172D01*
X187647504Y-102454373D01*
X187643904Y-102430105D01*
X187642700Y-102405601D01*
X187642700Y-101505599D01*
X187643904Y-101481095D01*
X187647504Y-101456827D01*
X187653465Y-101433028D01*
X187661730Y-101409929D01*
X187672220Y-101387750D01*
X187684832Y-101366707D01*
X187699447Y-101347001D01*
X187715923Y-101328823D01*
X187734101Y-101312347D01*
X187753807Y-101297732D01*
X187774850Y-101285120D01*
X187797029Y-101274630D01*
X187820128Y-101266365D01*
X187843927Y-101260404D01*
X187868195Y-101256804D01*
X187892699Y-101255600D01*
X188542701Y-101255600D01*
X188567205Y-101256804D01*
X188567205Y-101256804D01*
G37*
D32*
X188217700Y-101955600D03*
D31*
G36*
X198607205Y-98061804D02*
G01*
X198631473Y-98065404D01*
X198655272Y-98071365D01*
X198678371Y-98079630D01*
X198700550Y-98090120D01*
X198721593Y-98102732D01*
X198741299Y-98117347D01*
X198759477Y-98133823D01*
X198775953Y-98152001D01*
X198790568Y-98171707D01*
X198803180Y-98192750D01*
X198813670Y-98214929D01*
X198821935Y-98238028D01*
X198827896Y-98261827D01*
X198831496Y-98286095D01*
X198832700Y-98310599D01*
X198832700Y-98960601D01*
X198831496Y-98985105D01*
X198827896Y-99009373D01*
X198821935Y-99033172D01*
X198813670Y-99056271D01*
X198803180Y-99078450D01*
X198790568Y-99099493D01*
X198775953Y-99119199D01*
X198759477Y-99137377D01*
X198741299Y-99153853D01*
X198721593Y-99168468D01*
X198700550Y-99181080D01*
X198678371Y-99191570D01*
X198655272Y-99199835D01*
X198631473Y-99205796D01*
X198607205Y-99209396D01*
X198582701Y-99210600D01*
X197682699Y-99210600D01*
X197658195Y-99209396D01*
X197633927Y-99205796D01*
X197610128Y-99199835D01*
X197587029Y-99191570D01*
X197564850Y-99181080D01*
X197543807Y-99168468D01*
X197524101Y-99153853D01*
X197505923Y-99137377D01*
X197489447Y-99119199D01*
X197474832Y-99099493D01*
X197462220Y-99078450D01*
X197451730Y-99056271D01*
X197443465Y-99033172D01*
X197437504Y-99009373D01*
X197433904Y-98985105D01*
X197432700Y-98960601D01*
X197432700Y-98310599D01*
X197433904Y-98286095D01*
X197437504Y-98261827D01*
X197443465Y-98238028D01*
X197451730Y-98214929D01*
X197462220Y-98192750D01*
X197474832Y-98171707D01*
X197489447Y-98152001D01*
X197505923Y-98133823D01*
X197524101Y-98117347D01*
X197543807Y-98102732D01*
X197564850Y-98090120D01*
X197587029Y-98079630D01*
X197610128Y-98071365D01*
X197633927Y-98065404D01*
X197658195Y-98061804D01*
X197682699Y-98060600D01*
X198582701Y-98060600D01*
X198607205Y-98061804D01*
X198607205Y-98061804D01*
G37*
D32*
X198132700Y-98635600D03*
D31*
G36*
X198607205Y-100111804D02*
G01*
X198631473Y-100115404D01*
X198655272Y-100121365D01*
X198678371Y-100129630D01*
X198700550Y-100140120D01*
X198721593Y-100152732D01*
X198741299Y-100167347D01*
X198759477Y-100183823D01*
X198775953Y-100202001D01*
X198790568Y-100221707D01*
X198803180Y-100242750D01*
X198813670Y-100264929D01*
X198821935Y-100288028D01*
X198827896Y-100311827D01*
X198831496Y-100336095D01*
X198832700Y-100360599D01*
X198832700Y-101010601D01*
X198831496Y-101035105D01*
X198827896Y-101059373D01*
X198821935Y-101083172D01*
X198813670Y-101106271D01*
X198803180Y-101128450D01*
X198790568Y-101149493D01*
X198775953Y-101169199D01*
X198759477Y-101187377D01*
X198741299Y-101203853D01*
X198721593Y-101218468D01*
X198700550Y-101231080D01*
X198678371Y-101241570D01*
X198655272Y-101249835D01*
X198631473Y-101255796D01*
X198607205Y-101259396D01*
X198582701Y-101260600D01*
X197682699Y-101260600D01*
X197658195Y-101259396D01*
X197633927Y-101255796D01*
X197610128Y-101249835D01*
X197587029Y-101241570D01*
X197564850Y-101231080D01*
X197543807Y-101218468D01*
X197524101Y-101203853D01*
X197505923Y-101187377D01*
X197489447Y-101169199D01*
X197474832Y-101149493D01*
X197462220Y-101128450D01*
X197451730Y-101106271D01*
X197443465Y-101083172D01*
X197437504Y-101059373D01*
X197433904Y-101035105D01*
X197432700Y-101010601D01*
X197432700Y-100360599D01*
X197433904Y-100336095D01*
X197437504Y-100311827D01*
X197443465Y-100288028D01*
X197451730Y-100264929D01*
X197462220Y-100242750D01*
X197474832Y-100221707D01*
X197489447Y-100202001D01*
X197505923Y-100183823D01*
X197524101Y-100167347D01*
X197543807Y-100152732D01*
X197564850Y-100140120D01*
X197587029Y-100129630D01*
X197610128Y-100121365D01*
X197633927Y-100115404D01*
X197658195Y-100111804D01*
X197682699Y-100110600D01*
X198582701Y-100110600D01*
X198607205Y-100111804D01*
X198607205Y-100111804D01*
G37*
D32*
X198132700Y-100685600D03*
D31*
G36*
X117804405Y-128663404D02*
G01*
X117828673Y-128667004D01*
X117852472Y-128672965D01*
X117875571Y-128681230D01*
X117897750Y-128691720D01*
X117918793Y-128704332D01*
X117938499Y-128718947D01*
X117956677Y-128735423D01*
X117973153Y-128753601D01*
X117987768Y-128773307D01*
X118000380Y-128794350D01*
X118010870Y-128816529D01*
X118019135Y-128839628D01*
X118025096Y-128863427D01*
X118028696Y-128887695D01*
X118029900Y-128912199D01*
X118029900Y-129812201D01*
X118028696Y-129836705D01*
X118025096Y-129860973D01*
X118019135Y-129884772D01*
X118010870Y-129907871D01*
X118000380Y-129930050D01*
X117987768Y-129951093D01*
X117973153Y-129970799D01*
X117956677Y-129988977D01*
X117938499Y-130005453D01*
X117918793Y-130020068D01*
X117897750Y-130032680D01*
X117875571Y-130043170D01*
X117852472Y-130051435D01*
X117828673Y-130057396D01*
X117804405Y-130060996D01*
X117779901Y-130062200D01*
X117129899Y-130062200D01*
X117105395Y-130060996D01*
X117081127Y-130057396D01*
X117057328Y-130051435D01*
X117034229Y-130043170D01*
X117012050Y-130032680D01*
X116991007Y-130020068D01*
X116971301Y-130005453D01*
X116953123Y-129988977D01*
X116936647Y-129970799D01*
X116922032Y-129951093D01*
X116909420Y-129930050D01*
X116898930Y-129907871D01*
X116890665Y-129884772D01*
X116884704Y-129860973D01*
X116881104Y-129836705D01*
X116879900Y-129812201D01*
X116879900Y-128912199D01*
X116881104Y-128887695D01*
X116884704Y-128863427D01*
X116890665Y-128839628D01*
X116898930Y-128816529D01*
X116909420Y-128794350D01*
X116922032Y-128773307D01*
X116936647Y-128753601D01*
X116953123Y-128735423D01*
X116971301Y-128718947D01*
X116991007Y-128704332D01*
X117012050Y-128691720D01*
X117034229Y-128681230D01*
X117057328Y-128672965D01*
X117081127Y-128667004D01*
X117105395Y-128663404D01*
X117129899Y-128662200D01*
X117779901Y-128662200D01*
X117804405Y-128663404D01*
X117804405Y-128663404D01*
G37*
D32*
X117454900Y-129362200D03*
D31*
G36*
X115754405Y-128663404D02*
G01*
X115778673Y-128667004D01*
X115802472Y-128672965D01*
X115825571Y-128681230D01*
X115847750Y-128691720D01*
X115868793Y-128704332D01*
X115888499Y-128718947D01*
X115906677Y-128735423D01*
X115923153Y-128753601D01*
X115937768Y-128773307D01*
X115950380Y-128794350D01*
X115960870Y-128816529D01*
X115969135Y-128839628D01*
X115975096Y-128863427D01*
X115978696Y-128887695D01*
X115979900Y-128912199D01*
X115979900Y-129812201D01*
X115978696Y-129836705D01*
X115975096Y-129860973D01*
X115969135Y-129884772D01*
X115960870Y-129907871D01*
X115950380Y-129930050D01*
X115937768Y-129951093D01*
X115923153Y-129970799D01*
X115906677Y-129988977D01*
X115888499Y-130005453D01*
X115868793Y-130020068D01*
X115847750Y-130032680D01*
X115825571Y-130043170D01*
X115802472Y-130051435D01*
X115778673Y-130057396D01*
X115754405Y-130060996D01*
X115729901Y-130062200D01*
X115079899Y-130062200D01*
X115055395Y-130060996D01*
X115031127Y-130057396D01*
X115007328Y-130051435D01*
X114984229Y-130043170D01*
X114962050Y-130032680D01*
X114941007Y-130020068D01*
X114921301Y-130005453D01*
X114903123Y-129988977D01*
X114886647Y-129970799D01*
X114872032Y-129951093D01*
X114859420Y-129930050D01*
X114848930Y-129907871D01*
X114840665Y-129884772D01*
X114834704Y-129860973D01*
X114831104Y-129836705D01*
X114829900Y-129812201D01*
X114829900Y-128912199D01*
X114831104Y-128887695D01*
X114834704Y-128863427D01*
X114840665Y-128839628D01*
X114848930Y-128816529D01*
X114859420Y-128794350D01*
X114872032Y-128773307D01*
X114886647Y-128753601D01*
X114903123Y-128735423D01*
X114921301Y-128718947D01*
X114941007Y-128704332D01*
X114962050Y-128691720D01*
X114984229Y-128681230D01*
X115007328Y-128672965D01*
X115031127Y-128667004D01*
X115055395Y-128663404D01*
X115079899Y-128662200D01*
X115729901Y-128662200D01*
X115754405Y-128663404D01*
X115754405Y-128663404D01*
G37*
D32*
X115404900Y-129362200D03*
D31*
G36*
X201652665Y-68243584D02*
G01*
X201676933Y-68247184D01*
X201700732Y-68253145D01*
X201723831Y-68261410D01*
X201746010Y-68271900D01*
X201767053Y-68284512D01*
X201786759Y-68299127D01*
X201804937Y-68315603D01*
X201821413Y-68333781D01*
X201836028Y-68353487D01*
X201848640Y-68374530D01*
X201859130Y-68396709D01*
X201867395Y-68419808D01*
X201873356Y-68443607D01*
X201876956Y-68467875D01*
X201878160Y-68492379D01*
X201878160Y-69142381D01*
X201876956Y-69166885D01*
X201873356Y-69191153D01*
X201867395Y-69214952D01*
X201859130Y-69238051D01*
X201848640Y-69260230D01*
X201836028Y-69281273D01*
X201821413Y-69300979D01*
X201804937Y-69319157D01*
X201786759Y-69335633D01*
X201767053Y-69350248D01*
X201746010Y-69362860D01*
X201723831Y-69373350D01*
X201700732Y-69381615D01*
X201676933Y-69387576D01*
X201652665Y-69391176D01*
X201628161Y-69392380D01*
X200728159Y-69392380D01*
X200703655Y-69391176D01*
X200679387Y-69387576D01*
X200655588Y-69381615D01*
X200632489Y-69373350D01*
X200610310Y-69362860D01*
X200589267Y-69350248D01*
X200569561Y-69335633D01*
X200551383Y-69319157D01*
X200534907Y-69300979D01*
X200520292Y-69281273D01*
X200507680Y-69260230D01*
X200497190Y-69238051D01*
X200488925Y-69214952D01*
X200482964Y-69191153D01*
X200479364Y-69166885D01*
X200478160Y-69142381D01*
X200478160Y-68492379D01*
X200479364Y-68467875D01*
X200482964Y-68443607D01*
X200488925Y-68419808D01*
X200497190Y-68396709D01*
X200507680Y-68374530D01*
X200520292Y-68353487D01*
X200534907Y-68333781D01*
X200551383Y-68315603D01*
X200569561Y-68299127D01*
X200589267Y-68284512D01*
X200610310Y-68271900D01*
X200632489Y-68261410D01*
X200655588Y-68253145D01*
X200679387Y-68247184D01*
X200703655Y-68243584D01*
X200728159Y-68242380D01*
X201628161Y-68242380D01*
X201652665Y-68243584D01*
X201652665Y-68243584D01*
G37*
D32*
X201178160Y-68817380D03*
D31*
G36*
X201652665Y-70293584D02*
G01*
X201676933Y-70297184D01*
X201700732Y-70303145D01*
X201723831Y-70311410D01*
X201746010Y-70321900D01*
X201767053Y-70334512D01*
X201786759Y-70349127D01*
X201804937Y-70365603D01*
X201821413Y-70383781D01*
X201836028Y-70403487D01*
X201848640Y-70424530D01*
X201859130Y-70446709D01*
X201867395Y-70469808D01*
X201873356Y-70493607D01*
X201876956Y-70517875D01*
X201878160Y-70542379D01*
X201878160Y-71192381D01*
X201876956Y-71216885D01*
X201873356Y-71241153D01*
X201867395Y-71264952D01*
X201859130Y-71288051D01*
X201848640Y-71310230D01*
X201836028Y-71331273D01*
X201821413Y-71350979D01*
X201804937Y-71369157D01*
X201786759Y-71385633D01*
X201767053Y-71400248D01*
X201746010Y-71412860D01*
X201723831Y-71423350D01*
X201700732Y-71431615D01*
X201676933Y-71437576D01*
X201652665Y-71441176D01*
X201628161Y-71442380D01*
X200728159Y-71442380D01*
X200703655Y-71441176D01*
X200679387Y-71437576D01*
X200655588Y-71431615D01*
X200632489Y-71423350D01*
X200610310Y-71412860D01*
X200589267Y-71400248D01*
X200569561Y-71385633D01*
X200551383Y-71369157D01*
X200534907Y-71350979D01*
X200520292Y-71331273D01*
X200507680Y-71310230D01*
X200497190Y-71288051D01*
X200488925Y-71264952D01*
X200482964Y-71241153D01*
X200479364Y-71216885D01*
X200478160Y-71192381D01*
X200478160Y-70542379D01*
X200479364Y-70517875D01*
X200482964Y-70493607D01*
X200488925Y-70469808D01*
X200497190Y-70446709D01*
X200507680Y-70424530D01*
X200520292Y-70403487D01*
X200534907Y-70383781D01*
X200551383Y-70365603D01*
X200569561Y-70349127D01*
X200589267Y-70334512D01*
X200610310Y-70321900D01*
X200632489Y-70311410D01*
X200655588Y-70303145D01*
X200679387Y-70297184D01*
X200703655Y-70293584D01*
X200728159Y-70292380D01*
X201628161Y-70292380D01*
X201652665Y-70293584D01*
X201652665Y-70293584D01*
G37*
D32*
X201178160Y-70867380D03*
D31*
G36*
X201652665Y-66483584D02*
G01*
X201676933Y-66487184D01*
X201700732Y-66493145D01*
X201723831Y-66501410D01*
X201746010Y-66511900D01*
X201767053Y-66524512D01*
X201786759Y-66539127D01*
X201804937Y-66555603D01*
X201821413Y-66573781D01*
X201836028Y-66593487D01*
X201848640Y-66614530D01*
X201859130Y-66636709D01*
X201867395Y-66659808D01*
X201873356Y-66683607D01*
X201876956Y-66707875D01*
X201878160Y-66732379D01*
X201878160Y-67382381D01*
X201876956Y-67406885D01*
X201873356Y-67431153D01*
X201867395Y-67454952D01*
X201859130Y-67478051D01*
X201848640Y-67500230D01*
X201836028Y-67521273D01*
X201821413Y-67540979D01*
X201804937Y-67559157D01*
X201786759Y-67575633D01*
X201767053Y-67590248D01*
X201746010Y-67602860D01*
X201723831Y-67613350D01*
X201700732Y-67621615D01*
X201676933Y-67627576D01*
X201652665Y-67631176D01*
X201628161Y-67632380D01*
X200728159Y-67632380D01*
X200703655Y-67631176D01*
X200679387Y-67627576D01*
X200655588Y-67621615D01*
X200632489Y-67613350D01*
X200610310Y-67602860D01*
X200589267Y-67590248D01*
X200569561Y-67575633D01*
X200551383Y-67559157D01*
X200534907Y-67540979D01*
X200520292Y-67521273D01*
X200507680Y-67500230D01*
X200497190Y-67478051D01*
X200488925Y-67454952D01*
X200482964Y-67431153D01*
X200479364Y-67406885D01*
X200478160Y-67382381D01*
X200478160Y-66732379D01*
X200479364Y-66707875D01*
X200482964Y-66683607D01*
X200488925Y-66659808D01*
X200497190Y-66636709D01*
X200507680Y-66614530D01*
X200520292Y-66593487D01*
X200534907Y-66573781D01*
X200551383Y-66555603D01*
X200569561Y-66539127D01*
X200589267Y-66524512D01*
X200610310Y-66511900D01*
X200632489Y-66501410D01*
X200655588Y-66493145D01*
X200679387Y-66487184D01*
X200703655Y-66483584D01*
X200728159Y-66482380D01*
X201628161Y-66482380D01*
X201652665Y-66483584D01*
X201652665Y-66483584D01*
G37*
D32*
X201178160Y-67057380D03*
D31*
G36*
X201652665Y-64433584D02*
G01*
X201676933Y-64437184D01*
X201700732Y-64443145D01*
X201723831Y-64451410D01*
X201746010Y-64461900D01*
X201767053Y-64474512D01*
X201786759Y-64489127D01*
X201804937Y-64505603D01*
X201821413Y-64523781D01*
X201836028Y-64543487D01*
X201848640Y-64564530D01*
X201859130Y-64586709D01*
X201867395Y-64609808D01*
X201873356Y-64633607D01*
X201876956Y-64657875D01*
X201878160Y-64682379D01*
X201878160Y-65332381D01*
X201876956Y-65356885D01*
X201873356Y-65381153D01*
X201867395Y-65404952D01*
X201859130Y-65428051D01*
X201848640Y-65450230D01*
X201836028Y-65471273D01*
X201821413Y-65490979D01*
X201804937Y-65509157D01*
X201786759Y-65525633D01*
X201767053Y-65540248D01*
X201746010Y-65552860D01*
X201723831Y-65563350D01*
X201700732Y-65571615D01*
X201676933Y-65577576D01*
X201652665Y-65581176D01*
X201628161Y-65582380D01*
X200728159Y-65582380D01*
X200703655Y-65581176D01*
X200679387Y-65577576D01*
X200655588Y-65571615D01*
X200632489Y-65563350D01*
X200610310Y-65552860D01*
X200589267Y-65540248D01*
X200569561Y-65525633D01*
X200551383Y-65509157D01*
X200534907Y-65490979D01*
X200520292Y-65471273D01*
X200507680Y-65450230D01*
X200497190Y-65428051D01*
X200488925Y-65404952D01*
X200482964Y-65381153D01*
X200479364Y-65356885D01*
X200478160Y-65332381D01*
X200478160Y-64682379D01*
X200479364Y-64657875D01*
X200482964Y-64633607D01*
X200488925Y-64609808D01*
X200497190Y-64586709D01*
X200507680Y-64564530D01*
X200520292Y-64543487D01*
X200534907Y-64523781D01*
X200551383Y-64505603D01*
X200569561Y-64489127D01*
X200589267Y-64474512D01*
X200610310Y-64461900D01*
X200632489Y-64451410D01*
X200655588Y-64443145D01*
X200679387Y-64437184D01*
X200703655Y-64433584D01*
X200728159Y-64432380D01*
X201628161Y-64432380D01*
X201652665Y-64433584D01*
X201652665Y-64433584D01*
G37*
D32*
X201178160Y-65007380D03*
D31*
G36*
X201882105Y-84696004D02*
G01*
X201906373Y-84699604D01*
X201930172Y-84705565D01*
X201953271Y-84713830D01*
X201975450Y-84724320D01*
X201996493Y-84736932D01*
X202016199Y-84751547D01*
X202034377Y-84768023D01*
X202050853Y-84786201D01*
X202065468Y-84805907D01*
X202078080Y-84826950D01*
X202088570Y-84849129D01*
X202096835Y-84872228D01*
X202102796Y-84896027D01*
X202106396Y-84920295D01*
X202107600Y-84944799D01*
X202107600Y-85844801D01*
X202106396Y-85869305D01*
X202102796Y-85893573D01*
X202096835Y-85917372D01*
X202088570Y-85940471D01*
X202078080Y-85962650D01*
X202065468Y-85983693D01*
X202050853Y-86003399D01*
X202034377Y-86021577D01*
X202016199Y-86038053D01*
X201996493Y-86052668D01*
X201975450Y-86065280D01*
X201953271Y-86075770D01*
X201930172Y-86084035D01*
X201906373Y-86089996D01*
X201882105Y-86093596D01*
X201857601Y-86094800D01*
X201207599Y-86094800D01*
X201183095Y-86093596D01*
X201158827Y-86089996D01*
X201135028Y-86084035D01*
X201111929Y-86075770D01*
X201089750Y-86065280D01*
X201068707Y-86052668D01*
X201049001Y-86038053D01*
X201030823Y-86021577D01*
X201014347Y-86003399D01*
X200999732Y-85983693D01*
X200987120Y-85962650D01*
X200976630Y-85940471D01*
X200968365Y-85917372D01*
X200962404Y-85893573D01*
X200958804Y-85869305D01*
X200957600Y-85844801D01*
X200957600Y-84944799D01*
X200958804Y-84920295D01*
X200962404Y-84896027D01*
X200968365Y-84872228D01*
X200976630Y-84849129D01*
X200987120Y-84826950D01*
X200999732Y-84805907D01*
X201014347Y-84786201D01*
X201030823Y-84768023D01*
X201049001Y-84751547D01*
X201068707Y-84736932D01*
X201089750Y-84724320D01*
X201111929Y-84713830D01*
X201135028Y-84705565D01*
X201158827Y-84699604D01*
X201183095Y-84696004D01*
X201207599Y-84694800D01*
X201857601Y-84694800D01*
X201882105Y-84696004D01*
X201882105Y-84696004D01*
G37*
D32*
X201532600Y-85394800D03*
D31*
G36*
X199832105Y-84696004D02*
G01*
X199856373Y-84699604D01*
X199880172Y-84705565D01*
X199903271Y-84713830D01*
X199925450Y-84724320D01*
X199946493Y-84736932D01*
X199966199Y-84751547D01*
X199984377Y-84768023D01*
X200000853Y-84786201D01*
X200015468Y-84805907D01*
X200028080Y-84826950D01*
X200038570Y-84849129D01*
X200046835Y-84872228D01*
X200052796Y-84896027D01*
X200056396Y-84920295D01*
X200057600Y-84944799D01*
X200057600Y-85844801D01*
X200056396Y-85869305D01*
X200052796Y-85893573D01*
X200046835Y-85917372D01*
X200038570Y-85940471D01*
X200028080Y-85962650D01*
X200015468Y-85983693D01*
X200000853Y-86003399D01*
X199984377Y-86021577D01*
X199966199Y-86038053D01*
X199946493Y-86052668D01*
X199925450Y-86065280D01*
X199903271Y-86075770D01*
X199880172Y-86084035D01*
X199856373Y-86089996D01*
X199832105Y-86093596D01*
X199807601Y-86094800D01*
X199157599Y-86094800D01*
X199133095Y-86093596D01*
X199108827Y-86089996D01*
X199085028Y-86084035D01*
X199061929Y-86075770D01*
X199039750Y-86065280D01*
X199018707Y-86052668D01*
X198999001Y-86038053D01*
X198980823Y-86021577D01*
X198964347Y-86003399D01*
X198949732Y-85983693D01*
X198937120Y-85962650D01*
X198926630Y-85940471D01*
X198918365Y-85917372D01*
X198912404Y-85893573D01*
X198908804Y-85869305D01*
X198907600Y-85844801D01*
X198907600Y-84944799D01*
X198908804Y-84920295D01*
X198912404Y-84896027D01*
X198918365Y-84872228D01*
X198926630Y-84849129D01*
X198937120Y-84826950D01*
X198949732Y-84805907D01*
X198964347Y-84786201D01*
X198980823Y-84768023D01*
X198999001Y-84751547D01*
X199018707Y-84736932D01*
X199039750Y-84724320D01*
X199061929Y-84713830D01*
X199085028Y-84705565D01*
X199108827Y-84699604D01*
X199133095Y-84696004D01*
X199157599Y-84694800D01*
X199807601Y-84694800D01*
X199832105Y-84696004D01*
X199832105Y-84696004D01*
G37*
D32*
X199482600Y-85394800D03*
D31*
G36*
X185477945Y-81646004D02*
G01*
X185502213Y-81649604D01*
X185526012Y-81655565D01*
X185549111Y-81663830D01*
X185571290Y-81674320D01*
X185592333Y-81686932D01*
X185612039Y-81701547D01*
X185630217Y-81718023D01*
X185646693Y-81736201D01*
X185661308Y-81755907D01*
X185673920Y-81776950D01*
X185684410Y-81799129D01*
X185692675Y-81822228D01*
X185698636Y-81846027D01*
X185702236Y-81870295D01*
X185703440Y-81894799D01*
X185703440Y-82544801D01*
X185702236Y-82569305D01*
X185698636Y-82593573D01*
X185692675Y-82617372D01*
X185684410Y-82640471D01*
X185673920Y-82662650D01*
X185661308Y-82683693D01*
X185646693Y-82703399D01*
X185630217Y-82721577D01*
X185612039Y-82738053D01*
X185592333Y-82752668D01*
X185571290Y-82765280D01*
X185549111Y-82775770D01*
X185526012Y-82784035D01*
X185502213Y-82789996D01*
X185477945Y-82793596D01*
X185453441Y-82794800D01*
X184553439Y-82794800D01*
X184528935Y-82793596D01*
X184504667Y-82789996D01*
X184480868Y-82784035D01*
X184457769Y-82775770D01*
X184435590Y-82765280D01*
X184414547Y-82752668D01*
X184394841Y-82738053D01*
X184376663Y-82721577D01*
X184360187Y-82703399D01*
X184345572Y-82683693D01*
X184332960Y-82662650D01*
X184322470Y-82640471D01*
X184314205Y-82617372D01*
X184308244Y-82593573D01*
X184304644Y-82569305D01*
X184303440Y-82544801D01*
X184303440Y-81894799D01*
X184304644Y-81870295D01*
X184308244Y-81846027D01*
X184314205Y-81822228D01*
X184322470Y-81799129D01*
X184332960Y-81776950D01*
X184345572Y-81755907D01*
X184360187Y-81736201D01*
X184376663Y-81718023D01*
X184394841Y-81701547D01*
X184414547Y-81686932D01*
X184435590Y-81674320D01*
X184457769Y-81663830D01*
X184480868Y-81655565D01*
X184504667Y-81649604D01*
X184528935Y-81646004D01*
X184553439Y-81644800D01*
X185453441Y-81644800D01*
X185477945Y-81646004D01*
X185477945Y-81646004D01*
G37*
D32*
X185003440Y-82219800D03*
D31*
G36*
X185477945Y-83696004D02*
G01*
X185502213Y-83699604D01*
X185526012Y-83705565D01*
X185549111Y-83713830D01*
X185571290Y-83724320D01*
X185592333Y-83736932D01*
X185612039Y-83751547D01*
X185630217Y-83768023D01*
X185646693Y-83786201D01*
X185661308Y-83805907D01*
X185673920Y-83826950D01*
X185684410Y-83849129D01*
X185692675Y-83872228D01*
X185698636Y-83896027D01*
X185702236Y-83920295D01*
X185703440Y-83944799D01*
X185703440Y-84594801D01*
X185702236Y-84619305D01*
X185698636Y-84643573D01*
X185692675Y-84667372D01*
X185684410Y-84690471D01*
X185673920Y-84712650D01*
X185661308Y-84733693D01*
X185646693Y-84753399D01*
X185630217Y-84771577D01*
X185612039Y-84788053D01*
X185592333Y-84802668D01*
X185571290Y-84815280D01*
X185549111Y-84825770D01*
X185526012Y-84834035D01*
X185502213Y-84839996D01*
X185477945Y-84843596D01*
X185453441Y-84844800D01*
X184553439Y-84844800D01*
X184528935Y-84843596D01*
X184504667Y-84839996D01*
X184480868Y-84834035D01*
X184457769Y-84825770D01*
X184435590Y-84815280D01*
X184414547Y-84802668D01*
X184394841Y-84788053D01*
X184376663Y-84771577D01*
X184360187Y-84753399D01*
X184345572Y-84733693D01*
X184332960Y-84712650D01*
X184322470Y-84690471D01*
X184314205Y-84667372D01*
X184308244Y-84643573D01*
X184304644Y-84619305D01*
X184303440Y-84594801D01*
X184303440Y-83944799D01*
X184304644Y-83920295D01*
X184308244Y-83896027D01*
X184314205Y-83872228D01*
X184322470Y-83849129D01*
X184332960Y-83826950D01*
X184345572Y-83805907D01*
X184360187Y-83786201D01*
X184376663Y-83768023D01*
X184394841Y-83751547D01*
X184414547Y-83736932D01*
X184435590Y-83724320D01*
X184457769Y-83713830D01*
X184480868Y-83705565D01*
X184504667Y-83699604D01*
X184528935Y-83696004D01*
X184553439Y-83694800D01*
X185453441Y-83694800D01*
X185477945Y-83696004D01*
X185477945Y-83696004D01*
G37*
D32*
X185003440Y-84269800D03*
D31*
G36*
X129694465Y-47576764D02*
G01*
X129718733Y-47580364D01*
X129742532Y-47586325D01*
X129765631Y-47594590D01*
X129787810Y-47605080D01*
X129808853Y-47617692D01*
X129828559Y-47632307D01*
X129846737Y-47648783D01*
X129863213Y-47666961D01*
X129877828Y-47686667D01*
X129890440Y-47707710D01*
X129900930Y-47729889D01*
X129909195Y-47752988D01*
X129915156Y-47776787D01*
X129918756Y-47801055D01*
X129919960Y-47825559D01*
X129919960Y-48475561D01*
X129918756Y-48500065D01*
X129915156Y-48524333D01*
X129909195Y-48548132D01*
X129900930Y-48571231D01*
X129890440Y-48593410D01*
X129877828Y-48614453D01*
X129863213Y-48634159D01*
X129846737Y-48652337D01*
X129828559Y-48668813D01*
X129808853Y-48683428D01*
X129787810Y-48696040D01*
X129765631Y-48706530D01*
X129742532Y-48714795D01*
X129718733Y-48720756D01*
X129694465Y-48724356D01*
X129669961Y-48725560D01*
X128769959Y-48725560D01*
X128745455Y-48724356D01*
X128721187Y-48720756D01*
X128697388Y-48714795D01*
X128674289Y-48706530D01*
X128652110Y-48696040D01*
X128631067Y-48683428D01*
X128611361Y-48668813D01*
X128593183Y-48652337D01*
X128576707Y-48634159D01*
X128562092Y-48614453D01*
X128549480Y-48593410D01*
X128538990Y-48571231D01*
X128530725Y-48548132D01*
X128524764Y-48524333D01*
X128521164Y-48500065D01*
X128519960Y-48475561D01*
X128519960Y-47825559D01*
X128521164Y-47801055D01*
X128524764Y-47776787D01*
X128530725Y-47752988D01*
X128538990Y-47729889D01*
X128549480Y-47707710D01*
X128562092Y-47686667D01*
X128576707Y-47666961D01*
X128593183Y-47648783D01*
X128611361Y-47632307D01*
X128631067Y-47617692D01*
X128652110Y-47605080D01*
X128674289Y-47594590D01*
X128697388Y-47586325D01*
X128721187Y-47580364D01*
X128745455Y-47576764D01*
X128769959Y-47575560D01*
X129669961Y-47575560D01*
X129694465Y-47576764D01*
X129694465Y-47576764D01*
G37*
D32*
X129219960Y-48150560D03*
D31*
G36*
X129694465Y-49626764D02*
G01*
X129718733Y-49630364D01*
X129742532Y-49636325D01*
X129765631Y-49644590D01*
X129787810Y-49655080D01*
X129808853Y-49667692D01*
X129828559Y-49682307D01*
X129846737Y-49698783D01*
X129863213Y-49716961D01*
X129877828Y-49736667D01*
X129890440Y-49757710D01*
X129900930Y-49779889D01*
X129909195Y-49802988D01*
X129915156Y-49826787D01*
X129918756Y-49851055D01*
X129919960Y-49875559D01*
X129919960Y-50525561D01*
X129918756Y-50550065D01*
X129915156Y-50574333D01*
X129909195Y-50598132D01*
X129900930Y-50621231D01*
X129890440Y-50643410D01*
X129877828Y-50664453D01*
X129863213Y-50684159D01*
X129846737Y-50702337D01*
X129828559Y-50718813D01*
X129808853Y-50733428D01*
X129787810Y-50746040D01*
X129765631Y-50756530D01*
X129742532Y-50764795D01*
X129718733Y-50770756D01*
X129694465Y-50774356D01*
X129669961Y-50775560D01*
X128769959Y-50775560D01*
X128745455Y-50774356D01*
X128721187Y-50770756D01*
X128697388Y-50764795D01*
X128674289Y-50756530D01*
X128652110Y-50746040D01*
X128631067Y-50733428D01*
X128611361Y-50718813D01*
X128593183Y-50702337D01*
X128576707Y-50684159D01*
X128562092Y-50664453D01*
X128549480Y-50643410D01*
X128538990Y-50621231D01*
X128530725Y-50598132D01*
X128524764Y-50574333D01*
X128521164Y-50550065D01*
X128519960Y-50525561D01*
X128519960Y-49875559D01*
X128521164Y-49851055D01*
X128524764Y-49826787D01*
X128530725Y-49802988D01*
X128538990Y-49779889D01*
X128549480Y-49757710D01*
X128562092Y-49736667D01*
X128576707Y-49716961D01*
X128593183Y-49698783D01*
X128611361Y-49682307D01*
X128631067Y-49667692D01*
X128652110Y-49655080D01*
X128674289Y-49644590D01*
X128697388Y-49636325D01*
X128721187Y-49630364D01*
X128745455Y-49626764D01*
X128769959Y-49625560D01*
X129669961Y-49625560D01*
X129694465Y-49626764D01*
X129694465Y-49626764D01*
G37*
D32*
X129219960Y-50200560D03*
D31*
G36*
X223092805Y-51030004D02*
G01*
X223117073Y-51033604D01*
X223140872Y-51039565D01*
X223163971Y-51047830D01*
X223186150Y-51058320D01*
X223207193Y-51070932D01*
X223226899Y-51085547D01*
X223245077Y-51102023D01*
X223261553Y-51120201D01*
X223276168Y-51139907D01*
X223288780Y-51160950D01*
X223299270Y-51183129D01*
X223307535Y-51206228D01*
X223313496Y-51230027D01*
X223317096Y-51254295D01*
X223318300Y-51278799D01*
X223318300Y-51928801D01*
X223317096Y-51953305D01*
X223313496Y-51977573D01*
X223307535Y-52001372D01*
X223299270Y-52024471D01*
X223288780Y-52046650D01*
X223276168Y-52067693D01*
X223261553Y-52087399D01*
X223245077Y-52105577D01*
X223226899Y-52122053D01*
X223207193Y-52136668D01*
X223186150Y-52149280D01*
X223163971Y-52159770D01*
X223140872Y-52168035D01*
X223117073Y-52173996D01*
X223092805Y-52177596D01*
X223068301Y-52178800D01*
X222168299Y-52178800D01*
X222143795Y-52177596D01*
X222119527Y-52173996D01*
X222095728Y-52168035D01*
X222072629Y-52159770D01*
X222050450Y-52149280D01*
X222029407Y-52136668D01*
X222009701Y-52122053D01*
X221991523Y-52105577D01*
X221975047Y-52087399D01*
X221960432Y-52067693D01*
X221947820Y-52046650D01*
X221937330Y-52024471D01*
X221929065Y-52001372D01*
X221923104Y-51977573D01*
X221919504Y-51953305D01*
X221918300Y-51928801D01*
X221918300Y-51278799D01*
X221919504Y-51254295D01*
X221923104Y-51230027D01*
X221929065Y-51206228D01*
X221937330Y-51183129D01*
X221947820Y-51160950D01*
X221960432Y-51139907D01*
X221975047Y-51120201D01*
X221991523Y-51102023D01*
X222009701Y-51085547D01*
X222029407Y-51070932D01*
X222050450Y-51058320D01*
X222072629Y-51047830D01*
X222095728Y-51039565D01*
X222119527Y-51033604D01*
X222143795Y-51030004D01*
X222168299Y-51028800D01*
X223068301Y-51028800D01*
X223092805Y-51030004D01*
X223092805Y-51030004D01*
G37*
D32*
X222618300Y-51603800D03*
D31*
G36*
X223092805Y-53080004D02*
G01*
X223117073Y-53083604D01*
X223140872Y-53089565D01*
X223163971Y-53097830D01*
X223186150Y-53108320D01*
X223207193Y-53120932D01*
X223226899Y-53135547D01*
X223245077Y-53152023D01*
X223261553Y-53170201D01*
X223276168Y-53189907D01*
X223288780Y-53210950D01*
X223299270Y-53233129D01*
X223307535Y-53256228D01*
X223313496Y-53280027D01*
X223317096Y-53304295D01*
X223318300Y-53328799D01*
X223318300Y-53978801D01*
X223317096Y-54003305D01*
X223313496Y-54027573D01*
X223307535Y-54051372D01*
X223299270Y-54074471D01*
X223288780Y-54096650D01*
X223276168Y-54117693D01*
X223261553Y-54137399D01*
X223245077Y-54155577D01*
X223226899Y-54172053D01*
X223207193Y-54186668D01*
X223186150Y-54199280D01*
X223163971Y-54209770D01*
X223140872Y-54218035D01*
X223117073Y-54223996D01*
X223092805Y-54227596D01*
X223068301Y-54228800D01*
X222168299Y-54228800D01*
X222143795Y-54227596D01*
X222119527Y-54223996D01*
X222095728Y-54218035D01*
X222072629Y-54209770D01*
X222050450Y-54199280D01*
X222029407Y-54186668D01*
X222009701Y-54172053D01*
X221991523Y-54155577D01*
X221975047Y-54137399D01*
X221960432Y-54117693D01*
X221947820Y-54096650D01*
X221937330Y-54074471D01*
X221929065Y-54051372D01*
X221923104Y-54027573D01*
X221919504Y-54003305D01*
X221918300Y-53978801D01*
X221918300Y-53328799D01*
X221919504Y-53304295D01*
X221923104Y-53280027D01*
X221929065Y-53256228D01*
X221937330Y-53233129D01*
X221947820Y-53210950D01*
X221960432Y-53189907D01*
X221975047Y-53170201D01*
X221991523Y-53152023D01*
X222009701Y-53135547D01*
X222029407Y-53120932D01*
X222050450Y-53108320D01*
X222072629Y-53097830D01*
X222095728Y-53089565D01*
X222119527Y-53083604D01*
X222143795Y-53080004D01*
X222168299Y-53078800D01*
X223068301Y-53078800D01*
X223092805Y-53080004D01*
X223092805Y-53080004D01*
G37*
D32*
X222618300Y-53653800D03*
D31*
G36*
X71701185Y-53573924D02*
G01*
X71725453Y-53577524D01*
X71749252Y-53583485D01*
X71772351Y-53591750D01*
X71794530Y-53602240D01*
X71815573Y-53614852D01*
X71835279Y-53629467D01*
X71853457Y-53645943D01*
X71869933Y-53664121D01*
X71884548Y-53683827D01*
X71897160Y-53704870D01*
X71907650Y-53727049D01*
X71915915Y-53750148D01*
X71921876Y-53773947D01*
X71925476Y-53798215D01*
X71926680Y-53822719D01*
X71926680Y-54472721D01*
X71925476Y-54497225D01*
X71921876Y-54521493D01*
X71915915Y-54545292D01*
X71907650Y-54568391D01*
X71897160Y-54590570D01*
X71884548Y-54611613D01*
X71869933Y-54631319D01*
X71853457Y-54649497D01*
X71835279Y-54665973D01*
X71815573Y-54680588D01*
X71794530Y-54693200D01*
X71772351Y-54703690D01*
X71749252Y-54711955D01*
X71725453Y-54717916D01*
X71701185Y-54721516D01*
X71676681Y-54722720D01*
X70776679Y-54722720D01*
X70752175Y-54721516D01*
X70727907Y-54717916D01*
X70704108Y-54711955D01*
X70681009Y-54703690D01*
X70658830Y-54693200D01*
X70637787Y-54680588D01*
X70618081Y-54665973D01*
X70599903Y-54649497D01*
X70583427Y-54631319D01*
X70568812Y-54611613D01*
X70556200Y-54590570D01*
X70545710Y-54568391D01*
X70537445Y-54545292D01*
X70531484Y-54521493D01*
X70527884Y-54497225D01*
X70526680Y-54472721D01*
X70526680Y-53822719D01*
X70527884Y-53798215D01*
X70531484Y-53773947D01*
X70537445Y-53750148D01*
X70545710Y-53727049D01*
X70556200Y-53704870D01*
X70568812Y-53683827D01*
X70583427Y-53664121D01*
X70599903Y-53645943D01*
X70618081Y-53629467D01*
X70637787Y-53614852D01*
X70658830Y-53602240D01*
X70681009Y-53591750D01*
X70704108Y-53583485D01*
X70727907Y-53577524D01*
X70752175Y-53573924D01*
X70776679Y-53572720D01*
X71676681Y-53572720D01*
X71701185Y-53573924D01*
X71701185Y-53573924D01*
G37*
D32*
X71226680Y-54147720D03*
D31*
G36*
X71701185Y-55623924D02*
G01*
X71725453Y-55627524D01*
X71749252Y-55633485D01*
X71772351Y-55641750D01*
X71794530Y-55652240D01*
X71815573Y-55664852D01*
X71835279Y-55679467D01*
X71853457Y-55695943D01*
X71869933Y-55714121D01*
X71884548Y-55733827D01*
X71897160Y-55754870D01*
X71907650Y-55777049D01*
X71915915Y-55800148D01*
X71921876Y-55823947D01*
X71925476Y-55848215D01*
X71926680Y-55872719D01*
X71926680Y-56522721D01*
X71925476Y-56547225D01*
X71921876Y-56571493D01*
X71915915Y-56595292D01*
X71907650Y-56618391D01*
X71897160Y-56640570D01*
X71884548Y-56661613D01*
X71869933Y-56681319D01*
X71853457Y-56699497D01*
X71835279Y-56715973D01*
X71815573Y-56730588D01*
X71794530Y-56743200D01*
X71772351Y-56753690D01*
X71749252Y-56761955D01*
X71725453Y-56767916D01*
X71701185Y-56771516D01*
X71676681Y-56772720D01*
X70776679Y-56772720D01*
X70752175Y-56771516D01*
X70727907Y-56767916D01*
X70704108Y-56761955D01*
X70681009Y-56753690D01*
X70658830Y-56743200D01*
X70637787Y-56730588D01*
X70618081Y-56715973D01*
X70599903Y-56699497D01*
X70583427Y-56681319D01*
X70568812Y-56661613D01*
X70556200Y-56640570D01*
X70545710Y-56618391D01*
X70537445Y-56595292D01*
X70531484Y-56571493D01*
X70527884Y-56547225D01*
X70526680Y-56522721D01*
X70526680Y-55872719D01*
X70527884Y-55848215D01*
X70531484Y-55823947D01*
X70537445Y-55800148D01*
X70545710Y-55777049D01*
X70556200Y-55754870D01*
X70568812Y-55733827D01*
X70583427Y-55714121D01*
X70599903Y-55695943D01*
X70618081Y-55679467D01*
X70637787Y-55664852D01*
X70658830Y-55652240D01*
X70681009Y-55641750D01*
X70704108Y-55633485D01*
X70727907Y-55627524D01*
X70752175Y-55623924D01*
X70776679Y-55622720D01*
X71676681Y-55622720D01*
X71701185Y-55623924D01*
X71701185Y-55623924D01*
G37*
D32*
X71226680Y-56197720D03*
D31*
G36*
X173763465Y-66254984D02*
G01*
X173787733Y-66258584D01*
X173811532Y-66264545D01*
X173834631Y-66272810D01*
X173856810Y-66283300D01*
X173877853Y-66295912D01*
X173897559Y-66310527D01*
X173915737Y-66327003D01*
X173932213Y-66345181D01*
X173946828Y-66364887D01*
X173959440Y-66385930D01*
X173969930Y-66408109D01*
X173978195Y-66431208D01*
X173984156Y-66455007D01*
X173987756Y-66479275D01*
X173988960Y-66503779D01*
X173988960Y-67153781D01*
X173987756Y-67178285D01*
X173984156Y-67202553D01*
X173978195Y-67226352D01*
X173969930Y-67249451D01*
X173959440Y-67271630D01*
X173946828Y-67292673D01*
X173932213Y-67312379D01*
X173915737Y-67330557D01*
X173897559Y-67347033D01*
X173877853Y-67361648D01*
X173856810Y-67374260D01*
X173834631Y-67384750D01*
X173811532Y-67393015D01*
X173787733Y-67398976D01*
X173763465Y-67402576D01*
X173738961Y-67403780D01*
X172838959Y-67403780D01*
X172814455Y-67402576D01*
X172790187Y-67398976D01*
X172766388Y-67393015D01*
X172743289Y-67384750D01*
X172721110Y-67374260D01*
X172700067Y-67361648D01*
X172680361Y-67347033D01*
X172662183Y-67330557D01*
X172645707Y-67312379D01*
X172631092Y-67292673D01*
X172618480Y-67271630D01*
X172607990Y-67249451D01*
X172599725Y-67226352D01*
X172593764Y-67202553D01*
X172590164Y-67178285D01*
X172588960Y-67153781D01*
X172588960Y-66503779D01*
X172590164Y-66479275D01*
X172593764Y-66455007D01*
X172599725Y-66431208D01*
X172607990Y-66408109D01*
X172618480Y-66385930D01*
X172631092Y-66364887D01*
X172645707Y-66345181D01*
X172662183Y-66327003D01*
X172680361Y-66310527D01*
X172700067Y-66295912D01*
X172721110Y-66283300D01*
X172743289Y-66272810D01*
X172766388Y-66264545D01*
X172790187Y-66258584D01*
X172814455Y-66254984D01*
X172838959Y-66253780D01*
X173738961Y-66253780D01*
X173763465Y-66254984D01*
X173763465Y-66254984D01*
G37*
D32*
X173288960Y-66828780D03*
D31*
G36*
X173763465Y-64204984D02*
G01*
X173787733Y-64208584D01*
X173811532Y-64214545D01*
X173834631Y-64222810D01*
X173856810Y-64233300D01*
X173877853Y-64245912D01*
X173897559Y-64260527D01*
X173915737Y-64277003D01*
X173932213Y-64295181D01*
X173946828Y-64314887D01*
X173959440Y-64335930D01*
X173969930Y-64358109D01*
X173978195Y-64381208D01*
X173984156Y-64405007D01*
X173987756Y-64429275D01*
X173988960Y-64453779D01*
X173988960Y-65103781D01*
X173987756Y-65128285D01*
X173984156Y-65152553D01*
X173978195Y-65176352D01*
X173969930Y-65199451D01*
X173959440Y-65221630D01*
X173946828Y-65242673D01*
X173932213Y-65262379D01*
X173915737Y-65280557D01*
X173897559Y-65297033D01*
X173877853Y-65311648D01*
X173856810Y-65324260D01*
X173834631Y-65334750D01*
X173811532Y-65343015D01*
X173787733Y-65348976D01*
X173763465Y-65352576D01*
X173738961Y-65353780D01*
X172838959Y-65353780D01*
X172814455Y-65352576D01*
X172790187Y-65348976D01*
X172766388Y-65343015D01*
X172743289Y-65334750D01*
X172721110Y-65324260D01*
X172700067Y-65311648D01*
X172680361Y-65297033D01*
X172662183Y-65280557D01*
X172645707Y-65262379D01*
X172631092Y-65242673D01*
X172618480Y-65221630D01*
X172607990Y-65199451D01*
X172599725Y-65176352D01*
X172593764Y-65152553D01*
X172590164Y-65128285D01*
X172588960Y-65103781D01*
X172588960Y-64453779D01*
X172590164Y-64429275D01*
X172593764Y-64405007D01*
X172599725Y-64381208D01*
X172607990Y-64358109D01*
X172618480Y-64335930D01*
X172631092Y-64314887D01*
X172645707Y-64295181D01*
X172662183Y-64277003D01*
X172680361Y-64260527D01*
X172700067Y-64245912D01*
X172721110Y-64233300D01*
X172743289Y-64222810D01*
X172766388Y-64214545D01*
X172790187Y-64208584D01*
X172814455Y-64204984D01*
X172838959Y-64203780D01*
X173738961Y-64203780D01*
X173763465Y-64204984D01*
X173763465Y-64204984D01*
G37*
D32*
X173288960Y-64778780D03*
D31*
G36*
X212296203Y-113365722D02*
G01*
X212310764Y-113367882D01*
X212325043Y-113371459D01*
X212338903Y-113376418D01*
X212352210Y-113382712D01*
X212364836Y-113390280D01*
X212376659Y-113399048D01*
X212387566Y-113408934D01*
X212397452Y-113419841D01*
X212406220Y-113431664D01*
X212413788Y-113444290D01*
X212420082Y-113457597D01*
X212425041Y-113471457D01*
X212428618Y-113485736D01*
X212430778Y-113500297D01*
X212431500Y-113515000D01*
X212431500Y-113815000D01*
X212430778Y-113829703D01*
X212428618Y-113844264D01*
X212425041Y-113858543D01*
X212420082Y-113872403D01*
X212413788Y-113885710D01*
X212406220Y-113898336D01*
X212397452Y-113910159D01*
X212387566Y-113921066D01*
X212376659Y-113930952D01*
X212364836Y-113939720D01*
X212352210Y-113947288D01*
X212338903Y-113953582D01*
X212325043Y-113958541D01*
X212310764Y-113962118D01*
X212296203Y-113964278D01*
X212281500Y-113965000D01*
X210631500Y-113965000D01*
X210616797Y-113964278D01*
X210602236Y-113962118D01*
X210587957Y-113958541D01*
X210574097Y-113953582D01*
X210560790Y-113947288D01*
X210548164Y-113939720D01*
X210536341Y-113930952D01*
X210525434Y-113921066D01*
X210515548Y-113910159D01*
X210506780Y-113898336D01*
X210499212Y-113885710D01*
X210492918Y-113872403D01*
X210487959Y-113858543D01*
X210484382Y-113844264D01*
X210482222Y-113829703D01*
X210481500Y-113815000D01*
X210481500Y-113515000D01*
X210482222Y-113500297D01*
X210484382Y-113485736D01*
X210487959Y-113471457D01*
X210492918Y-113457597D01*
X210499212Y-113444290D01*
X210506780Y-113431664D01*
X210515548Y-113419841D01*
X210525434Y-113408934D01*
X210536341Y-113399048D01*
X210548164Y-113390280D01*
X210560790Y-113382712D01*
X210574097Y-113376418D01*
X210587957Y-113371459D01*
X210602236Y-113367882D01*
X210616797Y-113365722D01*
X210631500Y-113365000D01*
X212281500Y-113365000D01*
X212296203Y-113365722D01*
X212296203Y-113365722D01*
G37*
D33*
X211456500Y-113665000D03*
D31*
G36*
X212296203Y-112095722D02*
G01*
X212310764Y-112097882D01*
X212325043Y-112101459D01*
X212338903Y-112106418D01*
X212352210Y-112112712D01*
X212364836Y-112120280D01*
X212376659Y-112129048D01*
X212387566Y-112138934D01*
X212397452Y-112149841D01*
X212406220Y-112161664D01*
X212413788Y-112174290D01*
X212420082Y-112187597D01*
X212425041Y-112201457D01*
X212428618Y-112215736D01*
X212430778Y-112230297D01*
X212431500Y-112245000D01*
X212431500Y-112545000D01*
X212430778Y-112559703D01*
X212428618Y-112574264D01*
X212425041Y-112588543D01*
X212420082Y-112602403D01*
X212413788Y-112615710D01*
X212406220Y-112628336D01*
X212397452Y-112640159D01*
X212387566Y-112651066D01*
X212376659Y-112660952D01*
X212364836Y-112669720D01*
X212352210Y-112677288D01*
X212338903Y-112683582D01*
X212325043Y-112688541D01*
X212310764Y-112692118D01*
X212296203Y-112694278D01*
X212281500Y-112695000D01*
X210631500Y-112695000D01*
X210616797Y-112694278D01*
X210602236Y-112692118D01*
X210587957Y-112688541D01*
X210574097Y-112683582D01*
X210560790Y-112677288D01*
X210548164Y-112669720D01*
X210536341Y-112660952D01*
X210525434Y-112651066D01*
X210515548Y-112640159D01*
X210506780Y-112628336D01*
X210499212Y-112615710D01*
X210492918Y-112602403D01*
X210487959Y-112588543D01*
X210484382Y-112574264D01*
X210482222Y-112559703D01*
X210481500Y-112545000D01*
X210481500Y-112245000D01*
X210482222Y-112230297D01*
X210484382Y-112215736D01*
X210487959Y-112201457D01*
X210492918Y-112187597D01*
X210499212Y-112174290D01*
X210506780Y-112161664D01*
X210515548Y-112149841D01*
X210525434Y-112138934D01*
X210536341Y-112129048D01*
X210548164Y-112120280D01*
X210560790Y-112112712D01*
X210574097Y-112106418D01*
X210587957Y-112101459D01*
X210602236Y-112097882D01*
X210616797Y-112095722D01*
X210631500Y-112095000D01*
X212281500Y-112095000D01*
X212296203Y-112095722D01*
X212296203Y-112095722D01*
G37*
D33*
X211456500Y-112395000D03*
D31*
G36*
X212296203Y-110825722D02*
G01*
X212310764Y-110827882D01*
X212325043Y-110831459D01*
X212338903Y-110836418D01*
X212352210Y-110842712D01*
X212364836Y-110850280D01*
X212376659Y-110859048D01*
X212387566Y-110868934D01*
X212397452Y-110879841D01*
X212406220Y-110891664D01*
X212413788Y-110904290D01*
X212420082Y-110917597D01*
X212425041Y-110931457D01*
X212428618Y-110945736D01*
X212430778Y-110960297D01*
X212431500Y-110975000D01*
X212431500Y-111275000D01*
X212430778Y-111289703D01*
X212428618Y-111304264D01*
X212425041Y-111318543D01*
X212420082Y-111332403D01*
X212413788Y-111345710D01*
X212406220Y-111358336D01*
X212397452Y-111370159D01*
X212387566Y-111381066D01*
X212376659Y-111390952D01*
X212364836Y-111399720D01*
X212352210Y-111407288D01*
X212338903Y-111413582D01*
X212325043Y-111418541D01*
X212310764Y-111422118D01*
X212296203Y-111424278D01*
X212281500Y-111425000D01*
X210631500Y-111425000D01*
X210616797Y-111424278D01*
X210602236Y-111422118D01*
X210587957Y-111418541D01*
X210574097Y-111413582D01*
X210560790Y-111407288D01*
X210548164Y-111399720D01*
X210536341Y-111390952D01*
X210525434Y-111381066D01*
X210515548Y-111370159D01*
X210506780Y-111358336D01*
X210499212Y-111345710D01*
X210492918Y-111332403D01*
X210487959Y-111318543D01*
X210484382Y-111304264D01*
X210482222Y-111289703D01*
X210481500Y-111275000D01*
X210481500Y-110975000D01*
X210482222Y-110960297D01*
X210484382Y-110945736D01*
X210487959Y-110931457D01*
X210492918Y-110917597D01*
X210499212Y-110904290D01*
X210506780Y-110891664D01*
X210515548Y-110879841D01*
X210525434Y-110868934D01*
X210536341Y-110859048D01*
X210548164Y-110850280D01*
X210560790Y-110842712D01*
X210574097Y-110836418D01*
X210587957Y-110831459D01*
X210602236Y-110827882D01*
X210616797Y-110825722D01*
X210631500Y-110825000D01*
X212281500Y-110825000D01*
X212296203Y-110825722D01*
X212296203Y-110825722D01*
G37*
D33*
X211456500Y-111125000D03*
D31*
G36*
X212296203Y-109555722D02*
G01*
X212310764Y-109557882D01*
X212325043Y-109561459D01*
X212338903Y-109566418D01*
X212352210Y-109572712D01*
X212364836Y-109580280D01*
X212376659Y-109589048D01*
X212387566Y-109598934D01*
X212397452Y-109609841D01*
X212406220Y-109621664D01*
X212413788Y-109634290D01*
X212420082Y-109647597D01*
X212425041Y-109661457D01*
X212428618Y-109675736D01*
X212430778Y-109690297D01*
X212431500Y-109705000D01*
X212431500Y-110005000D01*
X212430778Y-110019703D01*
X212428618Y-110034264D01*
X212425041Y-110048543D01*
X212420082Y-110062403D01*
X212413788Y-110075710D01*
X212406220Y-110088336D01*
X212397452Y-110100159D01*
X212387566Y-110111066D01*
X212376659Y-110120952D01*
X212364836Y-110129720D01*
X212352210Y-110137288D01*
X212338903Y-110143582D01*
X212325043Y-110148541D01*
X212310764Y-110152118D01*
X212296203Y-110154278D01*
X212281500Y-110155000D01*
X210631500Y-110155000D01*
X210616797Y-110154278D01*
X210602236Y-110152118D01*
X210587957Y-110148541D01*
X210574097Y-110143582D01*
X210560790Y-110137288D01*
X210548164Y-110129720D01*
X210536341Y-110120952D01*
X210525434Y-110111066D01*
X210515548Y-110100159D01*
X210506780Y-110088336D01*
X210499212Y-110075710D01*
X210492918Y-110062403D01*
X210487959Y-110048543D01*
X210484382Y-110034264D01*
X210482222Y-110019703D01*
X210481500Y-110005000D01*
X210481500Y-109705000D01*
X210482222Y-109690297D01*
X210484382Y-109675736D01*
X210487959Y-109661457D01*
X210492918Y-109647597D01*
X210499212Y-109634290D01*
X210506780Y-109621664D01*
X210515548Y-109609841D01*
X210525434Y-109598934D01*
X210536341Y-109589048D01*
X210548164Y-109580280D01*
X210560790Y-109572712D01*
X210574097Y-109566418D01*
X210587957Y-109561459D01*
X210602236Y-109557882D01*
X210616797Y-109555722D01*
X210631500Y-109555000D01*
X212281500Y-109555000D01*
X212296203Y-109555722D01*
X212296203Y-109555722D01*
G37*
D33*
X211456500Y-109855000D03*
D31*
G36*
X217246203Y-109555722D02*
G01*
X217260764Y-109557882D01*
X217275043Y-109561459D01*
X217288903Y-109566418D01*
X217302210Y-109572712D01*
X217314836Y-109580280D01*
X217326659Y-109589048D01*
X217337566Y-109598934D01*
X217347452Y-109609841D01*
X217356220Y-109621664D01*
X217363788Y-109634290D01*
X217370082Y-109647597D01*
X217375041Y-109661457D01*
X217378618Y-109675736D01*
X217380778Y-109690297D01*
X217381500Y-109705000D01*
X217381500Y-110005000D01*
X217380778Y-110019703D01*
X217378618Y-110034264D01*
X217375041Y-110048543D01*
X217370082Y-110062403D01*
X217363788Y-110075710D01*
X217356220Y-110088336D01*
X217347452Y-110100159D01*
X217337566Y-110111066D01*
X217326659Y-110120952D01*
X217314836Y-110129720D01*
X217302210Y-110137288D01*
X217288903Y-110143582D01*
X217275043Y-110148541D01*
X217260764Y-110152118D01*
X217246203Y-110154278D01*
X217231500Y-110155000D01*
X215581500Y-110155000D01*
X215566797Y-110154278D01*
X215552236Y-110152118D01*
X215537957Y-110148541D01*
X215524097Y-110143582D01*
X215510790Y-110137288D01*
X215498164Y-110129720D01*
X215486341Y-110120952D01*
X215475434Y-110111066D01*
X215465548Y-110100159D01*
X215456780Y-110088336D01*
X215449212Y-110075710D01*
X215442918Y-110062403D01*
X215437959Y-110048543D01*
X215434382Y-110034264D01*
X215432222Y-110019703D01*
X215431500Y-110005000D01*
X215431500Y-109705000D01*
X215432222Y-109690297D01*
X215434382Y-109675736D01*
X215437959Y-109661457D01*
X215442918Y-109647597D01*
X215449212Y-109634290D01*
X215456780Y-109621664D01*
X215465548Y-109609841D01*
X215475434Y-109598934D01*
X215486341Y-109589048D01*
X215498164Y-109580280D01*
X215510790Y-109572712D01*
X215524097Y-109566418D01*
X215537957Y-109561459D01*
X215552236Y-109557882D01*
X215566797Y-109555722D01*
X215581500Y-109555000D01*
X217231500Y-109555000D01*
X217246203Y-109555722D01*
X217246203Y-109555722D01*
G37*
D33*
X216406500Y-109855000D03*
D31*
G36*
X217246203Y-110825722D02*
G01*
X217260764Y-110827882D01*
X217275043Y-110831459D01*
X217288903Y-110836418D01*
X217302210Y-110842712D01*
X217314836Y-110850280D01*
X217326659Y-110859048D01*
X217337566Y-110868934D01*
X217347452Y-110879841D01*
X217356220Y-110891664D01*
X217363788Y-110904290D01*
X217370082Y-110917597D01*
X217375041Y-110931457D01*
X217378618Y-110945736D01*
X217380778Y-110960297D01*
X217381500Y-110975000D01*
X217381500Y-111275000D01*
X217380778Y-111289703D01*
X217378618Y-111304264D01*
X217375041Y-111318543D01*
X217370082Y-111332403D01*
X217363788Y-111345710D01*
X217356220Y-111358336D01*
X217347452Y-111370159D01*
X217337566Y-111381066D01*
X217326659Y-111390952D01*
X217314836Y-111399720D01*
X217302210Y-111407288D01*
X217288903Y-111413582D01*
X217275043Y-111418541D01*
X217260764Y-111422118D01*
X217246203Y-111424278D01*
X217231500Y-111425000D01*
X215581500Y-111425000D01*
X215566797Y-111424278D01*
X215552236Y-111422118D01*
X215537957Y-111418541D01*
X215524097Y-111413582D01*
X215510790Y-111407288D01*
X215498164Y-111399720D01*
X215486341Y-111390952D01*
X215475434Y-111381066D01*
X215465548Y-111370159D01*
X215456780Y-111358336D01*
X215449212Y-111345710D01*
X215442918Y-111332403D01*
X215437959Y-111318543D01*
X215434382Y-111304264D01*
X215432222Y-111289703D01*
X215431500Y-111275000D01*
X215431500Y-110975000D01*
X215432222Y-110960297D01*
X215434382Y-110945736D01*
X215437959Y-110931457D01*
X215442918Y-110917597D01*
X215449212Y-110904290D01*
X215456780Y-110891664D01*
X215465548Y-110879841D01*
X215475434Y-110868934D01*
X215486341Y-110859048D01*
X215498164Y-110850280D01*
X215510790Y-110842712D01*
X215524097Y-110836418D01*
X215537957Y-110831459D01*
X215552236Y-110827882D01*
X215566797Y-110825722D01*
X215581500Y-110825000D01*
X217231500Y-110825000D01*
X217246203Y-110825722D01*
X217246203Y-110825722D01*
G37*
D33*
X216406500Y-111125000D03*
D31*
G36*
X217246203Y-112095722D02*
G01*
X217260764Y-112097882D01*
X217275043Y-112101459D01*
X217288903Y-112106418D01*
X217302210Y-112112712D01*
X217314836Y-112120280D01*
X217326659Y-112129048D01*
X217337566Y-112138934D01*
X217347452Y-112149841D01*
X217356220Y-112161664D01*
X217363788Y-112174290D01*
X217370082Y-112187597D01*
X217375041Y-112201457D01*
X217378618Y-112215736D01*
X217380778Y-112230297D01*
X217381500Y-112245000D01*
X217381500Y-112545000D01*
X217380778Y-112559703D01*
X217378618Y-112574264D01*
X217375041Y-112588543D01*
X217370082Y-112602403D01*
X217363788Y-112615710D01*
X217356220Y-112628336D01*
X217347452Y-112640159D01*
X217337566Y-112651066D01*
X217326659Y-112660952D01*
X217314836Y-112669720D01*
X217302210Y-112677288D01*
X217288903Y-112683582D01*
X217275043Y-112688541D01*
X217260764Y-112692118D01*
X217246203Y-112694278D01*
X217231500Y-112695000D01*
X215581500Y-112695000D01*
X215566797Y-112694278D01*
X215552236Y-112692118D01*
X215537957Y-112688541D01*
X215524097Y-112683582D01*
X215510790Y-112677288D01*
X215498164Y-112669720D01*
X215486341Y-112660952D01*
X215475434Y-112651066D01*
X215465548Y-112640159D01*
X215456780Y-112628336D01*
X215449212Y-112615710D01*
X215442918Y-112602403D01*
X215437959Y-112588543D01*
X215434382Y-112574264D01*
X215432222Y-112559703D01*
X215431500Y-112545000D01*
X215431500Y-112245000D01*
X215432222Y-112230297D01*
X215434382Y-112215736D01*
X215437959Y-112201457D01*
X215442918Y-112187597D01*
X215449212Y-112174290D01*
X215456780Y-112161664D01*
X215465548Y-112149841D01*
X215475434Y-112138934D01*
X215486341Y-112129048D01*
X215498164Y-112120280D01*
X215510790Y-112112712D01*
X215524097Y-112106418D01*
X215537957Y-112101459D01*
X215552236Y-112097882D01*
X215566797Y-112095722D01*
X215581500Y-112095000D01*
X217231500Y-112095000D01*
X217246203Y-112095722D01*
X217246203Y-112095722D01*
G37*
D33*
X216406500Y-112395000D03*
D31*
G36*
X217246203Y-113365722D02*
G01*
X217260764Y-113367882D01*
X217275043Y-113371459D01*
X217288903Y-113376418D01*
X217302210Y-113382712D01*
X217314836Y-113390280D01*
X217326659Y-113399048D01*
X217337566Y-113408934D01*
X217347452Y-113419841D01*
X217356220Y-113431664D01*
X217363788Y-113444290D01*
X217370082Y-113457597D01*
X217375041Y-113471457D01*
X217378618Y-113485736D01*
X217380778Y-113500297D01*
X217381500Y-113515000D01*
X217381500Y-113815000D01*
X217380778Y-113829703D01*
X217378618Y-113844264D01*
X217375041Y-113858543D01*
X217370082Y-113872403D01*
X217363788Y-113885710D01*
X217356220Y-113898336D01*
X217347452Y-113910159D01*
X217337566Y-113921066D01*
X217326659Y-113930952D01*
X217314836Y-113939720D01*
X217302210Y-113947288D01*
X217288903Y-113953582D01*
X217275043Y-113958541D01*
X217260764Y-113962118D01*
X217246203Y-113964278D01*
X217231500Y-113965000D01*
X215581500Y-113965000D01*
X215566797Y-113964278D01*
X215552236Y-113962118D01*
X215537957Y-113958541D01*
X215524097Y-113953582D01*
X215510790Y-113947288D01*
X215498164Y-113939720D01*
X215486341Y-113930952D01*
X215475434Y-113921066D01*
X215465548Y-113910159D01*
X215456780Y-113898336D01*
X215449212Y-113885710D01*
X215442918Y-113872403D01*
X215437959Y-113858543D01*
X215434382Y-113844264D01*
X215432222Y-113829703D01*
X215431500Y-113815000D01*
X215431500Y-113515000D01*
X215432222Y-113500297D01*
X215434382Y-113485736D01*
X215437959Y-113471457D01*
X215442918Y-113457597D01*
X215449212Y-113444290D01*
X215456780Y-113431664D01*
X215465548Y-113419841D01*
X215475434Y-113408934D01*
X215486341Y-113399048D01*
X215498164Y-113390280D01*
X215510790Y-113382712D01*
X215524097Y-113376418D01*
X215537957Y-113371459D01*
X215552236Y-113367882D01*
X215566797Y-113365722D01*
X215581500Y-113365000D01*
X217231500Y-113365000D01*
X217246203Y-113365722D01*
X217246203Y-113365722D01*
G37*
D33*
X216406500Y-113665000D03*
D31*
G36*
X158867303Y-104831322D02*
G01*
X158881864Y-104833482D01*
X158896143Y-104837059D01*
X158910003Y-104842018D01*
X158923310Y-104848312D01*
X158935936Y-104855880D01*
X158947759Y-104864648D01*
X158958666Y-104874534D01*
X158968552Y-104885441D01*
X158977320Y-104897264D01*
X158984888Y-104909890D01*
X158991182Y-104923197D01*
X158996141Y-104937057D01*
X158999718Y-104951336D01*
X159001878Y-104965897D01*
X159002600Y-104980600D01*
X159002600Y-105280600D01*
X159001878Y-105295303D01*
X158999718Y-105309864D01*
X158996141Y-105324143D01*
X158991182Y-105338003D01*
X158984888Y-105351310D01*
X158977320Y-105363936D01*
X158968552Y-105375759D01*
X158958666Y-105386666D01*
X158947759Y-105396552D01*
X158935936Y-105405320D01*
X158923310Y-105412888D01*
X158910003Y-105419182D01*
X158896143Y-105424141D01*
X158881864Y-105427718D01*
X158867303Y-105429878D01*
X158852600Y-105430600D01*
X157202600Y-105430600D01*
X157187897Y-105429878D01*
X157173336Y-105427718D01*
X157159057Y-105424141D01*
X157145197Y-105419182D01*
X157131890Y-105412888D01*
X157119264Y-105405320D01*
X157107441Y-105396552D01*
X157096534Y-105386666D01*
X157086648Y-105375759D01*
X157077880Y-105363936D01*
X157070312Y-105351310D01*
X157064018Y-105338003D01*
X157059059Y-105324143D01*
X157055482Y-105309864D01*
X157053322Y-105295303D01*
X157052600Y-105280600D01*
X157052600Y-104980600D01*
X157053322Y-104965897D01*
X157055482Y-104951336D01*
X157059059Y-104937057D01*
X157064018Y-104923197D01*
X157070312Y-104909890D01*
X157077880Y-104897264D01*
X157086648Y-104885441D01*
X157096534Y-104874534D01*
X157107441Y-104864648D01*
X157119264Y-104855880D01*
X157131890Y-104848312D01*
X157145197Y-104842018D01*
X157159057Y-104837059D01*
X157173336Y-104833482D01*
X157187897Y-104831322D01*
X157202600Y-104830600D01*
X158852600Y-104830600D01*
X158867303Y-104831322D01*
X158867303Y-104831322D01*
G37*
D33*
X158027600Y-105130600D03*
D31*
G36*
X158867303Y-106101322D02*
G01*
X158881864Y-106103482D01*
X158896143Y-106107059D01*
X158910003Y-106112018D01*
X158923310Y-106118312D01*
X158935936Y-106125880D01*
X158947759Y-106134648D01*
X158958666Y-106144534D01*
X158968552Y-106155441D01*
X158977320Y-106167264D01*
X158984888Y-106179890D01*
X158991182Y-106193197D01*
X158996141Y-106207057D01*
X158999718Y-106221336D01*
X159001878Y-106235897D01*
X159002600Y-106250600D01*
X159002600Y-106550600D01*
X159001878Y-106565303D01*
X158999718Y-106579864D01*
X158996141Y-106594143D01*
X158991182Y-106608003D01*
X158984888Y-106621310D01*
X158977320Y-106633936D01*
X158968552Y-106645759D01*
X158958666Y-106656666D01*
X158947759Y-106666552D01*
X158935936Y-106675320D01*
X158923310Y-106682888D01*
X158910003Y-106689182D01*
X158896143Y-106694141D01*
X158881864Y-106697718D01*
X158867303Y-106699878D01*
X158852600Y-106700600D01*
X157202600Y-106700600D01*
X157187897Y-106699878D01*
X157173336Y-106697718D01*
X157159057Y-106694141D01*
X157145197Y-106689182D01*
X157131890Y-106682888D01*
X157119264Y-106675320D01*
X157107441Y-106666552D01*
X157096534Y-106656666D01*
X157086648Y-106645759D01*
X157077880Y-106633936D01*
X157070312Y-106621310D01*
X157064018Y-106608003D01*
X157059059Y-106594143D01*
X157055482Y-106579864D01*
X157053322Y-106565303D01*
X157052600Y-106550600D01*
X157052600Y-106250600D01*
X157053322Y-106235897D01*
X157055482Y-106221336D01*
X157059059Y-106207057D01*
X157064018Y-106193197D01*
X157070312Y-106179890D01*
X157077880Y-106167264D01*
X157086648Y-106155441D01*
X157096534Y-106144534D01*
X157107441Y-106134648D01*
X157119264Y-106125880D01*
X157131890Y-106118312D01*
X157145197Y-106112018D01*
X157159057Y-106107059D01*
X157173336Y-106103482D01*
X157187897Y-106101322D01*
X157202600Y-106100600D01*
X158852600Y-106100600D01*
X158867303Y-106101322D01*
X158867303Y-106101322D01*
G37*
D33*
X158027600Y-106400600D03*
D31*
G36*
X158867303Y-107371322D02*
G01*
X158881864Y-107373482D01*
X158896143Y-107377059D01*
X158910003Y-107382018D01*
X158923310Y-107388312D01*
X158935936Y-107395880D01*
X158947759Y-107404648D01*
X158958666Y-107414534D01*
X158968552Y-107425441D01*
X158977320Y-107437264D01*
X158984888Y-107449890D01*
X158991182Y-107463197D01*
X158996141Y-107477057D01*
X158999718Y-107491336D01*
X159001878Y-107505897D01*
X159002600Y-107520600D01*
X159002600Y-107820600D01*
X159001878Y-107835303D01*
X158999718Y-107849864D01*
X158996141Y-107864143D01*
X158991182Y-107878003D01*
X158984888Y-107891310D01*
X158977320Y-107903936D01*
X158968552Y-107915759D01*
X158958666Y-107926666D01*
X158947759Y-107936552D01*
X158935936Y-107945320D01*
X158923310Y-107952888D01*
X158910003Y-107959182D01*
X158896143Y-107964141D01*
X158881864Y-107967718D01*
X158867303Y-107969878D01*
X158852600Y-107970600D01*
X157202600Y-107970600D01*
X157187897Y-107969878D01*
X157173336Y-107967718D01*
X157159057Y-107964141D01*
X157145197Y-107959182D01*
X157131890Y-107952888D01*
X157119264Y-107945320D01*
X157107441Y-107936552D01*
X157096534Y-107926666D01*
X157086648Y-107915759D01*
X157077880Y-107903936D01*
X157070312Y-107891310D01*
X157064018Y-107878003D01*
X157059059Y-107864143D01*
X157055482Y-107849864D01*
X157053322Y-107835303D01*
X157052600Y-107820600D01*
X157052600Y-107520600D01*
X157053322Y-107505897D01*
X157055482Y-107491336D01*
X157059059Y-107477057D01*
X157064018Y-107463197D01*
X157070312Y-107449890D01*
X157077880Y-107437264D01*
X157086648Y-107425441D01*
X157096534Y-107414534D01*
X157107441Y-107404648D01*
X157119264Y-107395880D01*
X157131890Y-107388312D01*
X157145197Y-107382018D01*
X157159057Y-107377059D01*
X157173336Y-107373482D01*
X157187897Y-107371322D01*
X157202600Y-107370600D01*
X158852600Y-107370600D01*
X158867303Y-107371322D01*
X158867303Y-107371322D01*
G37*
D33*
X158027600Y-107670600D03*
D31*
G36*
X158867303Y-108641322D02*
G01*
X158881864Y-108643482D01*
X158896143Y-108647059D01*
X158910003Y-108652018D01*
X158923310Y-108658312D01*
X158935936Y-108665880D01*
X158947759Y-108674648D01*
X158958666Y-108684534D01*
X158968552Y-108695441D01*
X158977320Y-108707264D01*
X158984888Y-108719890D01*
X158991182Y-108733197D01*
X158996141Y-108747057D01*
X158999718Y-108761336D01*
X159001878Y-108775897D01*
X159002600Y-108790600D01*
X159002600Y-109090600D01*
X159001878Y-109105303D01*
X158999718Y-109119864D01*
X158996141Y-109134143D01*
X158991182Y-109148003D01*
X158984888Y-109161310D01*
X158977320Y-109173936D01*
X158968552Y-109185759D01*
X158958666Y-109196666D01*
X158947759Y-109206552D01*
X158935936Y-109215320D01*
X158923310Y-109222888D01*
X158910003Y-109229182D01*
X158896143Y-109234141D01*
X158881864Y-109237718D01*
X158867303Y-109239878D01*
X158852600Y-109240600D01*
X157202600Y-109240600D01*
X157187897Y-109239878D01*
X157173336Y-109237718D01*
X157159057Y-109234141D01*
X157145197Y-109229182D01*
X157131890Y-109222888D01*
X157119264Y-109215320D01*
X157107441Y-109206552D01*
X157096534Y-109196666D01*
X157086648Y-109185759D01*
X157077880Y-109173936D01*
X157070312Y-109161310D01*
X157064018Y-109148003D01*
X157059059Y-109134143D01*
X157055482Y-109119864D01*
X157053322Y-109105303D01*
X157052600Y-109090600D01*
X157052600Y-108790600D01*
X157053322Y-108775897D01*
X157055482Y-108761336D01*
X157059059Y-108747057D01*
X157064018Y-108733197D01*
X157070312Y-108719890D01*
X157077880Y-108707264D01*
X157086648Y-108695441D01*
X157096534Y-108684534D01*
X157107441Y-108674648D01*
X157119264Y-108665880D01*
X157131890Y-108658312D01*
X157145197Y-108652018D01*
X157159057Y-108647059D01*
X157173336Y-108643482D01*
X157187897Y-108641322D01*
X157202600Y-108640600D01*
X158852600Y-108640600D01*
X158867303Y-108641322D01*
X158867303Y-108641322D01*
G37*
D33*
X158027600Y-108940600D03*
D31*
G36*
X163817303Y-108641322D02*
G01*
X163831864Y-108643482D01*
X163846143Y-108647059D01*
X163860003Y-108652018D01*
X163873310Y-108658312D01*
X163885936Y-108665880D01*
X163897759Y-108674648D01*
X163908666Y-108684534D01*
X163918552Y-108695441D01*
X163927320Y-108707264D01*
X163934888Y-108719890D01*
X163941182Y-108733197D01*
X163946141Y-108747057D01*
X163949718Y-108761336D01*
X163951878Y-108775897D01*
X163952600Y-108790600D01*
X163952600Y-109090600D01*
X163951878Y-109105303D01*
X163949718Y-109119864D01*
X163946141Y-109134143D01*
X163941182Y-109148003D01*
X163934888Y-109161310D01*
X163927320Y-109173936D01*
X163918552Y-109185759D01*
X163908666Y-109196666D01*
X163897759Y-109206552D01*
X163885936Y-109215320D01*
X163873310Y-109222888D01*
X163860003Y-109229182D01*
X163846143Y-109234141D01*
X163831864Y-109237718D01*
X163817303Y-109239878D01*
X163802600Y-109240600D01*
X162152600Y-109240600D01*
X162137897Y-109239878D01*
X162123336Y-109237718D01*
X162109057Y-109234141D01*
X162095197Y-109229182D01*
X162081890Y-109222888D01*
X162069264Y-109215320D01*
X162057441Y-109206552D01*
X162046534Y-109196666D01*
X162036648Y-109185759D01*
X162027880Y-109173936D01*
X162020312Y-109161310D01*
X162014018Y-109148003D01*
X162009059Y-109134143D01*
X162005482Y-109119864D01*
X162003322Y-109105303D01*
X162002600Y-109090600D01*
X162002600Y-108790600D01*
X162003322Y-108775897D01*
X162005482Y-108761336D01*
X162009059Y-108747057D01*
X162014018Y-108733197D01*
X162020312Y-108719890D01*
X162027880Y-108707264D01*
X162036648Y-108695441D01*
X162046534Y-108684534D01*
X162057441Y-108674648D01*
X162069264Y-108665880D01*
X162081890Y-108658312D01*
X162095197Y-108652018D01*
X162109057Y-108647059D01*
X162123336Y-108643482D01*
X162137897Y-108641322D01*
X162152600Y-108640600D01*
X163802600Y-108640600D01*
X163817303Y-108641322D01*
X163817303Y-108641322D01*
G37*
D33*
X162977600Y-108940600D03*
D31*
G36*
X163817303Y-107371322D02*
G01*
X163831864Y-107373482D01*
X163846143Y-107377059D01*
X163860003Y-107382018D01*
X163873310Y-107388312D01*
X163885936Y-107395880D01*
X163897759Y-107404648D01*
X163908666Y-107414534D01*
X163918552Y-107425441D01*
X163927320Y-107437264D01*
X163934888Y-107449890D01*
X163941182Y-107463197D01*
X163946141Y-107477057D01*
X163949718Y-107491336D01*
X163951878Y-107505897D01*
X163952600Y-107520600D01*
X163952600Y-107820600D01*
X163951878Y-107835303D01*
X163949718Y-107849864D01*
X163946141Y-107864143D01*
X163941182Y-107878003D01*
X163934888Y-107891310D01*
X163927320Y-107903936D01*
X163918552Y-107915759D01*
X163908666Y-107926666D01*
X163897759Y-107936552D01*
X163885936Y-107945320D01*
X163873310Y-107952888D01*
X163860003Y-107959182D01*
X163846143Y-107964141D01*
X163831864Y-107967718D01*
X163817303Y-107969878D01*
X163802600Y-107970600D01*
X162152600Y-107970600D01*
X162137897Y-107969878D01*
X162123336Y-107967718D01*
X162109057Y-107964141D01*
X162095197Y-107959182D01*
X162081890Y-107952888D01*
X162069264Y-107945320D01*
X162057441Y-107936552D01*
X162046534Y-107926666D01*
X162036648Y-107915759D01*
X162027880Y-107903936D01*
X162020312Y-107891310D01*
X162014018Y-107878003D01*
X162009059Y-107864143D01*
X162005482Y-107849864D01*
X162003322Y-107835303D01*
X162002600Y-107820600D01*
X162002600Y-107520600D01*
X162003322Y-107505897D01*
X162005482Y-107491336D01*
X162009059Y-107477057D01*
X162014018Y-107463197D01*
X162020312Y-107449890D01*
X162027880Y-107437264D01*
X162036648Y-107425441D01*
X162046534Y-107414534D01*
X162057441Y-107404648D01*
X162069264Y-107395880D01*
X162081890Y-107388312D01*
X162095197Y-107382018D01*
X162109057Y-107377059D01*
X162123336Y-107373482D01*
X162137897Y-107371322D01*
X162152600Y-107370600D01*
X163802600Y-107370600D01*
X163817303Y-107371322D01*
X163817303Y-107371322D01*
G37*
D33*
X162977600Y-107670600D03*
D31*
G36*
X163817303Y-106101322D02*
G01*
X163831864Y-106103482D01*
X163846143Y-106107059D01*
X163860003Y-106112018D01*
X163873310Y-106118312D01*
X163885936Y-106125880D01*
X163897759Y-106134648D01*
X163908666Y-106144534D01*
X163918552Y-106155441D01*
X163927320Y-106167264D01*
X163934888Y-106179890D01*
X163941182Y-106193197D01*
X163946141Y-106207057D01*
X163949718Y-106221336D01*
X163951878Y-106235897D01*
X163952600Y-106250600D01*
X163952600Y-106550600D01*
X163951878Y-106565303D01*
X163949718Y-106579864D01*
X163946141Y-106594143D01*
X163941182Y-106608003D01*
X163934888Y-106621310D01*
X163927320Y-106633936D01*
X163918552Y-106645759D01*
X163908666Y-106656666D01*
X163897759Y-106666552D01*
X163885936Y-106675320D01*
X163873310Y-106682888D01*
X163860003Y-106689182D01*
X163846143Y-106694141D01*
X163831864Y-106697718D01*
X163817303Y-106699878D01*
X163802600Y-106700600D01*
X162152600Y-106700600D01*
X162137897Y-106699878D01*
X162123336Y-106697718D01*
X162109057Y-106694141D01*
X162095197Y-106689182D01*
X162081890Y-106682888D01*
X162069264Y-106675320D01*
X162057441Y-106666552D01*
X162046534Y-106656666D01*
X162036648Y-106645759D01*
X162027880Y-106633936D01*
X162020312Y-106621310D01*
X162014018Y-106608003D01*
X162009059Y-106594143D01*
X162005482Y-106579864D01*
X162003322Y-106565303D01*
X162002600Y-106550600D01*
X162002600Y-106250600D01*
X162003322Y-106235897D01*
X162005482Y-106221336D01*
X162009059Y-106207057D01*
X162014018Y-106193197D01*
X162020312Y-106179890D01*
X162027880Y-106167264D01*
X162036648Y-106155441D01*
X162046534Y-106144534D01*
X162057441Y-106134648D01*
X162069264Y-106125880D01*
X162081890Y-106118312D01*
X162095197Y-106112018D01*
X162109057Y-106107059D01*
X162123336Y-106103482D01*
X162137897Y-106101322D01*
X162152600Y-106100600D01*
X163802600Y-106100600D01*
X163817303Y-106101322D01*
X163817303Y-106101322D01*
G37*
D33*
X162977600Y-106400600D03*
D31*
G36*
X163817303Y-104831322D02*
G01*
X163831864Y-104833482D01*
X163846143Y-104837059D01*
X163860003Y-104842018D01*
X163873310Y-104848312D01*
X163885936Y-104855880D01*
X163897759Y-104864648D01*
X163908666Y-104874534D01*
X163918552Y-104885441D01*
X163927320Y-104897264D01*
X163934888Y-104909890D01*
X163941182Y-104923197D01*
X163946141Y-104937057D01*
X163949718Y-104951336D01*
X163951878Y-104965897D01*
X163952600Y-104980600D01*
X163952600Y-105280600D01*
X163951878Y-105295303D01*
X163949718Y-105309864D01*
X163946141Y-105324143D01*
X163941182Y-105338003D01*
X163934888Y-105351310D01*
X163927320Y-105363936D01*
X163918552Y-105375759D01*
X163908666Y-105386666D01*
X163897759Y-105396552D01*
X163885936Y-105405320D01*
X163873310Y-105412888D01*
X163860003Y-105419182D01*
X163846143Y-105424141D01*
X163831864Y-105427718D01*
X163817303Y-105429878D01*
X163802600Y-105430600D01*
X162152600Y-105430600D01*
X162137897Y-105429878D01*
X162123336Y-105427718D01*
X162109057Y-105424141D01*
X162095197Y-105419182D01*
X162081890Y-105412888D01*
X162069264Y-105405320D01*
X162057441Y-105396552D01*
X162046534Y-105386666D01*
X162036648Y-105375759D01*
X162027880Y-105363936D01*
X162020312Y-105351310D01*
X162014018Y-105338003D01*
X162009059Y-105324143D01*
X162005482Y-105309864D01*
X162003322Y-105295303D01*
X162002600Y-105280600D01*
X162002600Y-104980600D01*
X162003322Y-104965897D01*
X162005482Y-104951336D01*
X162009059Y-104937057D01*
X162014018Y-104923197D01*
X162020312Y-104909890D01*
X162027880Y-104897264D01*
X162036648Y-104885441D01*
X162046534Y-104874534D01*
X162057441Y-104864648D01*
X162069264Y-104855880D01*
X162081890Y-104848312D01*
X162095197Y-104842018D01*
X162109057Y-104837059D01*
X162123336Y-104833482D01*
X162137897Y-104831322D01*
X162152600Y-104830600D01*
X163802600Y-104830600D01*
X163817303Y-104831322D01*
X163817303Y-104831322D01*
G37*
D33*
X162977600Y-105130600D03*
D34*
X92341700Y-96111060D03*
X120280140Y-65877440D03*
X164129720Y-126740920D03*
D35*
X151130000Y-71374000D03*
X151130000Y-83312000D03*
D34*
X116687600Y-109672120D03*
D35*
X97282000Y-58166000D03*
D34*
X176542700Y-119367300D03*
X188759880Y-84269800D03*
X159004000Y-47498000D03*
X194132200Y-100685600D03*
X99720400Y-91922600D03*
X140579881Y-91962199D03*
X82887970Y-79560270D03*
X105210610Y-82337910D03*
X130942080Y-79832200D03*
X124957840Y-50200560D03*
X173385480Y-62920880D03*
X173451520Y-69240400D03*
X133243320Y-63383160D03*
X177231040Y-107863640D03*
X184764680Y-101940360D03*
X99060000Y-104866440D03*
X118078272Y-127976608D03*
X223230440Y-67635120D03*
X130088640Y-65857120D03*
X109054900Y-92824300D03*
X95093910Y-75487410D03*
X196130970Y-95958870D03*
X96956880Y-98562160D03*
X171602400Y-100685600D03*
X130093720Y-128092200D03*
X123024900Y-111005620D03*
X123024900Y-107241340D03*
X104169680Y-55137520D03*
X108518960Y-129362200D03*
X96599900Y-87672020D03*
X125044200Y-97063560D03*
X186823300Y-113665000D03*
X123024900Y-120276620D03*
X197693280Y-67320160D03*
D36*
X92341700Y-100244800D02*
X91960700Y-100625800D01*
X92341700Y-91338400D02*
X92341700Y-96111060D01*
X92341700Y-96111060D02*
X92341700Y-100244800D01*
X122511600Y-65877440D02*
X120280140Y-65877440D01*
X125264960Y-68630800D02*
X122511600Y-65877440D01*
X176542700Y-123545600D02*
X167325040Y-123545600D01*
X167325040Y-123545600D02*
X164129720Y-126740920D01*
X164129720Y-126740920D02*
X164129720Y-126740920D01*
D37*
X151130000Y-71374000D02*
X151130000Y-83312000D01*
X151130000Y-83312000D02*
X151130000Y-83312000D01*
D36*
X116687600Y-109672120D02*
X116687600Y-109702600D01*
X116687600Y-94614900D02*
X116687600Y-109672120D01*
X115404900Y-93332200D02*
X116687600Y-94614900D01*
X115404900Y-92532200D02*
X115404900Y-93332200D01*
D37*
X97282000Y-58166000D02*
X97282000Y-58166000D01*
X92898402Y-58166000D02*
X97282000Y-58166000D01*
D36*
X176542700Y-115925600D02*
X176542700Y-119367300D01*
X176417100Y-115800000D02*
X176542700Y-115925600D01*
X168910000Y-115800000D02*
X176417100Y-115800000D01*
X176542700Y-119367300D02*
X176542700Y-121495600D01*
X198357600Y-84269800D02*
X199482600Y-85394800D01*
X185003440Y-84269800D02*
X188759880Y-84269800D01*
X188759880Y-84269800D02*
X198357600Y-84269800D01*
X159004000Y-44646720D02*
X159754440Y-43896280D01*
X159004000Y-47498000D02*
X159004000Y-44646720D01*
X162977600Y-95502960D02*
X162977600Y-105130600D01*
X188904880Y-69575680D02*
X162977600Y-95502960D01*
X162754440Y-45483680D02*
X162754440Y-43896280D01*
X166119001Y-48848241D02*
X162754440Y-45483680D01*
X166119001Y-63755681D02*
X166119001Y-48848241D01*
X172852233Y-70488913D02*
X166119001Y-63755681D01*
X187991647Y-70488913D02*
X172852233Y-70488913D01*
X188904880Y-69575680D02*
X187991647Y-70488913D01*
X159258000Y-40399840D02*
X162754440Y-43896280D01*
X159258000Y-31496000D02*
X159258000Y-40399840D01*
X137770680Y-40399840D02*
X159258000Y-40399840D01*
X130019960Y-48150560D02*
X137770680Y-40399840D01*
X129219960Y-48150560D02*
X130019960Y-48150560D01*
X191537700Y-100685600D02*
X190267700Y-101955600D01*
X198132700Y-100685600D02*
X194132200Y-100685600D01*
X194132200Y-100685600D02*
X191537700Y-100685600D01*
D37*
X83657239Y-36425939D02*
X82057240Y-34825940D01*
X139346658Y-36425939D02*
X83657239Y-36425939D01*
X142975760Y-32796837D02*
X139346658Y-36425939D01*
X142975760Y-31866840D02*
X142975760Y-32796837D01*
D36*
X57463280Y-54147720D02*
X56286400Y-52970840D01*
X71226680Y-54147720D02*
X57463280Y-54147720D01*
D37*
X217316606Y-35661600D02*
X221716600Y-35661600D01*
X181188280Y-35661600D02*
X217316606Y-35661600D01*
X178261440Y-32734760D02*
X181188280Y-35661600D01*
X178261440Y-31734760D02*
X178261440Y-32734760D01*
X246257606Y-63971600D02*
X251307600Y-63971600D01*
X245626606Y-63971600D02*
X246257606Y-63971600D01*
X221716600Y-35661600D02*
X221716600Y-40061594D01*
D36*
X226361903Y-47185197D02*
X226361903Y-44706897D01*
X222618300Y-50928800D02*
X226361903Y-47185197D01*
X222618300Y-51603800D02*
X222618300Y-50928800D01*
D37*
X221716600Y-40061594D02*
X226361903Y-44706897D01*
X226361903Y-44706897D02*
X245626606Y-63971600D01*
X245364000Y-35661600D02*
X245478300Y-35775900D01*
X236956600Y-35661600D02*
X245364000Y-35661600D01*
D36*
X98649900Y-90852100D02*
X99720400Y-91922600D01*
X98649900Y-89992200D02*
X98649900Y-90852100D01*
X141345920Y-91196160D02*
X140579881Y-91962199D01*
X145080880Y-91196160D02*
X141345920Y-91196160D01*
X89773540Y-72674700D02*
X82887970Y-79560270D01*
X94068900Y-72674700D02*
X89773540Y-72674700D01*
X98649900Y-79832200D02*
X98649900Y-81113740D01*
X99874070Y-82337910D02*
X105210610Y-82337910D01*
X98649900Y-81113740D02*
X99874070Y-82337910D01*
X130942080Y-74828400D02*
X130942080Y-79832200D01*
X135260080Y-70510400D02*
X130942080Y-74828400D01*
X185626812Y-81596428D02*
X185003440Y-82219800D01*
X190298581Y-76924659D02*
X185626812Y-81596428D01*
X190298581Y-68906703D02*
X190298581Y-76924659D01*
X187511179Y-66119301D02*
X190298581Y-68906703D01*
X187511179Y-62710941D02*
X187511179Y-66119301D01*
X195945760Y-54276360D02*
X187511179Y-62710941D01*
X195945760Y-52638960D02*
X195945760Y-54276360D01*
X77923198Y-50200560D02*
X124957840Y-50200560D01*
X64623539Y-36900901D02*
X77923198Y-50200560D01*
X64742279Y-32632239D02*
X64623539Y-32750979D01*
X128419960Y-50200560D02*
X129219960Y-50200560D01*
X83110217Y-32632239D02*
X64742279Y-32632239D01*
X84910210Y-34432232D02*
X83110217Y-32632239D01*
X64623539Y-32750979D02*
X64623539Y-36900901D01*
X124429528Y-34432232D02*
X84910210Y-34432232D01*
X127187960Y-31673800D02*
X124429528Y-34432232D01*
X124957840Y-50200560D02*
X128419960Y-50200560D01*
X173385480Y-64682260D02*
X173288960Y-64778780D01*
X173385480Y-62920880D02*
X173385480Y-64682260D01*
X172811440Y-36823088D02*
X177825400Y-41837048D01*
X172811440Y-31734760D02*
X172811440Y-36823088D01*
X177825400Y-60242340D02*
X173288960Y-64778780D01*
X177825400Y-41837048D02*
X177825400Y-60242340D01*
X173288960Y-67503780D02*
X173451520Y-67666340D01*
X173288960Y-66828780D02*
X173288960Y-67503780D01*
X173451520Y-67666340D02*
X173451520Y-69240400D01*
X173451520Y-69240400D02*
X173451520Y-69240400D01*
X133517640Y-63108840D02*
X133243320Y-63383160D01*
X133517640Y-58882280D02*
X133517640Y-63108840D01*
X176542700Y-113200600D02*
X177231040Y-112512260D01*
X176542700Y-113875600D02*
X176542700Y-113200600D01*
X177231040Y-112512260D02*
X177231040Y-107863640D01*
X177231040Y-107863640D02*
X177231040Y-107731560D01*
X184779920Y-101955600D02*
X184764680Y-101940360D01*
X188217700Y-101955600D02*
X184779920Y-101955600D01*
X94151340Y-104866440D02*
X99060000Y-104866440D01*
X91960700Y-102675800D02*
X94151340Y-104866440D01*
X118078272Y-128738828D02*
X118078272Y-127976608D01*
X117454900Y-129362200D02*
X118078272Y-128738828D01*
X118078272Y-127976608D02*
X118078272Y-127976608D01*
X222618300Y-54328800D02*
X223230440Y-54940940D01*
X222618300Y-53653800D02*
X222618300Y-54328800D01*
X223230440Y-54940940D02*
X223230440Y-67635120D01*
X223230440Y-67635120D02*
X223230440Y-67635120D01*
X74694000Y-52730400D02*
X71226680Y-56197720D01*
X83398360Y-52730400D02*
X74694000Y-52730400D01*
X201178160Y-85040360D02*
X201532600Y-85394800D01*
X201178160Y-70867380D02*
X201178160Y-85040360D01*
X201532600Y-94981100D02*
X216406500Y-109855000D01*
X201532600Y-85394800D02*
X201532600Y-94981100D01*
X201113500Y-64942720D02*
X201178160Y-65007380D01*
X200666460Y-64495680D02*
X201178160Y-65007380D01*
X188904880Y-64495680D02*
X200666460Y-64495680D01*
X131467640Y-64478120D02*
X130088640Y-65857120D01*
X131467640Y-58882280D02*
X131467640Y-64478120D01*
X130088640Y-65857120D02*
X127314960Y-68630800D01*
X109347000Y-92532200D02*
X109054900Y-92824300D01*
X113354900Y-92532200D02*
X109347000Y-92532200D01*
X95093910Y-84236190D02*
X95093910Y-75487410D01*
X92341700Y-86988400D02*
X95093910Y-84236190D01*
X92341700Y-88338400D02*
X92341700Y-86988400D01*
X93770700Y-60845700D02*
X93770700Y-64581020D01*
X93770700Y-64581020D02*
X98262440Y-69072760D01*
X98262440Y-72318880D02*
X95093910Y-75487410D01*
X198132700Y-97960600D02*
X196130970Y-95958870D01*
X198132700Y-98635600D02*
X198132700Y-97960600D01*
X196112980Y-95940880D02*
X195966080Y-95940880D01*
X196130970Y-95958870D02*
X196112980Y-95940880D01*
X97816472Y-71248072D02*
X98262440Y-71694040D01*
X94692272Y-71248072D02*
X97816472Y-71248072D01*
X94068900Y-70624700D02*
X94692272Y-71248072D01*
X98262440Y-69072760D02*
X98262440Y-71694040D01*
X98262440Y-71694040D02*
X98262440Y-72318880D01*
X92341700Y-88638400D02*
X92341700Y-88338400D01*
X96956880Y-92953580D02*
X93746500Y-89743200D01*
X96956880Y-98562160D02*
X96956880Y-92953580D01*
X92341700Y-88338400D02*
X93746500Y-89743200D01*
X168910000Y-103378000D02*
X171602400Y-100685600D01*
X168910000Y-112800000D02*
X168910000Y-103378000D01*
X129374900Y-127373380D02*
X130093720Y-128092200D01*
X129374900Y-121972200D02*
X129374900Y-127373380D01*
X132872480Y-125313440D02*
X130093720Y-128092200D01*
X146284562Y-125313440D02*
X132872480Y-125313440D01*
X158027600Y-108940600D02*
X158027600Y-113570402D01*
X158027600Y-113570402D02*
X146284562Y-125313440D01*
X129374900Y-117355620D02*
X123024900Y-111005620D01*
X129374900Y-118972200D02*
X129374900Y-117355620D01*
X123024900Y-102692200D02*
X121754900Y-101422200D01*
X123024900Y-107241340D02*
X123024900Y-102692200D01*
X104735365Y-55137520D02*
X104169680Y-55137520D01*
X115247420Y-129204720D02*
X115404900Y-129362200D01*
X115649900Y-129117200D02*
X115404900Y-129362200D01*
X115649900Y-115392200D02*
X115649900Y-129117200D01*
X137310080Y-81375360D02*
X142348640Y-86413920D01*
X137310080Y-70510400D02*
X137310080Y-81375360D01*
X142348640Y-86413920D02*
X147130880Y-91196160D01*
X115404900Y-129362200D02*
X108518960Y-129362200D01*
X108518960Y-129362200D02*
X108518960Y-129362200D01*
X105095724Y-55137520D02*
X104169680Y-55137520D01*
X131741068Y-55137520D02*
X105095724Y-55137520D01*
X134686350Y-58082802D02*
X131741068Y-55137520D01*
X134686350Y-67086670D02*
X134686350Y-58082802D01*
X137310080Y-69710400D02*
X134686350Y-67086670D01*
X137310080Y-70510400D02*
X137310080Y-69710400D01*
X116273272Y-114768828D02*
X115649900Y-115392200D01*
X122319940Y-108722160D02*
X116273272Y-114768828D01*
X129604880Y-108722160D02*
X122319940Y-108722160D01*
X147130880Y-91196160D02*
X129604880Y-108722160D01*
X59323800Y-58420840D02*
X56286400Y-58420840D01*
X78975128Y-58420840D02*
X59323800Y-58420840D01*
X82125568Y-55270400D02*
X78975128Y-58420840D01*
X83398360Y-55270400D02*
X82125568Y-55270400D01*
X96599900Y-79832200D02*
X96599900Y-87672020D01*
X96599900Y-87672020D02*
X96599900Y-89992200D01*
X125044200Y-100022900D02*
X124294900Y-100772200D01*
X125044200Y-97063560D02*
X125044200Y-100022900D01*
X186823300Y-113665000D02*
X186823300Y-113665000D01*
X211456500Y-113665000D02*
X186823300Y-113665000D01*
X122459215Y-120276620D02*
X123024900Y-120276620D01*
X121784320Y-120276620D02*
X122459215Y-120276620D01*
X117699900Y-116192200D02*
X121784320Y-120276620D01*
X117699900Y-115392200D02*
X117699900Y-116192200D01*
X201178160Y-67057380D02*
X201178160Y-68817380D01*
X200915380Y-67320160D02*
X201178160Y-67057380D01*
X197693280Y-67320160D02*
X200915380Y-67320160D01*
M02*
