%TF.GenerationSoftware,KiCad,Pcbnew,5.1.9*%
%TF.CreationDate,2021-02-16T23:46:53-03:00*%
%TF.ProjectId,positiva,706f7369-7469-4766-912e-6b696361645f,rev?*%
%TF.SameCoordinates,Original*%
%TF.FileFunction,Soldermask,Top*%
%TF.FilePolarity,Negative*%
%FSLAX46Y46*%
G04 Gerber Fmt 4.6, Leading zero omitted, Abs format (unit mm)*
G04 Created by KiCad (PCBNEW 5.1.9) date 2021-02-16 23:46:53*
%MOMM*%
%LPD*%
G01*
G04 APERTURE LIST*
%ADD10C,1.440000*%
%ADD11C,1.600000*%
%ADD12R,1.600000X1.600000*%
%ADD13O,1.800000X1.275000*%
%ADD14R,1.800000X1.275000*%
%ADD15C,3.600000*%
%ADD16C,10.160000*%
%ADD17O,3.200000X3.200000*%
%ADD18R,3.200000X3.200000*%
%ADD19C,2.400000*%
%ADD20R,2.400000X2.400000*%
G04 APERTURE END LIST*
%TO.C,C2*%
G36*
G01*
X135520000Y-139715001D02*
X135520000Y-138414999D01*
G75*
G02*
X135769999Y-138165000I249999J0D01*
G01*
X136595001Y-138165000D01*
G75*
G02*
X136845000Y-138414999I0J-249999D01*
G01*
X136845000Y-139715001D01*
G75*
G02*
X136595001Y-139965000I-249999J0D01*
G01*
X135769999Y-139965000D01*
G75*
G02*
X135520000Y-139715001I0J249999D01*
G01*
G37*
G36*
G01*
X132395000Y-139715001D02*
X132395000Y-138414999D01*
G75*
G02*
X132644999Y-138165000I249999J0D01*
G01*
X133470001Y-138165000D01*
G75*
G02*
X133720000Y-138414999I0J-249999D01*
G01*
X133720000Y-139715001D01*
G75*
G02*
X133470001Y-139965000I-249999J0D01*
G01*
X132644999Y-139965000D01*
G75*
G02*
X132395000Y-139715001I0J249999D01*
G01*
G37*
%TD*%
D10*
%TO.C,RV1*%
X169545000Y-108585000D03*
X167005000Y-108585000D03*
X164465000Y-108585000D03*
%TD*%
D11*
%TO.C,C1*%
X120650000Y-121595000D03*
D12*
X120650000Y-125095000D03*
%TD*%
D13*
%TO.C,U1*%
X139065000Y-124010000D03*
X139065000Y-125710000D03*
X139065000Y-127410000D03*
X139065000Y-129110000D03*
D14*
X139065000Y-130810000D03*
%TD*%
D15*
%TO.C,L1*%
X167170000Y-128905000D03*
X153670000Y-128905000D03*
%TD*%
D16*
%TO.C,J4*%
X155575000Y-153035000D03*
%TD*%
%TO.C,J3*%
X170180000Y-152400000D03*
%TD*%
%TO.C,J2*%
X125730000Y-153670000D03*
%TD*%
%TO.C,J1*%
X125095000Y-140335000D03*
%TD*%
D17*
%TO.C,D1*%
X146050000Y-144145000D03*
D18*
X146050000Y-128905000D03*
%TD*%
D19*
%TO.C,C4*%
X187205000Y-140335000D03*
D20*
X179705000Y-140335000D03*
%TD*%
D19*
%TO.C,C3*%
X187205000Y-121285000D03*
D20*
X179705000Y-121285000D03*
%TD*%
M02*
