M48
; DRILL file {KiCad 5.1.9} date Tue Feb 16 23:44:47 2021
; FORMAT={-:-/ absolute / inch / decimal}
; #@! TF.CreationDate,2021-02-16T23:44:47-03:00
; #@! TF.GenerationSoftware,Kicad,Pcbnew,5.1.9
FMAT,2
INCH
T1C0.0315
T2C0.0433
T3C0.0472
T4C0.0630
T5C0.0709
T6C0.2402
%
G90
G05
T1
X4.75Y-4.7872
X4.75Y-4.925
X6.475Y-4.275
X6.575Y-4.275
X6.675Y-4.275
T2
X5.475Y-4.8823
X5.475Y-4.9492
X5.475Y-5.0161
X5.475Y-5.0831
X5.475Y-5.15
T3
X7.075Y-4.775
X7.075Y-5.525
X7.3703Y-4.775
X7.3703Y-5.525
T4
X5.75Y-5.075
X5.75Y-5.675
T5
X6.05Y-5.075
X6.5815Y-5.075
T6
X4.925Y-5.525
X4.95Y-6.05
X6.125Y-6.025
X6.7Y-6.0
T0
M30
