%TF.GenerationSoftware,KiCad,Pcbnew,5.1.9*%
%TF.CreationDate,2021-02-16T23:41:28-03:00*%
%TF.ProjectId,positiva,706f7369-7469-4766-912e-6b696361645f,rev?*%
%TF.SameCoordinates,Original*%
%TF.FileFunction,Legend,Top*%
%TF.FilePolarity,Positive*%
%FSLAX46Y46*%
G04 Gerber Fmt 4.6, Leading zero omitted, Abs format (unit mm)*
G04 Created by KiCad (PCBNEW 5.1.9) date 2021-02-16 23:41:28*
%MOMM*%
%LPD*%
G01*
G04 APERTURE LIST*
%ADD10C,0.120000*%
%ADD11C,0.150000*%
G04 APERTURE END LIST*
D10*
%TO.C,C2*%
X133908748Y-138155000D02*
X135331252Y-138155000D01*
X133908748Y-139975000D02*
X135331252Y-139975000D01*
%TO.C,RV1*%
X162120000Y-111115000D02*
X162120000Y-106045000D01*
X171890000Y-111115000D02*
X171890000Y-106045000D01*
X171890000Y-106045000D02*
X162120000Y-106045000D01*
X171890000Y-111115000D02*
X162120000Y-111115000D01*
%TO.C,C1*%
X117935000Y-127354698D02*
X118735000Y-127354698D01*
X118335000Y-127754698D02*
X118335000Y-126954698D01*
X120117000Y-119264000D02*
X121183000Y-119264000D01*
X119882000Y-119304000D02*
X121418000Y-119304000D01*
X119702000Y-119344000D02*
X121598000Y-119344000D01*
X119552000Y-119384000D02*
X121748000Y-119384000D01*
X119421000Y-119424000D02*
X121879000Y-119424000D01*
X119304000Y-119464000D02*
X121996000Y-119464000D01*
X119197000Y-119504000D02*
X122103000Y-119504000D01*
X119098000Y-119544000D02*
X122202000Y-119544000D01*
X119005000Y-119584000D02*
X122295000Y-119584000D01*
X118919000Y-119624000D02*
X122381000Y-119624000D01*
X118837000Y-119664000D02*
X122463000Y-119664000D01*
X118760000Y-119704000D02*
X122540000Y-119704000D01*
X118686000Y-119744000D02*
X122614000Y-119744000D01*
X118616000Y-119784000D02*
X122684000Y-119784000D01*
X118548000Y-119824000D02*
X122752000Y-119824000D01*
X118484000Y-119864000D02*
X122816000Y-119864000D01*
X118422000Y-119904000D02*
X122878000Y-119904000D01*
X118363000Y-119944000D02*
X122937000Y-119944000D01*
X118305000Y-119984000D02*
X122995000Y-119984000D01*
X118250000Y-120024000D02*
X123050000Y-120024000D01*
X118196000Y-120064000D02*
X123104000Y-120064000D01*
X118145000Y-120104000D02*
X123155000Y-120104000D01*
X118094000Y-120144000D02*
X123206000Y-120144000D01*
X118046000Y-120184000D02*
X123254000Y-120184000D01*
X117999000Y-120224000D02*
X123301000Y-120224000D01*
X117953000Y-120264000D02*
X123347000Y-120264000D01*
X117909000Y-120304000D02*
X123391000Y-120304000D01*
X117866000Y-120344000D02*
X123434000Y-120344000D01*
X117824000Y-120384000D02*
X123476000Y-120384000D01*
X117783000Y-120424000D02*
X123517000Y-120424000D01*
X117743000Y-120464000D02*
X123557000Y-120464000D01*
X117705000Y-120504000D02*
X123595000Y-120504000D01*
X117667000Y-120544000D02*
X123633000Y-120544000D01*
X121690000Y-120584000D02*
X123669000Y-120584000D01*
X117631000Y-120584000D02*
X119610000Y-120584000D01*
X121690000Y-120624000D02*
X123705000Y-120624000D01*
X117595000Y-120624000D02*
X119610000Y-120624000D01*
X121690000Y-120664000D02*
X123740000Y-120664000D01*
X117560000Y-120664000D02*
X119610000Y-120664000D01*
X121690000Y-120704000D02*
X123774000Y-120704000D01*
X117526000Y-120704000D02*
X119610000Y-120704000D01*
X121690000Y-120744000D02*
X123806000Y-120744000D01*
X117494000Y-120744000D02*
X119610000Y-120744000D01*
X121690000Y-120784000D02*
X123839000Y-120784000D01*
X117461000Y-120784000D02*
X119610000Y-120784000D01*
X121690000Y-120824000D02*
X123870000Y-120824000D01*
X117430000Y-120824000D02*
X119610000Y-120824000D01*
X121690000Y-120864000D02*
X123900000Y-120864000D01*
X117400000Y-120864000D02*
X119610000Y-120864000D01*
X121690000Y-120904000D02*
X123930000Y-120904000D01*
X117370000Y-120904000D02*
X119610000Y-120904000D01*
X121690000Y-120944000D02*
X123959000Y-120944000D01*
X117341000Y-120944000D02*
X119610000Y-120944000D01*
X121690000Y-120984000D02*
X123988000Y-120984000D01*
X117312000Y-120984000D02*
X119610000Y-120984000D01*
X121690000Y-121024000D02*
X124015000Y-121024000D01*
X117285000Y-121024000D02*
X119610000Y-121024000D01*
X121690000Y-121064000D02*
X124042000Y-121064000D01*
X117258000Y-121064000D02*
X119610000Y-121064000D01*
X121690000Y-121104000D02*
X124068000Y-121104000D01*
X117232000Y-121104000D02*
X119610000Y-121104000D01*
X121690000Y-121144000D02*
X124094000Y-121144000D01*
X117206000Y-121144000D02*
X119610000Y-121144000D01*
X121690000Y-121184000D02*
X124119000Y-121184000D01*
X117181000Y-121184000D02*
X119610000Y-121184000D01*
X121690000Y-121224000D02*
X124143000Y-121224000D01*
X117157000Y-121224000D02*
X119610000Y-121224000D01*
X121690000Y-121264000D02*
X124167000Y-121264000D01*
X117133000Y-121264000D02*
X119610000Y-121264000D01*
X121690000Y-121304000D02*
X124190000Y-121304000D01*
X117110000Y-121304000D02*
X119610000Y-121304000D01*
X121690000Y-121344000D02*
X124212000Y-121344000D01*
X117088000Y-121344000D02*
X119610000Y-121344000D01*
X121690000Y-121384000D02*
X124234000Y-121384000D01*
X117066000Y-121384000D02*
X119610000Y-121384000D01*
X121690000Y-121424000D02*
X124256000Y-121424000D01*
X117044000Y-121424000D02*
X119610000Y-121424000D01*
X121690000Y-121464000D02*
X124277000Y-121464000D01*
X117023000Y-121464000D02*
X119610000Y-121464000D01*
X121690000Y-121504000D02*
X124297000Y-121504000D01*
X117003000Y-121504000D02*
X119610000Y-121504000D01*
X121690000Y-121544000D02*
X124316000Y-121544000D01*
X116984000Y-121544000D02*
X119610000Y-121544000D01*
X121690000Y-121584000D02*
X124336000Y-121584000D01*
X116964000Y-121584000D02*
X119610000Y-121584000D01*
X121690000Y-121624000D02*
X124354000Y-121624000D01*
X116946000Y-121624000D02*
X119610000Y-121624000D01*
X121690000Y-121664000D02*
X124372000Y-121664000D01*
X116928000Y-121664000D02*
X119610000Y-121664000D01*
X121690000Y-121704000D02*
X124390000Y-121704000D01*
X116910000Y-121704000D02*
X119610000Y-121704000D01*
X121690000Y-121744000D02*
X124407000Y-121744000D01*
X116893000Y-121744000D02*
X119610000Y-121744000D01*
X121690000Y-121784000D02*
X124424000Y-121784000D01*
X116876000Y-121784000D02*
X119610000Y-121784000D01*
X121690000Y-121824000D02*
X124440000Y-121824000D01*
X116860000Y-121824000D02*
X119610000Y-121824000D01*
X121690000Y-121864000D02*
X124455000Y-121864000D01*
X116845000Y-121864000D02*
X119610000Y-121864000D01*
X121690000Y-121904000D02*
X124471000Y-121904000D01*
X116829000Y-121904000D02*
X119610000Y-121904000D01*
X121690000Y-121944000D02*
X124485000Y-121944000D01*
X116815000Y-121944000D02*
X119610000Y-121944000D01*
X121690000Y-121984000D02*
X124500000Y-121984000D01*
X116800000Y-121984000D02*
X119610000Y-121984000D01*
X121690000Y-122024000D02*
X124513000Y-122024000D01*
X116787000Y-122024000D02*
X119610000Y-122024000D01*
X121690000Y-122064000D02*
X124527000Y-122064000D01*
X116773000Y-122064000D02*
X119610000Y-122064000D01*
X121690000Y-122104000D02*
X124539000Y-122104000D01*
X116761000Y-122104000D02*
X119610000Y-122104000D01*
X121690000Y-122144000D02*
X124552000Y-122144000D01*
X116748000Y-122144000D02*
X119610000Y-122144000D01*
X121690000Y-122184000D02*
X124564000Y-122184000D01*
X116736000Y-122184000D02*
X119610000Y-122184000D01*
X121690000Y-122224000D02*
X124575000Y-122224000D01*
X116725000Y-122224000D02*
X119610000Y-122224000D01*
X121690000Y-122264000D02*
X124586000Y-122264000D01*
X116714000Y-122264000D02*
X119610000Y-122264000D01*
X121690000Y-122304000D02*
X124597000Y-122304000D01*
X116703000Y-122304000D02*
X119610000Y-122304000D01*
X121690000Y-122344000D02*
X124607000Y-122344000D01*
X116693000Y-122344000D02*
X119610000Y-122344000D01*
X121690000Y-122384000D02*
X124617000Y-122384000D01*
X116683000Y-122384000D02*
X119610000Y-122384000D01*
X121690000Y-122424000D02*
X124626000Y-122424000D01*
X116674000Y-122424000D02*
X119610000Y-122424000D01*
X121690000Y-122464000D02*
X124635000Y-122464000D01*
X116665000Y-122464000D02*
X119610000Y-122464000D01*
X121690000Y-122504000D02*
X124644000Y-122504000D01*
X116656000Y-122504000D02*
X119610000Y-122504000D01*
X121690000Y-122544000D02*
X124652000Y-122544000D01*
X116648000Y-122544000D02*
X119610000Y-122544000D01*
X121690000Y-122584000D02*
X124660000Y-122584000D01*
X116640000Y-122584000D02*
X119610000Y-122584000D01*
X121690000Y-122624000D02*
X124667000Y-122624000D01*
X116633000Y-122624000D02*
X119610000Y-122624000D01*
X116626000Y-122665000D02*
X124674000Y-122665000D01*
X116620000Y-122705000D02*
X124680000Y-122705000D01*
X116613000Y-122745000D02*
X124687000Y-122745000D01*
X116608000Y-122785000D02*
X124692000Y-122785000D01*
X116602000Y-122825000D02*
X124698000Y-122825000D01*
X116598000Y-122865000D02*
X124702000Y-122865000D01*
X116593000Y-122905000D02*
X124707000Y-122905000D01*
X116589000Y-122945000D02*
X124711000Y-122945000D01*
X116585000Y-122985000D02*
X124715000Y-122985000D01*
X116582000Y-123025000D02*
X124718000Y-123025000D01*
X116579000Y-123065000D02*
X124721000Y-123065000D01*
X116576000Y-123105000D02*
X124724000Y-123105000D01*
X116574000Y-123145000D02*
X124726000Y-123145000D01*
X116573000Y-123185000D02*
X124727000Y-123185000D01*
X116571000Y-123225000D02*
X124729000Y-123225000D01*
X116570000Y-123265000D02*
X124730000Y-123265000D01*
X116570000Y-123305000D02*
X124730000Y-123305000D01*
X116570000Y-123345000D02*
X124730000Y-123345000D01*
X124770000Y-123345000D02*
G75*
G03*
X124770000Y-123345000I-4120000J0D01*
G01*
%TO.C,U1*%
X135795000Y-132531000D02*
X135795000Y-122290000D01*
X140436000Y-132531000D02*
X140436000Y-122290000D01*
X135795000Y-132531000D02*
X140436000Y-132531000D01*
X135795000Y-122290000D02*
X140436000Y-122290000D01*
X137305000Y-132531000D02*
X137305000Y-122290000D01*
X135795000Y-129260000D02*
X137305000Y-129260000D01*
X135795000Y-125560000D02*
X137305000Y-125560000D01*
%TO.C,L1*%
X152350000Y-144925000D02*
X152350000Y-130513000D01*
X152350000Y-127297000D02*
X152350000Y-112885000D01*
X168490000Y-144925000D02*
X168490000Y-130513000D01*
X168490000Y-127297000D02*
X168490000Y-112885000D01*
X152350000Y-144925000D02*
X168490000Y-144925000D01*
X152350000Y-112885000D02*
X168490000Y-112885000D01*
%TO.C,J4*%
X161075000Y-153035000D02*
G75*
G03*
X161075000Y-153035000I-5500000J0D01*
G01*
%TO.C,J3*%
X175680000Y-152400000D02*
G75*
G03*
X175680000Y-152400000I-5500000J0D01*
G01*
%TO.C,J2*%
X131230000Y-153670000D02*
G75*
G03*
X131230000Y-153670000I-5500000J0D01*
G01*
%TO.C,J1*%
X130595000Y-140335000D02*
G75*
G03*
X130595000Y-140335000I-5500000J0D01*
G01*
%TO.C,D1*%
X148770000Y-131655000D02*
X143330000Y-131655000D01*
X143330000Y-131655000D02*
X143330000Y-141395000D01*
X143330000Y-141395000D02*
X148770000Y-141395000D01*
X148770000Y-141395000D02*
X148770000Y-131655000D01*
X146050000Y-130745000D02*
X146050000Y-131655000D01*
X146050000Y-142305000D02*
X146050000Y-141395000D01*
X148770000Y-133200000D02*
X143330000Y-133200000D01*
X148770000Y-133320000D02*
X143330000Y-133320000D01*
X148770000Y-133080000D02*
X143330000Y-133080000D01*
%TO.C,C4*%
X191575000Y-140335000D02*
G75*
G03*
X191575000Y-140335000I-8120000J0D01*
G01*
X183455000Y-132254000D02*
X183455000Y-148416000D01*
X183495000Y-132255000D02*
X183495000Y-148415000D01*
X183535000Y-132255000D02*
X183535000Y-148415000D01*
X183575000Y-132255000D02*
X183575000Y-148415000D01*
X183615000Y-132256000D02*
X183615000Y-148414000D01*
X183655000Y-132257000D02*
X183655000Y-148413000D01*
X183695000Y-132258000D02*
X183695000Y-148412000D01*
X183735000Y-132259000D02*
X183735000Y-148411000D01*
X183775000Y-132261000D02*
X183775000Y-148409000D01*
X183815000Y-132262000D02*
X183815000Y-148408000D01*
X183855000Y-132264000D02*
X183855000Y-148406000D01*
X183895000Y-132266000D02*
X183895000Y-148404000D01*
X183935000Y-132269000D02*
X183935000Y-148401000D01*
X183975000Y-132271000D02*
X183975000Y-148399000D01*
X184015000Y-132274000D02*
X184015000Y-148396000D01*
X184055000Y-132277000D02*
X184055000Y-148393000D01*
X184095000Y-132280000D02*
X184095000Y-148390000D01*
X184135000Y-132283000D02*
X184135000Y-148387000D01*
X184176000Y-132286000D02*
X184176000Y-148384000D01*
X184216000Y-132290000D02*
X184216000Y-148380000D01*
X184256000Y-132294000D02*
X184256000Y-148376000D01*
X184296000Y-132298000D02*
X184296000Y-148372000D01*
X184336000Y-132302000D02*
X184336000Y-148368000D01*
X184376000Y-132307000D02*
X184376000Y-148363000D01*
X184416000Y-132311000D02*
X184416000Y-148359000D01*
X184456000Y-132316000D02*
X184456000Y-148354000D01*
X184496000Y-132321000D02*
X184496000Y-148349000D01*
X184536000Y-132327000D02*
X184536000Y-148343000D01*
X184576000Y-132332000D02*
X184576000Y-148338000D01*
X184616000Y-132338000D02*
X184616000Y-148332000D01*
X184656000Y-132344000D02*
X184656000Y-148326000D01*
X184696000Y-132350000D02*
X184696000Y-148320000D01*
X184736000Y-132356000D02*
X184736000Y-148314000D01*
X184776000Y-132363000D02*
X184776000Y-148307000D01*
X184816000Y-132369000D02*
X184816000Y-148301000D01*
X184856000Y-132376000D02*
X184856000Y-148294000D01*
X184896000Y-132383000D02*
X184896000Y-148287000D01*
X184936000Y-132391000D02*
X184936000Y-148279000D01*
X184976000Y-132398000D02*
X184976000Y-148272000D01*
X185016000Y-132406000D02*
X185016000Y-148264000D01*
X185056000Y-132414000D02*
X185056000Y-148256000D01*
X185096000Y-132422000D02*
X185096000Y-148248000D01*
X185136000Y-132430000D02*
X185136000Y-148240000D01*
X185176000Y-132439000D02*
X185176000Y-148231000D01*
X185216000Y-132448000D02*
X185216000Y-148222000D01*
X185256000Y-132457000D02*
X185256000Y-148213000D01*
X185296000Y-132466000D02*
X185296000Y-148204000D01*
X185336000Y-132475000D02*
X185336000Y-148195000D01*
X185376000Y-132485000D02*
X185376000Y-148185000D01*
X185416000Y-132495000D02*
X185416000Y-148175000D01*
X185456000Y-132505000D02*
X185456000Y-148165000D01*
X185496000Y-132515000D02*
X185496000Y-148155000D01*
X185536000Y-132525000D02*
X185536000Y-148145000D01*
X185576000Y-132536000D02*
X185576000Y-148134000D01*
X185616000Y-132547000D02*
X185616000Y-148123000D01*
X185656000Y-132558000D02*
X185656000Y-148112000D01*
X185696000Y-132570000D02*
X185696000Y-148100000D01*
X185736000Y-132581000D02*
X185736000Y-148089000D01*
X185776000Y-132593000D02*
X185776000Y-138895000D01*
X185776000Y-141775000D02*
X185776000Y-148077000D01*
X185816000Y-132605000D02*
X185816000Y-138895000D01*
X185816000Y-141775000D02*
X185816000Y-148065000D01*
X185856000Y-132617000D02*
X185856000Y-138895000D01*
X185856000Y-141775000D02*
X185856000Y-148053000D01*
X185896000Y-132630000D02*
X185896000Y-138895000D01*
X185896000Y-141775000D02*
X185896000Y-148040000D01*
X185936000Y-132642000D02*
X185936000Y-138895000D01*
X185936000Y-141775000D02*
X185936000Y-148028000D01*
X185976000Y-132655000D02*
X185976000Y-138895000D01*
X185976000Y-141775000D02*
X185976000Y-148015000D01*
X186016000Y-132669000D02*
X186016000Y-138895000D01*
X186016000Y-141775000D02*
X186016000Y-148001000D01*
X186056000Y-132682000D02*
X186056000Y-138895000D01*
X186056000Y-141775000D02*
X186056000Y-147988000D01*
X186096000Y-132696000D02*
X186096000Y-138895000D01*
X186096000Y-141775000D02*
X186096000Y-147974000D01*
X186136000Y-132710000D02*
X186136000Y-138895000D01*
X186136000Y-141775000D02*
X186136000Y-147960000D01*
X186176000Y-132724000D02*
X186176000Y-138895000D01*
X186176000Y-141775000D02*
X186176000Y-147946000D01*
X186216000Y-132738000D02*
X186216000Y-138895000D01*
X186216000Y-141775000D02*
X186216000Y-147932000D01*
X186256000Y-132753000D02*
X186256000Y-138895000D01*
X186256000Y-141775000D02*
X186256000Y-147917000D01*
X186296000Y-132767000D02*
X186296000Y-138895000D01*
X186296000Y-141775000D02*
X186296000Y-147903000D01*
X186336000Y-132782000D02*
X186336000Y-138895000D01*
X186336000Y-141775000D02*
X186336000Y-147888000D01*
X186376000Y-132798000D02*
X186376000Y-138895000D01*
X186376000Y-141775000D02*
X186376000Y-147872000D01*
X186416000Y-132813000D02*
X186416000Y-138895000D01*
X186416000Y-141775000D02*
X186416000Y-147857000D01*
X186456000Y-132829000D02*
X186456000Y-138895000D01*
X186456000Y-141775000D02*
X186456000Y-147841000D01*
X186496000Y-132845000D02*
X186496000Y-138895000D01*
X186496000Y-141775000D02*
X186496000Y-147825000D01*
X186536000Y-132861000D02*
X186536000Y-138895000D01*
X186536000Y-141775000D02*
X186536000Y-147809000D01*
X186576000Y-132878000D02*
X186576000Y-138895000D01*
X186576000Y-141775000D02*
X186576000Y-147792000D01*
X186616000Y-132895000D02*
X186616000Y-138895000D01*
X186616000Y-141775000D02*
X186616000Y-147775000D01*
X186656000Y-132912000D02*
X186656000Y-138895000D01*
X186656000Y-141775000D02*
X186656000Y-147758000D01*
X186696000Y-132929000D02*
X186696000Y-138895000D01*
X186696000Y-141775000D02*
X186696000Y-147741000D01*
X186736000Y-132946000D02*
X186736000Y-138895000D01*
X186736000Y-141775000D02*
X186736000Y-147724000D01*
X186776000Y-132964000D02*
X186776000Y-138895000D01*
X186776000Y-141775000D02*
X186776000Y-147706000D01*
X186816000Y-132982000D02*
X186816000Y-138895000D01*
X186816000Y-141775000D02*
X186816000Y-147688000D01*
X186856000Y-133001000D02*
X186856000Y-138895000D01*
X186856000Y-141775000D02*
X186856000Y-147669000D01*
X186896000Y-133019000D02*
X186896000Y-138895000D01*
X186896000Y-141775000D02*
X186896000Y-147651000D01*
X186936000Y-133038000D02*
X186936000Y-138895000D01*
X186936000Y-141775000D02*
X186936000Y-147632000D01*
X186976000Y-133057000D02*
X186976000Y-138895000D01*
X186976000Y-141775000D02*
X186976000Y-147613000D01*
X187016000Y-133077000D02*
X187016000Y-138895000D01*
X187016000Y-141775000D02*
X187016000Y-147593000D01*
X187056000Y-133096000D02*
X187056000Y-138895000D01*
X187056000Y-141775000D02*
X187056000Y-147574000D01*
X187096000Y-133116000D02*
X187096000Y-138895000D01*
X187096000Y-141775000D02*
X187096000Y-147554000D01*
X187136000Y-133136000D02*
X187136000Y-138895000D01*
X187136000Y-141775000D02*
X187136000Y-147534000D01*
X187176000Y-133157000D02*
X187176000Y-138895000D01*
X187176000Y-141775000D02*
X187176000Y-147513000D01*
X187216000Y-133178000D02*
X187216000Y-138895000D01*
X187216000Y-141775000D02*
X187216000Y-147492000D01*
X187256000Y-133199000D02*
X187256000Y-138895000D01*
X187256000Y-141775000D02*
X187256000Y-147471000D01*
X187296000Y-133220000D02*
X187296000Y-138895000D01*
X187296000Y-141775000D02*
X187296000Y-147450000D01*
X187336000Y-133241000D02*
X187336000Y-138895000D01*
X187336000Y-141775000D02*
X187336000Y-147429000D01*
X187376000Y-133263000D02*
X187376000Y-138895000D01*
X187376000Y-141775000D02*
X187376000Y-147407000D01*
X187416000Y-133286000D02*
X187416000Y-138895000D01*
X187416000Y-141775000D02*
X187416000Y-147384000D01*
X187456000Y-133308000D02*
X187456000Y-138895000D01*
X187456000Y-141775000D02*
X187456000Y-147362000D01*
X187496000Y-133331000D02*
X187496000Y-138895000D01*
X187496000Y-141775000D02*
X187496000Y-147339000D01*
X187536000Y-133354000D02*
X187536000Y-138895000D01*
X187536000Y-141775000D02*
X187536000Y-147316000D01*
X187576000Y-133377000D02*
X187576000Y-138895000D01*
X187576000Y-141775000D02*
X187576000Y-147293000D01*
X187616000Y-133401000D02*
X187616000Y-138895000D01*
X187616000Y-141775000D02*
X187616000Y-147269000D01*
X187656000Y-133425000D02*
X187656000Y-138895000D01*
X187656000Y-141775000D02*
X187656000Y-147245000D01*
X187696000Y-133449000D02*
X187696000Y-138895000D01*
X187696000Y-141775000D02*
X187696000Y-147221000D01*
X187736000Y-133474000D02*
X187736000Y-138895000D01*
X187736000Y-141775000D02*
X187736000Y-147196000D01*
X187776000Y-133499000D02*
X187776000Y-138895000D01*
X187776000Y-141775000D02*
X187776000Y-147171000D01*
X187816000Y-133524000D02*
X187816000Y-138895000D01*
X187816000Y-141775000D02*
X187816000Y-147146000D01*
X187856000Y-133550000D02*
X187856000Y-138895000D01*
X187856000Y-141775000D02*
X187856000Y-147120000D01*
X187896000Y-133576000D02*
X187896000Y-138895000D01*
X187896000Y-141775000D02*
X187896000Y-147094000D01*
X187936000Y-133602000D02*
X187936000Y-138895000D01*
X187936000Y-141775000D02*
X187936000Y-147068000D01*
X187976000Y-133629000D02*
X187976000Y-138895000D01*
X187976000Y-141775000D02*
X187976000Y-147041000D01*
X188016000Y-133656000D02*
X188016000Y-138895000D01*
X188016000Y-141775000D02*
X188016000Y-147014000D01*
X188056000Y-133683000D02*
X188056000Y-138895000D01*
X188056000Y-141775000D02*
X188056000Y-146987000D01*
X188096000Y-133711000D02*
X188096000Y-138895000D01*
X188096000Y-141775000D02*
X188096000Y-146959000D01*
X188136000Y-133739000D02*
X188136000Y-138895000D01*
X188136000Y-141775000D02*
X188136000Y-146931000D01*
X188176000Y-133767000D02*
X188176000Y-138895000D01*
X188176000Y-141775000D02*
X188176000Y-146903000D01*
X188216000Y-133796000D02*
X188216000Y-138895000D01*
X188216000Y-141775000D02*
X188216000Y-146874000D01*
X188256000Y-133825000D02*
X188256000Y-138895000D01*
X188256000Y-141775000D02*
X188256000Y-146845000D01*
X188296000Y-133855000D02*
X188296000Y-138895000D01*
X188296000Y-141775000D02*
X188296000Y-146815000D01*
X188336000Y-133885000D02*
X188336000Y-138895000D01*
X188336000Y-141775000D02*
X188336000Y-146785000D01*
X188376000Y-133915000D02*
X188376000Y-138895000D01*
X188376000Y-141775000D02*
X188376000Y-146755000D01*
X188416000Y-133945000D02*
X188416000Y-138895000D01*
X188416000Y-141775000D02*
X188416000Y-146725000D01*
X188456000Y-133977000D02*
X188456000Y-138895000D01*
X188456000Y-141775000D02*
X188456000Y-146693000D01*
X188496000Y-134008000D02*
X188496000Y-138895000D01*
X188496000Y-141775000D02*
X188496000Y-146662000D01*
X188536000Y-134040000D02*
X188536000Y-138895000D01*
X188536000Y-141775000D02*
X188536000Y-146630000D01*
X188576000Y-134072000D02*
X188576000Y-138895000D01*
X188576000Y-141775000D02*
X188576000Y-146598000D01*
X188616000Y-134105000D02*
X188616000Y-138895000D01*
X188616000Y-141775000D02*
X188616000Y-146565000D01*
X188656000Y-134138000D02*
X188656000Y-146532000D01*
X188696000Y-134172000D02*
X188696000Y-146498000D01*
X188736000Y-134206000D02*
X188736000Y-146464000D01*
X188776000Y-134240000D02*
X188776000Y-146430000D01*
X188816000Y-134275000D02*
X188816000Y-146395000D01*
X188856000Y-134310000D02*
X188856000Y-146360000D01*
X188896000Y-134346000D02*
X188896000Y-146324000D01*
X188936000Y-134383000D02*
X188936000Y-146287000D01*
X188976000Y-134419000D02*
X188976000Y-146251000D01*
X189016000Y-134457000D02*
X189016000Y-146213000D01*
X189056000Y-134495000D02*
X189056000Y-146175000D01*
X189096000Y-134533000D02*
X189096000Y-146137000D01*
X189136000Y-134572000D02*
X189136000Y-146098000D01*
X189176000Y-134611000D02*
X189176000Y-146059000D01*
X189216000Y-134651000D02*
X189216000Y-146019000D01*
X189256000Y-134692000D02*
X189256000Y-145978000D01*
X189296000Y-134733000D02*
X189296000Y-145937000D01*
X189336000Y-134775000D02*
X189336000Y-145895000D01*
X189376000Y-134817000D02*
X189376000Y-145853000D01*
X189416000Y-134860000D02*
X189416000Y-145810000D01*
X189456000Y-134903000D02*
X189456000Y-145767000D01*
X189496000Y-134947000D02*
X189496000Y-145723000D01*
X189536000Y-134992000D02*
X189536000Y-145678000D01*
X189576000Y-135038000D02*
X189576000Y-145632000D01*
X189616000Y-135084000D02*
X189616000Y-145586000D01*
X189656000Y-135131000D02*
X189656000Y-145539000D01*
X189696000Y-135179000D02*
X189696000Y-145491000D01*
X189736000Y-135227000D02*
X189736000Y-145443000D01*
X189776000Y-135276000D02*
X189776000Y-145394000D01*
X189816000Y-135326000D02*
X189816000Y-145344000D01*
X189856000Y-135377000D02*
X189856000Y-145293000D01*
X189896000Y-135429000D02*
X189896000Y-145241000D01*
X189936000Y-135481000D02*
X189936000Y-145189000D01*
X189976000Y-135535000D02*
X189976000Y-145135000D01*
X190016000Y-135589000D02*
X190016000Y-145081000D01*
X190056000Y-135644000D02*
X190056000Y-145026000D01*
X190096000Y-135701000D02*
X190096000Y-144969000D01*
X190136000Y-135758000D02*
X190136000Y-144912000D01*
X190176000Y-135816000D02*
X190176000Y-144854000D01*
X190216000Y-135876000D02*
X190216000Y-144794000D01*
X190256000Y-135937000D02*
X190256000Y-144733000D01*
X190296000Y-135999000D02*
X190296000Y-144671000D01*
X190336000Y-136062000D02*
X190336000Y-144608000D01*
X190376000Y-136126000D02*
X190376000Y-144544000D01*
X190416000Y-136192000D02*
X190416000Y-144478000D01*
X190456000Y-136259000D02*
X190456000Y-144411000D01*
X190496000Y-136328000D02*
X190496000Y-144342000D01*
X190536000Y-136399000D02*
X190536000Y-144271000D01*
X190576000Y-136471000D02*
X190576000Y-144199000D01*
X190616000Y-136545000D02*
X190616000Y-144125000D01*
X190656000Y-136620000D02*
X190656000Y-144050000D01*
X190696000Y-136698000D02*
X190696000Y-143972000D01*
X190736000Y-136778000D02*
X190736000Y-143892000D01*
X190776000Y-136860000D02*
X190776000Y-143810000D01*
X190816000Y-136945000D02*
X190816000Y-143725000D01*
X190856000Y-137032000D02*
X190856000Y-143638000D01*
X190896000Y-137122000D02*
X190896000Y-143548000D01*
X190936000Y-137215000D02*
X190936000Y-143455000D01*
X190976000Y-137311000D02*
X190976000Y-143359000D01*
X191016000Y-137411000D02*
X191016000Y-143259000D01*
X191056000Y-137515000D02*
X191056000Y-143155000D01*
X191096000Y-137624000D02*
X191096000Y-143046000D01*
X191136000Y-137738000D02*
X191136000Y-142932000D01*
X191176000Y-137857000D02*
X191176000Y-142813000D01*
X191216000Y-137984000D02*
X191216000Y-142686000D01*
X191256000Y-138117000D02*
X191256000Y-142553000D01*
X191296000Y-138261000D02*
X191296000Y-142409000D01*
X191336000Y-138415000D02*
X191336000Y-142255000D01*
X191376000Y-138583000D02*
X191376000Y-142087000D01*
X191416000Y-138771000D02*
X191416000Y-141899000D01*
X191456000Y-138984000D02*
X191456000Y-141686000D01*
X191496000Y-139237000D02*
X191496000Y-141433000D01*
X191536000Y-139570000D02*
X191536000Y-141100000D01*
X174765509Y-135780000D02*
X176365509Y-135780000D01*
X175565509Y-134980000D02*
X175565509Y-136580000D01*
%TO.C,C3*%
X191575000Y-121285000D02*
G75*
G03*
X191575000Y-121285000I-8120000J0D01*
G01*
X183455000Y-113204000D02*
X183455000Y-129366000D01*
X183495000Y-113205000D02*
X183495000Y-129365000D01*
X183535000Y-113205000D02*
X183535000Y-129365000D01*
X183575000Y-113205000D02*
X183575000Y-129365000D01*
X183615000Y-113206000D02*
X183615000Y-129364000D01*
X183655000Y-113207000D02*
X183655000Y-129363000D01*
X183695000Y-113208000D02*
X183695000Y-129362000D01*
X183735000Y-113209000D02*
X183735000Y-129361000D01*
X183775000Y-113211000D02*
X183775000Y-129359000D01*
X183815000Y-113212000D02*
X183815000Y-129358000D01*
X183855000Y-113214000D02*
X183855000Y-129356000D01*
X183895000Y-113216000D02*
X183895000Y-129354000D01*
X183935000Y-113219000D02*
X183935000Y-129351000D01*
X183975000Y-113221000D02*
X183975000Y-129349000D01*
X184015000Y-113224000D02*
X184015000Y-129346000D01*
X184055000Y-113227000D02*
X184055000Y-129343000D01*
X184095000Y-113230000D02*
X184095000Y-129340000D01*
X184135000Y-113233000D02*
X184135000Y-129337000D01*
X184176000Y-113236000D02*
X184176000Y-129334000D01*
X184216000Y-113240000D02*
X184216000Y-129330000D01*
X184256000Y-113244000D02*
X184256000Y-129326000D01*
X184296000Y-113248000D02*
X184296000Y-129322000D01*
X184336000Y-113252000D02*
X184336000Y-129318000D01*
X184376000Y-113257000D02*
X184376000Y-129313000D01*
X184416000Y-113261000D02*
X184416000Y-129309000D01*
X184456000Y-113266000D02*
X184456000Y-129304000D01*
X184496000Y-113271000D02*
X184496000Y-129299000D01*
X184536000Y-113277000D02*
X184536000Y-129293000D01*
X184576000Y-113282000D02*
X184576000Y-129288000D01*
X184616000Y-113288000D02*
X184616000Y-129282000D01*
X184656000Y-113294000D02*
X184656000Y-129276000D01*
X184696000Y-113300000D02*
X184696000Y-129270000D01*
X184736000Y-113306000D02*
X184736000Y-129264000D01*
X184776000Y-113313000D02*
X184776000Y-129257000D01*
X184816000Y-113319000D02*
X184816000Y-129251000D01*
X184856000Y-113326000D02*
X184856000Y-129244000D01*
X184896000Y-113333000D02*
X184896000Y-129237000D01*
X184936000Y-113341000D02*
X184936000Y-129229000D01*
X184976000Y-113348000D02*
X184976000Y-129222000D01*
X185016000Y-113356000D02*
X185016000Y-129214000D01*
X185056000Y-113364000D02*
X185056000Y-129206000D01*
X185096000Y-113372000D02*
X185096000Y-129198000D01*
X185136000Y-113380000D02*
X185136000Y-129190000D01*
X185176000Y-113389000D02*
X185176000Y-129181000D01*
X185216000Y-113398000D02*
X185216000Y-129172000D01*
X185256000Y-113407000D02*
X185256000Y-129163000D01*
X185296000Y-113416000D02*
X185296000Y-129154000D01*
X185336000Y-113425000D02*
X185336000Y-129145000D01*
X185376000Y-113435000D02*
X185376000Y-129135000D01*
X185416000Y-113445000D02*
X185416000Y-129125000D01*
X185456000Y-113455000D02*
X185456000Y-129115000D01*
X185496000Y-113465000D02*
X185496000Y-129105000D01*
X185536000Y-113475000D02*
X185536000Y-129095000D01*
X185576000Y-113486000D02*
X185576000Y-129084000D01*
X185616000Y-113497000D02*
X185616000Y-129073000D01*
X185656000Y-113508000D02*
X185656000Y-129062000D01*
X185696000Y-113520000D02*
X185696000Y-129050000D01*
X185736000Y-113531000D02*
X185736000Y-129039000D01*
X185776000Y-113543000D02*
X185776000Y-119845000D01*
X185776000Y-122725000D02*
X185776000Y-129027000D01*
X185816000Y-113555000D02*
X185816000Y-119845000D01*
X185816000Y-122725000D02*
X185816000Y-129015000D01*
X185856000Y-113567000D02*
X185856000Y-119845000D01*
X185856000Y-122725000D02*
X185856000Y-129003000D01*
X185896000Y-113580000D02*
X185896000Y-119845000D01*
X185896000Y-122725000D02*
X185896000Y-128990000D01*
X185936000Y-113592000D02*
X185936000Y-119845000D01*
X185936000Y-122725000D02*
X185936000Y-128978000D01*
X185976000Y-113605000D02*
X185976000Y-119845000D01*
X185976000Y-122725000D02*
X185976000Y-128965000D01*
X186016000Y-113619000D02*
X186016000Y-119845000D01*
X186016000Y-122725000D02*
X186016000Y-128951000D01*
X186056000Y-113632000D02*
X186056000Y-119845000D01*
X186056000Y-122725000D02*
X186056000Y-128938000D01*
X186096000Y-113646000D02*
X186096000Y-119845000D01*
X186096000Y-122725000D02*
X186096000Y-128924000D01*
X186136000Y-113660000D02*
X186136000Y-119845000D01*
X186136000Y-122725000D02*
X186136000Y-128910000D01*
X186176000Y-113674000D02*
X186176000Y-119845000D01*
X186176000Y-122725000D02*
X186176000Y-128896000D01*
X186216000Y-113688000D02*
X186216000Y-119845000D01*
X186216000Y-122725000D02*
X186216000Y-128882000D01*
X186256000Y-113703000D02*
X186256000Y-119845000D01*
X186256000Y-122725000D02*
X186256000Y-128867000D01*
X186296000Y-113717000D02*
X186296000Y-119845000D01*
X186296000Y-122725000D02*
X186296000Y-128853000D01*
X186336000Y-113732000D02*
X186336000Y-119845000D01*
X186336000Y-122725000D02*
X186336000Y-128838000D01*
X186376000Y-113748000D02*
X186376000Y-119845000D01*
X186376000Y-122725000D02*
X186376000Y-128822000D01*
X186416000Y-113763000D02*
X186416000Y-119845000D01*
X186416000Y-122725000D02*
X186416000Y-128807000D01*
X186456000Y-113779000D02*
X186456000Y-119845000D01*
X186456000Y-122725000D02*
X186456000Y-128791000D01*
X186496000Y-113795000D02*
X186496000Y-119845000D01*
X186496000Y-122725000D02*
X186496000Y-128775000D01*
X186536000Y-113811000D02*
X186536000Y-119845000D01*
X186536000Y-122725000D02*
X186536000Y-128759000D01*
X186576000Y-113828000D02*
X186576000Y-119845000D01*
X186576000Y-122725000D02*
X186576000Y-128742000D01*
X186616000Y-113845000D02*
X186616000Y-119845000D01*
X186616000Y-122725000D02*
X186616000Y-128725000D01*
X186656000Y-113862000D02*
X186656000Y-119845000D01*
X186656000Y-122725000D02*
X186656000Y-128708000D01*
X186696000Y-113879000D02*
X186696000Y-119845000D01*
X186696000Y-122725000D02*
X186696000Y-128691000D01*
X186736000Y-113896000D02*
X186736000Y-119845000D01*
X186736000Y-122725000D02*
X186736000Y-128674000D01*
X186776000Y-113914000D02*
X186776000Y-119845000D01*
X186776000Y-122725000D02*
X186776000Y-128656000D01*
X186816000Y-113932000D02*
X186816000Y-119845000D01*
X186816000Y-122725000D02*
X186816000Y-128638000D01*
X186856000Y-113951000D02*
X186856000Y-119845000D01*
X186856000Y-122725000D02*
X186856000Y-128619000D01*
X186896000Y-113969000D02*
X186896000Y-119845000D01*
X186896000Y-122725000D02*
X186896000Y-128601000D01*
X186936000Y-113988000D02*
X186936000Y-119845000D01*
X186936000Y-122725000D02*
X186936000Y-128582000D01*
X186976000Y-114007000D02*
X186976000Y-119845000D01*
X186976000Y-122725000D02*
X186976000Y-128563000D01*
X187016000Y-114027000D02*
X187016000Y-119845000D01*
X187016000Y-122725000D02*
X187016000Y-128543000D01*
X187056000Y-114046000D02*
X187056000Y-119845000D01*
X187056000Y-122725000D02*
X187056000Y-128524000D01*
X187096000Y-114066000D02*
X187096000Y-119845000D01*
X187096000Y-122725000D02*
X187096000Y-128504000D01*
X187136000Y-114086000D02*
X187136000Y-119845000D01*
X187136000Y-122725000D02*
X187136000Y-128484000D01*
X187176000Y-114107000D02*
X187176000Y-119845000D01*
X187176000Y-122725000D02*
X187176000Y-128463000D01*
X187216000Y-114128000D02*
X187216000Y-119845000D01*
X187216000Y-122725000D02*
X187216000Y-128442000D01*
X187256000Y-114149000D02*
X187256000Y-119845000D01*
X187256000Y-122725000D02*
X187256000Y-128421000D01*
X187296000Y-114170000D02*
X187296000Y-119845000D01*
X187296000Y-122725000D02*
X187296000Y-128400000D01*
X187336000Y-114191000D02*
X187336000Y-119845000D01*
X187336000Y-122725000D02*
X187336000Y-128379000D01*
X187376000Y-114213000D02*
X187376000Y-119845000D01*
X187376000Y-122725000D02*
X187376000Y-128357000D01*
X187416000Y-114236000D02*
X187416000Y-119845000D01*
X187416000Y-122725000D02*
X187416000Y-128334000D01*
X187456000Y-114258000D02*
X187456000Y-119845000D01*
X187456000Y-122725000D02*
X187456000Y-128312000D01*
X187496000Y-114281000D02*
X187496000Y-119845000D01*
X187496000Y-122725000D02*
X187496000Y-128289000D01*
X187536000Y-114304000D02*
X187536000Y-119845000D01*
X187536000Y-122725000D02*
X187536000Y-128266000D01*
X187576000Y-114327000D02*
X187576000Y-119845000D01*
X187576000Y-122725000D02*
X187576000Y-128243000D01*
X187616000Y-114351000D02*
X187616000Y-119845000D01*
X187616000Y-122725000D02*
X187616000Y-128219000D01*
X187656000Y-114375000D02*
X187656000Y-119845000D01*
X187656000Y-122725000D02*
X187656000Y-128195000D01*
X187696000Y-114399000D02*
X187696000Y-119845000D01*
X187696000Y-122725000D02*
X187696000Y-128171000D01*
X187736000Y-114424000D02*
X187736000Y-119845000D01*
X187736000Y-122725000D02*
X187736000Y-128146000D01*
X187776000Y-114449000D02*
X187776000Y-119845000D01*
X187776000Y-122725000D02*
X187776000Y-128121000D01*
X187816000Y-114474000D02*
X187816000Y-119845000D01*
X187816000Y-122725000D02*
X187816000Y-128096000D01*
X187856000Y-114500000D02*
X187856000Y-119845000D01*
X187856000Y-122725000D02*
X187856000Y-128070000D01*
X187896000Y-114526000D02*
X187896000Y-119845000D01*
X187896000Y-122725000D02*
X187896000Y-128044000D01*
X187936000Y-114552000D02*
X187936000Y-119845000D01*
X187936000Y-122725000D02*
X187936000Y-128018000D01*
X187976000Y-114579000D02*
X187976000Y-119845000D01*
X187976000Y-122725000D02*
X187976000Y-127991000D01*
X188016000Y-114606000D02*
X188016000Y-119845000D01*
X188016000Y-122725000D02*
X188016000Y-127964000D01*
X188056000Y-114633000D02*
X188056000Y-119845000D01*
X188056000Y-122725000D02*
X188056000Y-127937000D01*
X188096000Y-114661000D02*
X188096000Y-119845000D01*
X188096000Y-122725000D02*
X188096000Y-127909000D01*
X188136000Y-114689000D02*
X188136000Y-119845000D01*
X188136000Y-122725000D02*
X188136000Y-127881000D01*
X188176000Y-114717000D02*
X188176000Y-119845000D01*
X188176000Y-122725000D02*
X188176000Y-127853000D01*
X188216000Y-114746000D02*
X188216000Y-119845000D01*
X188216000Y-122725000D02*
X188216000Y-127824000D01*
X188256000Y-114775000D02*
X188256000Y-119845000D01*
X188256000Y-122725000D02*
X188256000Y-127795000D01*
X188296000Y-114805000D02*
X188296000Y-119845000D01*
X188296000Y-122725000D02*
X188296000Y-127765000D01*
X188336000Y-114835000D02*
X188336000Y-119845000D01*
X188336000Y-122725000D02*
X188336000Y-127735000D01*
X188376000Y-114865000D02*
X188376000Y-119845000D01*
X188376000Y-122725000D02*
X188376000Y-127705000D01*
X188416000Y-114895000D02*
X188416000Y-119845000D01*
X188416000Y-122725000D02*
X188416000Y-127675000D01*
X188456000Y-114927000D02*
X188456000Y-119845000D01*
X188456000Y-122725000D02*
X188456000Y-127643000D01*
X188496000Y-114958000D02*
X188496000Y-119845000D01*
X188496000Y-122725000D02*
X188496000Y-127612000D01*
X188536000Y-114990000D02*
X188536000Y-119845000D01*
X188536000Y-122725000D02*
X188536000Y-127580000D01*
X188576000Y-115022000D02*
X188576000Y-119845000D01*
X188576000Y-122725000D02*
X188576000Y-127548000D01*
X188616000Y-115055000D02*
X188616000Y-119845000D01*
X188616000Y-122725000D02*
X188616000Y-127515000D01*
X188656000Y-115088000D02*
X188656000Y-127482000D01*
X188696000Y-115122000D02*
X188696000Y-127448000D01*
X188736000Y-115156000D02*
X188736000Y-127414000D01*
X188776000Y-115190000D02*
X188776000Y-127380000D01*
X188816000Y-115225000D02*
X188816000Y-127345000D01*
X188856000Y-115260000D02*
X188856000Y-127310000D01*
X188896000Y-115296000D02*
X188896000Y-127274000D01*
X188936000Y-115333000D02*
X188936000Y-127237000D01*
X188976000Y-115369000D02*
X188976000Y-127201000D01*
X189016000Y-115407000D02*
X189016000Y-127163000D01*
X189056000Y-115445000D02*
X189056000Y-127125000D01*
X189096000Y-115483000D02*
X189096000Y-127087000D01*
X189136000Y-115522000D02*
X189136000Y-127048000D01*
X189176000Y-115561000D02*
X189176000Y-127009000D01*
X189216000Y-115601000D02*
X189216000Y-126969000D01*
X189256000Y-115642000D02*
X189256000Y-126928000D01*
X189296000Y-115683000D02*
X189296000Y-126887000D01*
X189336000Y-115725000D02*
X189336000Y-126845000D01*
X189376000Y-115767000D02*
X189376000Y-126803000D01*
X189416000Y-115810000D02*
X189416000Y-126760000D01*
X189456000Y-115853000D02*
X189456000Y-126717000D01*
X189496000Y-115897000D02*
X189496000Y-126673000D01*
X189536000Y-115942000D02*
X189536000Y-126628000D01*
X189576000Y-115988000D02*
X189576000Y-126582000D01*
X189616000Y-116034000D02*
X189616000Y-126536000D01*
X189656000Y-116081000D02*
X189656000Y-126489000D01*
X189696000Y-116129000D02*
X189696000Y-126441000D01*
X189736000Y-116177000D02*
X189736000Y-126393000D01*
X189776000Y-116226000D02*
X189776000Y-126344000D01*
X189816000Y-116276000D02*
X189816000Y-126294000D01*
X189856000Y-116327000D02*
X189856000Y-126243000D01*
X189896000Y-116379000D02*
X189896000Y-126191000D01*
X189936000Y-116431000D02*
X189936000Y-126139000D01*
X189976000Y-116485000D02*
X189976000Y-126085000D01*
X190016000Y-116539000D02*
X190016000Y-126031000D01*
X190056000Y-116594000D02*
X190056000Y-125976000D01*
X190096000Y-116651000D02*
X190096000Y-125919000D01*
X190136000Y-116708000D02*
X190136000Y-125862000D01*
X190176000Y-116766000D02*
X190176000Y-125804000D01*
X190216000Y-116826000D02*
X190216000Y-125744000D01*
X190256000Y-116887000D02*
X190256000Y-125683000D01*
X190296000Y-116949000D02*
X190296000Y-125621000D01*
X190336000Y-117012000D02*
X190336000Y-125558000D01*
X190376000Y-117076000D02*
X190376000Y-125494000D01*
X190416000Y-117142000D02*
X190416000Y-125428000D01*
X190456000Y-117209000D02*
X190456000Y-125361000D01*
X190496000Y-117278000D02*
X190496000Y-125292000D01*
X190536000Y-117349000D02*
X190536000Y-125221000D01*
X190576000Y-117421000D02*
X190576000Y-125149000D01*
X190616000Y-117495000D02*
X190616000Y-125075000D01*
X190656000Y-117570000D02*
X190656000Y-125000000D01*
X190696000Y-117648000D02*
X190696000Y-124922000D01*
X190736000Y-117728000D02*
X190736000Y-124842000D01*
X190776000Y-117810000D02*
X190776000Y-124760000D01*
X190816000Y-117895000D02*
X190816000Y-124675000D01*
X190856000Y-117982000D02*
X190856000Y-124588000D01*
X190896000Y-118072000D02*
X190896000Y-124498000D01*
X190936000Y-118165000D02*
X190936000Y-124405000D01*
X190976000Y-118261000D02*
X190976000Y-124309000D01*
X191016000Y-118361000D02*
X191016000Y-124209000D01*
X191056000Y-118465000D02*
X191056000Y-124105000D01*
X191096000Y-118574000D02*
X191096000Y-123996000D01*
X191136000Y-118688000D02*
X191136000Y-123882000D01*
X191176000Y-118807000D02*
X191176000Y-123763000D01*
X191216000Y-118934000D02*
X191216000Y-123636000D01*
X191256000Y-119067000D02*
X191256000Y-123503000D01*
X191296000Y-119211000D02*
X191296000Y-123359000D01*
X191336000Y-119365000D02*
X191336000Y-123205000D01*
X191376000Y-119533000D02*
X191376000Y-123037000D01*
X191416000Y-119721000D02*
X191416000Y-122849000D01*
X191456000Y-119934000D02*
X191456000Y-122636000D01*
X191496000Y-120187000D02*
X191496000Y-122383000D01*
X191536000Y-120520000D02*
X191536000Y-122050000D01*
X174765509Y-116730000D02*
X176365509Y-116730000D01*
X175565509Y-115930000D02*
X175565509Y-117530000D01*
%TO.C,C2*%
D11*
X134453333Y-137572142D02*
X134405714Y-137619761D01*
X134262857Y-137667380D01*
X134167619Y-137667380D01*
X134024761Y-137619761D01*
X133929523Y-137524523D01*
X133881904Y-137429285D01*
X133834285Y-137238809D01*
X133834285Y-137095952D01*
X133881904Y-136905476D01*
X133929523Y-136810238D01*
X134024761Y-136715000D01*
X134167619Y-136667380D01*
X134262857Y-136667380D01*
X134405714Y-136715000D01*
X134453333Y-136762619D01*
X134834285Y-136762619D02*
X134881904Y-136715000D01*
X134977142Y-136667380D01*
X135215238Y-136667380D01*
X135310476Y-136715000D01*
X135358095Y-136762619D01*
X135405714Y-136857857D01*
X135405714Y-136953095D01*
X135358095Y-137095952D01*
X134786666Y-137667380D01*
X135405714Y-137667380D01*
%TO.C,RV1*%
X166409761Y-112697380D02*
X166076428Y-112221190D01*
X165838333Y-112697380D02*
X165838333Y-111697380D01*
X166219285Y-111697380D01*
X166314523Y-111745000D01*
X166362142Y-111792619D01*
X166409761Y-111887857D01*
X166409761Y-112030714D01*
X166362142Y-112125952D01*
X166314523Y-112173571D01*
X166219285Y-112221190D01*
X165838333Y-112221190D01*
X166695476Y-111697380D02*
X167028809Y-112697380D01*
X167362142Y-111697380D01*
X168219285Y-112697380D02*
X167647857Y-112697380D01*
X167933571Y-112697380D02*
X167933571Y-111697380D01*
X167838333Y-111840238D01*
X167743095Y-111935476D01*
X167647857Y-111983095D01*
%TO.C,C1*%
X115757142Y-123511666D02*
X115804761Y-123559285D01*
X115852380Y-123702142D01*
X115852380Y-123797380D01*
X115804761Y-123940238D01*
X115709523Y-124035476D01*
X115614285Y-124083095D01*
X115423809Y-124130714D01*
X115280952Y-124130714D01*
X115090476Y-124083095D01*
X114995238Y-124035476D01*
X114900000Y-123940238D01*
X114852380Y-123797380D01*
X114852380Y-123702142D01*
X114900000Y-123559285D01*
X114947619Y-123511666D01*
X115852380Y-122559285D02*
X115852380Y-123130714D01*
X115852380Y-122845000D02*
X114852380Y-122845000D01*
X114995238Y-122940238D01*
X115090476Y-123035476D01*
X115138095Y-123130714D01*
%TO.C,U1*%
X134247380Y-128171904D02*
X135056904Y-128171904D01*
X135152142Y-128124285D01*
X135199761Y-128076666D01*
X135247380Y-127981428D01*
X135247380Y-127790952D01*
X135199761Y-127695714D01*
X135152142Y-127648095D01*
X135056904Y-127600476D01*
X134247380Y-127600476D01*
X135247380Y-126600476D02*
X135247380Y-127171904D01*
X135247380Y-126886190D02*
X134247380Y-126886190D01*
X134390238Y-126981428D01*
X134485476Y-127076666D01*
X134533095Y-127171904D01*
%TO.C,L1*%
X151072380Y-129071666D02*
X151072380Y-129547857D01*
X150072380Y-129547857D01*
X151072380Y-128214523D02*
X151072380Y-128785952D01*
X151072380Y-128500238D02*
X150072380Y-128500238D01*
X150215238Y-128595476D01*
X150310476Y-128690714D01*
X150358095Y-128785952D01*
%TO.C,J4*%
X155241666Y-145987380D02*
X155241666Y-146701666D01*
X155194047Y-146844523D01*
X155098809Y-146939761D01*
X154955952Y-146987380D01*
X154860714Y-146987380D01*
X156146428Y-146320714D02*
X156146428Y-146987380D01*
X155908333Y-145939761D02*
X155670238Y-146654047D01*
X156289285Y-146654047D01*
%TO.C,J3*%
X169846666Y-145352380D02*
X169846666Y-146066666D01*
X169799047Y-146209523D01*
X169703809Y-146304761D01*
X169560952Y-146352380D01*
X169465714Y-146352380D01*
X170227619Y-145352380D02*
X170846666Y-145352380D01*
X170513333Y-145733333D01*
X170656190Y-145733333D01*
X170751428Y-145780952D01*
X170799047Y-145828571D01*
X170846666Y-145923809D01*
X170846666Y-146161904D01*
X170799047Y-146257142D01*
X170751428Y-146304761D01*
X170656190Y-146352380D01*
X170370476Y-146352380D01*
X170275238Y-146304761D01*
X170227619Y-146257142D01*
%TO.C,J2*%
X125396666Y-146622380D02*
X125396666Y-147336666D01*
X125349047Y-147479523D01*
X125253809Y-147574761D01*
X125110952Y-147622380D01*
X125015714Y-147622380D01*
X125825238Y-146717619D02*
X125872857Y-146670000D01*
X125968095Y-146622380D01*
X126206190Y-146622380D01*
X126301428Y-146670000D01*
X126349047Y-146717619D01*
X126396666Y-146812857D01*
X126396666Y-146908095D01*
X126349047Y-147050952D01*
X125777619Y-147622380D01*
X126396666Y-147622380D01*
%TO.C,J1*%
X124761666Y-133287380D02*
X124761666Y-134001666D01*
X124714047Y-134144523D01*
X124618809Y-134239761D01*
X124475952Y-134287380D01*
X124380714Y-134287380D01*
X125761666Y-134287380D02*
X125190238Y-134287380D01*
X125475952Y-134287380D02*
X125475952Y-133287380D01*
X125380714Y-133430238D01*
X125285476Y-133525476D01*
X125190238Y-133573095D01*
%TO.C,D1*%
X150222380Y-137263095D02*
X149222380Y-137263095D01*
X149222380Y-137025000D01*
X149270000Y-136882142D01*
X149365238Y-136786904D01*
X149460476Y-136739285D01*
X149650952Y-136691666D01*
X149793809Y-136691666D01*
X149984285Y-136739285D01*
X150079523Y-136786904D01*
X150174761Y-136882142D01*
X150222380Y-137025000D01*
X150222380Y-137263095D01*
X150222380Y-135739285D02*
X150222380Y-136310714D01*
X150222380Y-136025000D02*
X149222380Y-136025000D01*
X149365238Y-136120238D01*
X149460476Y-136215476D01*
X149508095Y-136310714D01*
X149102380Y-129166904D02*
X148102380Y-129166904D01*
X149102380Y-128595476D02*
X148530952Y-129024047D01*
X148102380Y-128595476D02*
X148673809Y-129166904D01*
%TO.C,C4*%
X183288333Y-131442142D02*
X183240714Y-131489761D01*
X183097857Y-131537380D01*
X183002619Y-131537380D01*
X182859761Y-131489761D01*
X182764523Y-131394523D01*
X182716904Y-131299285D01*
X182669285Y-131108809D01*
X182669285Y-130965952D01*
X182716904Y-130775476D01*
X182764523Y-130680238D01*
X182859761Y-130585000D01*
X183002619Y-130537380D01*
X183097857Y-130537380D01*
X183240714Y-130585000D01*
X183288333Y-130632619D01*
X184145476Y-130870714D02*
X184145476Y-131537380D01*
X183907380Y-130489761D02*
X183669285Y-131204047D01*
X184288333Y-131204047D01*
%TO.C,C3*%
X183288333Y-112392142D02*
X183240714Y-112439761D01*
X183097857Y-112487380D01*
X183002619Y-112487380D01*
X182859761Y-112439761D01*
X182764523Y-112344523D01*
X182716904Y-112249285D01*
X182669285Y-112058809D01*
X182669285Y-111915952D01*
X182716904Y-111725476D01*
X182764523Y-111630238D01*
X182859761Y-111535000D01*
X183002619Y-111487380D01*
X183097857Y-111487380D01*
X183240714Y-111535000D01*
X183288333Y-111582619D01*
X183621666Y-111487380D02*
X184240714Y-111487380D01*
X183907380Y-111868333D01*
X184050238Y-111868333D01*
X184145476Y-111915952D01*
X184193095Y-111963571D01*
X184240714Y-112058809D01*
X184240714Y-112296904D01*
X184193095Y-112392142D01*
X184145476Y-112439761D01*
X184050238Y-112487380D01*
X183764523Y-112487380D01*
X183669285Y-112439761D01*
X183621666Y-112392142D01*
%TD*%
M02*
