M48
; DRILL file {KiCad 5.1.9} date Tue Feb 16 23:50:10 2021
; FORMAT={-:-/ absolute / inch / decimal}
; #@! TF.CreationDate,2021-02-16T23:50:10-03:00
; #@! TF.GenerationSoftware,Kicad,Pcbnew,5.1.9
FMAT,2
INCH
T1C0.0295
T2C0.0315
T3C0.0430
T4C0.0472
T5C0.0630
T6C0.0709
T7C0.2402
%
G90
G05
T1
X6.0Y-3.85
X6.05Y-3.85
X6.1Y-3.85
T2
X5.075Y-4.2
X5.075Y-4.3378
X6.3Y-3.6
X6.4Y-3.85
X6.5Y-3.85
X6.6Y-3.6
X6.6Y-3.85
T3
X5.35Y-4.05
X5.35Y-4.117
X5.35Y-4.184
X5.35Y-4.251
X5.35Y-4.318
T4
X5.775Y-5.325
X6.0703Y-5.325
X6.575Y-5.4297
X6.575Y-5.725
T5
X5.7Y-4.25
X5.7Y-4.85
T6
X6.6Y-4.35
X6.6Y-4.8815
T7
X5.125Y-4.775
X5.15Y-5.3
X7.175Y-5.225
X7.175Y-5.775
T0
M30
