%TF.GenerationSoftware,KiCad,Pcbnew,5.1.9*%
%TF.CreationDate,2021-02-16T23:50:06-03:00*%
%TF.ProjectId,negativa,6e656761-7469-4766-912e-6b696361645f,rev?*%
%TF.SameCoordinates,Original*%
%TF.FileFunction,Copper,L1,Top*%
%TF.FilePolarity,Positive*%
%FSLAX46Y46*%
G04 Gerber Fmt 4.6, Leading zero omitted, Abs format (unit mm)*
G04 Created by KiCad (PCBNEW 5.1.9) date 2021-02-16 23:50:06*
%MOMM*%
%LPD*%
G01*
G04 APERTURE LIST*
%TA.AperFunction,ComponentPad*%
%ADD10C,1.600000*%
%TD*%
%TA.AperFunction,ComponentPad*%
%ADD11R,1.600000X1.600000*%
%TD*%
%TA.AperFunction,ComponentPad*%
%ADD12C,1.440000*%
%TD*%
%TA.AperFunction,ComponentPad*%
%ADD13R,1.050000X1.500000*%
%TD*%
%TA.AperFunction,ComponentPad*%
%ADD14O,1.050000X1.500000*%
%TD*%
%TA.AperFunction,ComponentPad*%
%ADD15C,3.600000*%
%TD*%
%TA.AperFunction,ComponentPad*%
%ADD16C,10.160000*%
%TD*%
%TA.AperFunction,ComponentPad*%
%ADD17O,1.600000X1.600000*%
%TD*%
%TA.AperFunction,ComponentPad*%
%ADD18O,3.200000X3.200000*%
%TD*%
%TA.AperFunction,ComponentPad*%
%ADD19R,3.200000X3.200000*%
%TD*%
%TA.AperFunction,ComponentPad*%
%ADD20C,2.400000*%
%TD*%
%TA.AperFunction,ComponentPad*%
%ADD21R,2.400000X2.400000*%
%TD*%
%TA.AperFunction,ComponentPad*%
%ADD22C,1.600200*%
%TD*%
%TA.AperFunction,Conductor*%
%ADD23C,1.000000*%
%TD*%
%TA.AperFunction,Conductor*%
%ADD24C,0.254000*%
%TD*%
%TA.AperFunction,Conductor*%
%ADD25C,0.100000*%
%TD*%
G04 APERTURE END LIST*
%TO.P,C3,2*%
%TO.N,/Vin*%
%TA.AperFunction,SMDPad,CuDef*%
G36*
G01*
X135625000Y-113649999D02*
X135625000Y-114950001D01*
G75*
G02*
X135375001Y-115200000I-249999J0D01*
G01*
X134549999Y-115200000D01*
G75*
G02*
X134300000Y-114950001I0J249999D01*
G01*
X134300000Y-113649999D01*
G75*
G02*
X134549999Y-113400000I249999J0D01*
G01*
X135375001Y-113400000D01*
G75*
G02*
X135625000Y-113649999I0J-249999D01*
G01*
G37*
%TD.AperFunction*%
%TO.P,C3,1*%
%TO.N,GND*%
%TA.AperFunction,SMDPad,CuDef*%
G36*
G01*
X138750000Y-113649999D02*
X138750000Y-114950001D01*
G75*
G02*
X138500001Y-115200000I-249999J0D01*
G01*
X137674999Y-115200000D01*
G75*
G02*
X137425000Y-114950001I0J249999D01*
G01*
X137425000Y-113649999D01*
G75*
G02*
X137674999Y-113400000I249999J0D01*
G01*
X138500001Y-113400000D01*
G75*
G02*
X138750000Y-113649999I0J-249999D01*
G01*
G37*
%TD.AperFunction*%
%TD*%
D10*
%TO.P,C2,2*%
%TO.N,/Vin*%
X128905000Y-110180000D03*
D11*
%TO.P,C2,1*%
%TO.N,GND*%
X128905000Y-106680000D03*
%TD*%
%TO.P,C1,2*%
%TO.N,GND*%
%TA.AperFunction,SMDPad,CuDef*%
G36*
G01*
X131429999Y-98690000D02*
X132730001Y-98690000D01*
G75*
G02*
X132980000Y-98939999I0J-249999D01*
G01*
X132980000Y-99765001D01*
G75*
G02*
X132730001Y-100015000I-249999J0D01*
G01*
X131429999Y-100015000D01*
G75*
G02*
X131180000Y-99765001I0J249999D01*
G01*
X131180000Y-98939999D01*
G75*
G02*
X131429999Y-98690000I249999J0D01*
G01*
G37*
%TD.AperFunction*%
%TO.P,C1,1*%
%TO.N,Net-(C1-Pad1)*%
%TA.AperFunction,SMDPad,CuDef*%
G36*
G01*
X131429999Y-95565000D02*
X132730001Y-95565000D01*
G75*
G02*
X132980000Y-95814999I0J-249999D01*
G01*
X132980000Y-96640001D01*
G75*
G02*
X132730001Y-96890000I-249999J0D01*
G01*
X131429999Y-96890000D01*
G75*
G02*
X131180000Y-96640001I0J249999D01*
G01*
X131180000Y-95814999D01*
G75*
G02*
X131429999Y-95565000I249999J0D01*
G01*
G37*
%TD.AperFunction*%
%TD*%
D12*
%TO.P,RV1,3*%
%TO.N,/Q1e*%
X162560000Y-97790000D03*
%TO.P,RV1,2*%
%TO.N,GND*%
X165100000Y-97790000D03*
%TO.P,RV1,1*%
%TO.N,Net-(RV1-Pad1)*%
X167640000Y-97790000D03*
%TD*%
%TO.P,R4,2*%
%TO.N,/Vin*%
%TA.AperFunction,SMDPad,CuDef*%
G36*
G01*
X151220000Y-90815000D02*
X151220000Y-92065000D01*
G75*
G02*
X150970000Y-92315000I-250000J0D01*
G01*
X150170000Y-92315000D01*
G75*
G02*
X149920000Y-92065000I0J250000D01*
G01*
X149920000Y-90815000D01*
G75*
G02*
X150170000Y-90565000I250000J0D01*
G01*
X150970000Y-90565000D01*
G75*
G02*
X151220000Y-90815000I0J-250000D01*
G01*
G37*
%TD.AperFunction*%
%TO.P,R4,1*%
%TO.N,/Q1b*%
%TA.AperFunction,SMDPad,CuDef*%
G36*
G01*
X154320000Y-90815000D02*
X154320000Y-92065000D01*
G75*
G02*
X154070000Y-92315000I-250000J0D01*
G01*
X153270000Y-92315000D01*
G75*
G02*
X153020000Y-92065000I0J250000D01*
G01*
X153020000Y-90815000D01*
G75*
G02*
X153270000Y-90565000I250000J0D01*
G01*
X154070000Y-90565000D01*
G75*
G02*
X154320000Y-90815000I0J-250000D01*
G01*
G37*
%TD.AperFunction*%
%TD*%
%TO.P,R3,2*%
%TO.N,/Vin*%
%TA.AperFunction,SMDPad,CuDef*%
G36*
G01*
X147945000Y-95340000D02*
X146695000Y-95340000D01*
G75*
G02*
X146445000Y-95090000I0J250000D01*
G01*
X146445000Y-94290000D01*
G75*
G02*
X146695000Y-94040000I250000J0D01*
G01*
X147945000Y-94040000D01*
G75*
G02*
X148195000Y-94290000I0J-250000D01*
G01*
X148195000Y-95090000D01*
G75*
G02*
X147945000Y-95340000I-250000J0D01*
G01*
G37*
%TD.AperFunction*%
%TO.P,R3,1*%
%TO.N,/Vfb*%
%TA.AperFunction,SMDPad,CuDef*%
G36*
G01*
X147945000Y-98440000D02*
X146695000Y-98440000D01*
G75*
G02*
X146445000Y-98190000I0J250000D01*
G01*
X146445000Y-97390000D01*
G75*
G02*
X146695000Y-97140000I250000J0D01*
G01*
X147945000Y-97140000D01*
G75*
G02*
X148195000Y-97390000I0J-250000D01*
G01*
X148195000Y-98190000D01*
G75*
G02*
X147945000Y-98440000I-250000J0D01*
G01*
G37*
%TD.AperFunction*%
%TD*%
%TO.P,R1,1*%
%TO.N,/Vcomp*%
%TA.AperFunction,SMDPad,CuDef*%
G36*
G01*
X136515000Y-99990000D02*
X135265000Y-99990000D01*
G75*
G02*
X135015000Y-99740000I0J250000D01*
G01*
X135015000Y-98940000D01*
G75*
G02*
X135265000Y-98690000I250000J0D01*
G01*
X136515000Y-98690000D01*
G75*
G02*
X136765000Y-98940000I0J-250000D01*
G01*
X136765000Y-99740000D01*
G75*
G02*
X136515000Y-99990000I-250000J0D01*
G01*
G37*
%TD.AperFunction*%
%TO.P,R1,2*%
%TO.N,Net-(C1-Pad1)*%
%TA.AperFunction,SMDPad,CuDef*%
G36*
G01*
X136515000Y-96890000D02*
X135265000Y-96890000D01*
G75*
G02*
X135015000Y-96640000I0J250000D01*
G01*
X135015000Y-95840000D01*
G75*
G02*
X135265000Y-95590000I250000J0D01*
G01*
X136515000Y-95590000D01*
G75*
G02*
X136765000Y-95840000I0J-250000D01*
G01*
X136765000Y-96640000D01*
G75*
G02*
X136515000Y-96890000I-250000J0D01*
G01*
G37*
%TD.AperFunction*%
%TD*%
D13*
%TO.P,Q1,1*%
%TO.N,/Q1e*%
X154940000Y-97790000D03*
D14*
%TO.P,Q1,3*%
%TO.N,/Vfb*%
X152400000Y-97790000D03*
%TO.P,Q1,2*%
%TO.N,/Q1b*%
X153670000Y-97790000D03*
%TD*%
D15*
%TO.P,L1,2*%
%TO.N,/Vout*%
X167640000Y-123990000D03*
%TO.P,L1,1*%
%TO.N,/Vsw*%
X167640000Y-110490000D03*
%TD*%
D16*
%TO.P,J4,1*%
%TO.N,GND*%
X130810000Y-134620000D03*
%TD*%
%TO.P,J3,1*%
%TO.N,/Vout*%
X182245000Y-132715000D03*
%TD*%
%TO.P,J2,1*%
%TO.N,GND*%
X182245000Y-146685000D03*
%TD*%
%TO.P,J1,1*%
%TO.N,/Vin*%
X130175000Y-121285000D03*
%TD*%
D17*
%TO.P,D2,2*%
%TO.N,/Vout*%
X167640000Y-91440000D03*
D11*
%TO.P,D2,1*%
%TO.N,/Q1b*%
X160020000Y-91440000D03*
%TD*%
D18*
%TO.P,D1,2*%
%TO.N,/Vsw*%
X144780000Y-107950000D03*
D19*
%TO.P,D1,1*%
%TO.N,GND*%
X144780000Y-123190000D03*
%TD*%
D20*
%TO.P,C5,2*%
%TO.N,/Vout*%
X167005000Y-137915000D03*
D21*
%TO.P,C5,1*%
%TO.N,GND*%
X167005000Y-145415000D03*
%TD*%
D20*
%TO.P,C4,2*%
%TO.N,/Vout*%
X154185000Y-135255000D03*
D21*
%TO.P,C4,1*%
%TO.N,GND*%
X146685000Y-135255000D03*
%TD*%
D22*
%TO.P,U1,1*%
%TO.N,/Vcomp*%
X135890000Y-102870000D03*
%TO.P,U1,2*%
%TO.N,/Vfb*%
X135890000Y-104571800D03*
%TO.P,U1,3*%
%TO.N,GND*%
X135890000Y-106273600D03*
%TO.P,U1,4*%
%TO.N,/Vsw*%
X135890000Y-107975400D03*
%TO.P,U1,5*%
%TO.N,/Vin*%
X135890000Y-109677200D03*
%TD*%
D23*
%TO.N,GND*%
X135890000Y-106273600D02*
X141376400Y-106273600D01*
X141376400Y-106273600D02*
X142011400Y-106273600D01*
%TO.N,Net-(C1-Pad1)*%
X135877500Y-96227500D02*
X135890000Y-96240000D01*
X132080000Y-96227500D02*
X135877500Y-96227500D01*
%TO.N,/Vin*%
X147320000Y-94690000D02*
X147320000Y-91440000D01*
X150570000Y-91440000D02*
X147320000Y-91440000D01*
X131245796Y-91440000D02*
X123190000Y-99495796D01*
X147320000Y-91440000D02*
X131245796Y-91440000D01*
X123190000Y-99495796D02*
X123190000Y-111125000D01*
%TO.N,/Vout*%
X185420000Y-106680000D02*
X185420000Y-116840000D01*
X170180000Y-91440000D02*
X183515000Y-104775000D01*
X167640000Y-91440000D02*
X170180000Y-91440000D01*
X183515000Y-104775000D02*
X185420000Y-106680000D01*
X182880000Y-104140000D02*
X183515000Y-104775000D01*
X185420000Y-116840000D02*
X185420000Y-118110000D01*
%TO.N,/Vsw*%
X144754600Y-107924600D02*
X144780000Y-107950000D01*
X135890000Y-107924600D02*
X144754600Y-107924600D01*
X165100000Y-107950000D02*
X167640000Y-110490000D01*
X144780000Y-107950000D02*
X165100000Y-107950000D01*
%TO.N,/Q1b*%
X153670000Y-97790000D02*
X153670000Y-91440000D01*
X160020000Y-91440000D02*
X153670000Y-91440000D01*
%TO.N,/Q1e*%
X154940000Y-97790000D02*
X162560000Y-97790000D01*
%TO.N,/Vfb*%
X147320000Y-97790000D02*
X152400000Y-97790000D01*
X141188200Y-104571800D02*
X135890000Y-104571800D01*
X147320000Y-98440000D02*
X141188200Y-104571800D01*
X147320000Y-97790000D02*
X147320000Y-98440000D01*
%TO.N,/Vcomp*%
X135890000Y-102870000D02*
X135890000Y-99340000D01*
%TD*%
D24*
%TO.N,GND*%
X192363001Y-153628000D02*
X118787000Y-153628000D01*
X118787000Y-135075056D01*
X152358000Y-135075056D01*
X152358000Y-135434944D01*
X152428211Y-135787916D01*
X152543000Y-136065041D01*
X152543000Y-139065000D01*
X152564655Y-139284867D01*
X152628788Y-139496284D01*
X152732934Y-139691128D01*
X152873091Y-139861909D01*
X153043872Y-140002066D01*
X153238716Y-140106212D01*
X153450133Y-140170345D01*
X153670000Y-140192000D01*
X189230000Y-140192000D01*
X189449867Y-140170345D01*
X189661284Y-140106212D01*
X189856128Y-140002066D01*
X190026909Y-139861909D01*
X190167066Y-139691128D01*
X190271212Y-139496284D01*
X190335345Y-139284867D01*
X190357000Y-139065000D01*
X190357000Y-116840000D01*
X190335345Y-116620133D01*
X190271212Y-116408716D01*
X190167066Y-116213872D01*
X190026909Y-116043091D01*
X189856128Y-115902934D01*
X189661284Y-115798788D01*
X189449867Y-115734655D01*
X189230000Y-115713000D01*
X186547000Y-115713000D01*
X186547000Y-106735357D01*
X186552452Y-106680000D01*
X186547000Y-106624643D01*
X186547000Y-106624635D01*
X186530693Y-106459069D01*
X186466250Y-106246629D01*
X186361600Y-106050843D01*
X186256058Y-105922239D01*
X186256055Y-105922236D01*
X186220765Y-105879235D01*
X186177764Y-105843945D01*
X184351062Y-104017244D01*
X184351058Y-104017239D01*
X171016060Y-90682242D01*
X170980765Y-90639235D01*
X170809157Y-90498400D01*
X170613371Y-90393750D01*
X170400931Y-90329307D01*
X170235365Y-90313000D01*
X170235354Y-90313000D01*
X170180000Y-90307548D01*
X170124646Y-90313000D01*
X168521859Y-90313000D01*
X168315938Y-90175409D01*
X168056241Y-90067838D01*
X167780547Y-90013000D01*
X167499453Y-90013000D01*
X167223759Y-90067838D01*
X166964062Y-90175409D01*
X166730340Y-90331576D01*
X166531576Y-90530340D01*
X166375409Y-90764062D01*
X166267838Y-91023759D01*
X166213000Y-91299453D01*
X166213000Y-91580547D01*
X166267838Y-91856241D01*
X166375409Y-92115938D01*
X166531576Y-92349660D01*
X166730340Y-92548424D01*
X166964062Y-92704591D01*
X167223759Y-92812162D01*
X167499453Y-92867000D01*
X167780547Y-92867000D01*
X168056241Y-92812162D01*
X168315938Y-92704591D01*
X168521859Y-92567000D01*
X169713182Y-92567000D01*
X182757239Y-105611058D01*
X182757244Y-105611062D01*
X184293000Y-107146819D01*
X184293001Y-115713000D01*
X153670000Y-115713000D01*
X153450133Y-115734655D01*
X153238716Y-115798788D01*
X153043872Y-115902934D01*
X152873091Y-116043091D01*
X152732934Y-116213872D01*
X152628788Y-116408716D01*
X152564655Y-116620133D01*
X152543000Y-116840000D01*
X152543000Y-134444959D01*
X152428211Y-134722084D01*
X152358000Y-135075056D01*
X118787000Y-135075056D01*
X118787000Y-109220000D01*
X119523000Y-109220000D01*
X119523000Y-127635000D01*
X119544655Y-127854867D01*
X119608788Y-128066284D01*
X119712934Y-128261128D01*
X119853091Y-128431909D01*
X120023872Y-128572066D01*
X120218716Y-128676212D01*
X120430133Y-128740345D01*
X120650000Y-128762000D01*
X136525000Y-128762000D01*
X136744867Y-128740345D01*
X136956284Y-128676212D01*
X137151128Y-128572066D01*
X137321909Y-128431909D01*
X137462066Y-128261128D01*
X137566212Y-128066284D01*
X137630345Y-127854867D01*
X137652000Y-127635000D01*
X137652000Y-109220000D01*
X137635414Y-109051600D01*
X142837675Y-109051600D01*
X143050176Y-109369630D01*
X143360370Y-109679824D01*
X143725120Y-109923542D01*
X144130408Y-110091418D01*
X144560660Y-110177000D01*
X144999340Y-110177000D01*
X145429592Y-110091418D01*
X145834880Y-109923542D01*
X146199630Y-109679824D01*
X146509824Y-109369630D01*
X146705353Y-109077000D01*
X164633182Y-109077000D01*
X165315636Y-109759454D01*
X165306268Y-109782070D01*
X165213000Y-110250961D01*
X165213000Y-110729039D01*
X165306268Y-111197930D01*
X165489221Y-111639615D01*
X165754826Y-112037122D01*
X166092878Y-112375174D01*
X166490385Y-112640779D01*
X166932070Y-112823732D01*
X167400961Y-112917000D01*
X167879039Y-112917000D01*
X168347930Y-112823732D01*
X168789615Y-112640779D01*
X169187122Y-112375174D01*
X169525174Y-112037122D01*
X169790779Y-111639615D01*
X169973732Y-111197930D01*
X170067000Y-110729039D01*
X170067000Y-110250961D01*
X169973732Y-109782070D01*
X169790779Y-109340385D01*
X169525174Y-108942878D01*
X169187122Y-108604826D01*
X168789615Y-108339221D01*
X168347930Y-108156268D01*
X167879039Y-108063000D01*
X167400961Y-108063000D01*
X166932070Y-108156268D01*
X166909454Y-108165636D01*
X165936058Y-107192240D01*
X165900765Y-107149235D01*
X165729157Y-107008400D01*
X165533371Y-106903750D01*
X165320931Y-106839307D01*
X165155365Y-106823000D01*
X165155354Y-106823000D01*
X165100000Y-106817548D01*
X165044646Y-106823000D01*
X146705353Y-106823000D01*
X146509824Y-106530370D01*
X146199630Y-106220176D01*
X145834880Y-105976458D01*
X145429592Y-105808582D01*
X144999340Y-105723000D01*
X144560660Y-105723000D01*
X144130408Y-105808582D01*
X143725120Y-105976458D01*
X143360370Y-106220176D01*
X143050176Y-106530370D01*
X142871619Y-106797600D01*
X136696010Y-106797600D01*
X136565985Y-106710720D01*
X136306270Y-106603143D01*
X136030557Y-106548300D01*
X135749443Y-106548300D01*
X135473730Y-106603143D01*
X135214015Y-106710720D01*
X134980277Y-106866899D01*
X134781499Y-107065677D01*
X134625320Y-107299415D01*
X134517743Y-107559130D01*
X134462900Y-107834843D01*
X134462900Y-108093000D01*
X124317000Y-108093000D01*
X124317000Y-99962614D01*
X125339614Y-98940000D01*
X134384967Y-98940000D01*
X134384967Y-99740000D01*
X134401877Y-99911686D01*
X134451956Y-100076774D01*
X134533279Y-100228920D01*
X134642723Y-100362277D01*
X134763001Y-100460987D01*
X134763000Y-101987962D01*
X134625320Y-102194015D01*
X134517743Y-102453730D01*
X134462900Y-102729443D01*
X134462900Y-103010557D01*
X134517743Y-103286270D01*
X134625320Y-103545985D01*
X134742195Y-103720900D01*
X134625320Y-103895815D01*
X134517743Y-104155530D01*
X134462900Y-104431243D01*
X134462900Y-104712357D01*
X134517743Y-104988070D01*
X134625320Y-105247785D01*
X134781499Y-105481523D01*
X134980277Y-105680301D01*
X135214015Y-105836480D01*
X135473730Y-105944057D01*
X135749443Y-105998900D01*
X136030557Y-105998900D01*
X136306270Y-105944057D01*
X136565985Y-105836480D01*
X136772037Y-105698800D01*
X141132846Y-105698800D01*
X141188200Y-105704252D01*
X141243554Y-105698800D01*
X141243565Y-105698800D01*
X141409131Y-105682493D01*
X141621571Y-105618050D01*
X141817357Y-105513400D01*
X141988965Y-105372565D01*
X142024260Y-105329559D01*
X148077764Y-99276055D01*
X148120765Y-99240765D01*
X148156055Y-99197764D01*
X148156058Y-99197761D01*
X148261600Y-99069157D01*
X148303003Y-98991697D01*
X148433920Y-98921721D01*
X148439673Y-98917000D01*
X151683182Y-98917000D01*
X151756886Y-98977488D01*
X151957016Y-99084459D01*
X152174169Y-99150332D01*
X152400000Y-99172574D01*
X152625830Y-99150332D01*
X152842983Y-99084459D01*
X153035000Y-98981825D01*
X153227016Y-99084459D01*
X153444169Y-99150332D01*
X153670000Y-99172574D01*
X153895830Y-99150332D01*
X154106948Y-99086290D01*
X154173897Y-99122075D01*
X154292087Y-99157927D01*
X154415000Y-99170033D01*
X155465000Y-99170033D01*
X155587913Y-99157927D01*
X155706103Y-99122075D01*
X155815028Y-99063853D01*
X155910501Y-98985501D01*
X155966718Y-98917000D01*
X161822138Y-98917000D01*
X161921956Y-98983696D01*
X162167094Y-99085236D01*
X162427332Y-99137000D01*
X162692668Y-99137000D01*
X162952906Y-99085236D01*
X163198044Y-98983696D01*
X163418663Y-98836284D01*
X163606284Y-98648663D01*
X163753696Y-98428044D01*
X163855236Y-98182906D01*
X163907000Y-97922668D01*
X163907000Y-97657332D01*
X166293000Y-97657332D01*
X166293000Y-97922668D01*
X166344764Y-98182906D01*
X166446304Y-98428044D01*
X166593716Y-98648663D01*
X166781337Y-98836284D01*
X167001956Y-98983696D01*
X167247094Y-99085236D01*
X167507332Y-99137000D01*
X167772668Y-99137000D01*
X168032906Y-99085236D01*
X168278044Y-98983696D01*
X168498663Y-98836284D01*
X168686284Y-98648663D01*
X168833696Y-98428044D01*
X168935236Y-98182906D01*
X168987000Y-97922668D01*
X168987000Y-97657332D01*
X168935236Y-97397094D01*
X168833696Y-97151956D01*
X168686284Y-96931337D01*
X168498663Y-96743716D01*
X168278044Y-96596304D01*
X168032906Y-96494764D01*
X167772668Y-96443000D01*
X167507332Y-96443000D01*
X167247094Y-96494764D01*
X167001956Y-96596304D01*
X166781337Y-96743716D01*
X166593716Y-96931337D01*
X166446304Y-97151956D01*
X166344764Y-97397094D01*
X166293000Y-97657332D01*
X163907000Y-97657332D01*
X163855236Y-97397094D01*
X163753696Y-97151956D01*
X163606284Y-96931337D01*
X163418663Y-96743716D01*
X163198044Y-96596304D01*
X162952906Y-96494764D01*
X162692668Y-96443000D01*
X162427332Y-96443000D01*
X162167094Y-96494764D01*
X161921956Y-96596304D01*
X161822138Y-96663000D01*
X155966718Y-96663000D01*
X155910501Y-96594499D01*
X155815028Y-96516147D01*
X155706103Y-96457925D01*
X155587913Y-96422073D01*
X155465000Y-96409967D01*
X154797000Y-96409967D01*
X154797000Y-92567000D01*
X158683838Y-92567000D01*
X158696147Y-92590028D01*
X158774499Y-92685501D01*
X158869972Y-92763853D01*
X158978897Y-92822075D01*
X159097087Y-92857927D01*
X159220000Y-92870033D01*
X160820000Y-92870033D01*
X160942913Y-92857927D01*
X161061103Y-92822075D01*
X161170028Y-92763853D01*
X161265501Y-92685501D01*
X161343853Y-92590028D01*
X161402075Y-92481103D01*
X161437927Y-92362913D01*
X161450033Y-92240000D01*
X161450033Y-90640000D01*
X161437927Y-90517087D01*
X161402075Y-90398897D01*
X161343853Y-90289972D01*
X161265501Y-90194499D01*
X161170028Y-90116147D01*
X161061103Y-90057925D01*
X160942913Y-90022073D01*
X160820000Y-90009967D01*
X159220000Y-90009967D01*
X159097087Y-90022073D01*
X158978897Y-90057925D01*
X158869972Y-90116147D01*
X158774499Y-90194499D01*
X158696147Y-90289972D01*
X158683838Y-90313000D01*
X154790986Y-90313000D01*
X154692277Y-90192723D01*
X154558920Y-90083279D01*
X154406774Y-90001956D01*
X154241686Y-89951877D01*
X154070000Y-89934967D01*
X153270000Y-89934967D01*
X153098314Y-89951877D01*
X152933226Y-90001956D01*
X152781080Y-90083279D01*
X152647723Y-90192723D01*
X152538279Y-90326080D01*
X152456956Y-90478226D01*
X152406877Y-90643314D01*
X152389967Y-90815000D01*
X152389967Y-92065000D01*
X152406877Y-92236686D01*
X152456956Y-92401774D01*
X152538279Y-92553920D01*
X152543001Y-92559674D01*
X152543000Y-96421510D01*
X152400000Y-96407426D01*
X152174170Y-96429668D01*
X151957017Y-96495541D01*
X151756887Y-96602512D01*
X151683183Y-96663000D01*
X148439673Y-96663000D01*
X148433920Y-96658279D01*
X148281774Y-96576956D01*
X148116686Y-96526877D01*
X147945000Y-96509967D01*
X146695000Y-96509967D01*
X146523314Y-96526877D01*
X146358226Y-96576956D01*
X146206080Y-96658279D01*
X146072723Y-96767723D01*
X145963279Y-96901080D01*
X145881956Y-97053226D01*
X145831877Y-97218314D01*
X145814967Y-97390000D01*
X145814967Y-98190000D01*
X145829422Y-98336759D01*
X140721382Y-103444800D01*
X137196592Y-103444800D01*
X137262257Y-103286270D01*
X137317100Y-103010557D01*
X137317100Y-102729443D01*
X137262257Y-102453730D01*
X137154680Y-102194015D01*
X137017000Y-101987963D01*
X137017000Y-100460986D01*
X137137277Y-100362277D01*
X137246721Y-100228920D01*
X137328044Y-100076774D01*
X137378123Y-99911686D01*
X137395033Y-99740000D01*
X137395033Y-98940000D01*
X137378123Y-98768314D01*
X137328044Y-98603226D01*
X137246721Y-98451080D01*
X137137277Y-98317723D01*
X137003920Y-98208279D01*
X136851774Y-98126956D01*
X136686686Y-98076877D01*
X136515000Y-98059967D01*
X135265000Y-98059967D01*
X135093314Y-98076877D01*
X134928226Y-98126956D01*
X134776080Y-98208279D01*
X134642723Y-98317723D01*
X134533279Y-98451080D01*
X134451956Y-98603226D01*
X134401877Y-98768314D01*
X134384967Y-98940000D01*
X125339614Y-98940000D01*
X128464615Y-95814999D01*
X130549967Y-95814999D01*
X130549967Y-96640001D01*
X130566877Y-96811687D01*
X130616955Y-96976775D01*
X130698279Y-97128921D01*
X130807722Y-97262278D01*
X130941079Y-97371721D01*
X131093225Y-97453045D01*
X131258313Y-97503123D01*
X131429999Y-97520033D01*
X132730001Y-97520033D01*
X132901687Y-97503123D01*
X133066775Y-97453045D01*
X133218921Y-97371721D01*
X133239905Y-97354500D01*
X134755096Y-97354500D01*
X134776080Y-97371721D01*
X134928226Y-97453044D01*
X135093314Y-97503123D01*
X135265000Y-97520033D01*
X136515000Y-97520033D01*
X136686686Y-97503123D01*
X136851774Y-97453044D01*
X137003920Y-97371721D01*
X137137277Y-97262277D01*
X137246721Y-97128920D01*
X137328044Y-96976774D01*
X137378123Y-96811686D01*
X137395033Y-96640000D01*
X137395033Y-95840000D01*
X137378123Y-95668314D01*
X137328044Y-95503226D01*
X137246721Y-95351080D01*
X137137277Y-95217723D01*
X137003920Y-95108279D01*
X136851774Y-95026956D01*
X136686686Y-94976877D01*
X136515000Y-94959967D01*
X135265000Y-94959967D01*
X135093314Y-94976877D01*
X134928226Y-95026956D01*
X134790634Y-95100500D01*
X133239905Y-95100500D01*
X133218921Y-95083279D01*
X133066775Y-95001955D01*
X132901687Y-94951877D01*
X132730001Y-94934967D01*
X131429999Y-94934967D01*
X131258313Y-94951877D01*
X131093225Y-95001955D01*
X130941079Y-95083279D01*
X130807722Y-95192722D01*
X130698279Y-95326079D01*
X130616955Y-95478225D01*
X130566877Y-95643313D01*
X130549967Y-95814999D01*
X128464615Y-95814999D01*
X131712615Y-92567000D01*
X146193001Y-92567000D01*
X146193000Y-93569013D01*
X146072723Y-93667723D01*
X145963279Y-93801080D01*
X145881956Y-93953226D01*
X145831877Y-94118314D01*
X145814967Y-94290000D01*
X145814967Y-95090000D01*
X145831877Y-95261686D01*
X145881956Y-95426774D01*
X145963279Y-95578920D01*
X146072723Y-95712277D01*
X146206080Y-95821721D01*
X146358226Y-95903044D01*
X146523314Y-95953123D01*
X146695000Y-95970033D01*
X147945000Y-95970033D01*
X148116686Y-95953123D01*
X148281774Y-95903044D01*
X148433920Y-95821721D01*
X148567277Y-95712277D01*
X148676721Y-95578920D01*
X148758044Y-95426774D01*
X148808123Y-95261686D01*
X148825033Y-95090000D01*
X148825033Y-94290000D01*
X148808123Y-94118314D01*
X148758044Y-93953226D01*
X148676721Y-93801080D01*
X148567277Y-93667723D01*
X148447000Y-93569014D01*
X148447000Y-92567000D01*
X149449014Y-92567000D01*
X149547723Y-92687277D01*
X149681080Y-92796721D01*
X149833226Y-92878044D01*
X149998314Y-92928123D01*
X150170000Y-92945033D01*
X150970000Y-92945033D01*
X151141686Y-92928123D01*
X151306774Y-92878044D01*
X151458920Y-92796721D01*
X151592277Y-92687277D01*
X151701721Y-92553920D01*
X151783044Y-92401774D01*
X151833123Y-92236686D01*
X151850033Y-92065000D01*
X151850033Y-90815000D01*
X151833123Y-90643314D01*
X151783044Y-90478226D01*
X151701721Y-90326080D01*
X151592277Y-90192723D01*
X151458920Y-90083279D01*
X151306774Y-90001956D01*
X151141686Y-89951877D01*
X150970000Y-89934967D01*
X150170000Y-89934967D01*
X149998314Y-89951877D01*
X149833226Y-90001956D01*
X149681080Y-90083279D01*
X149547723Y-90192723D01*
X149449014Y-90313000D01*
X147375365Y-90313000D01*
X147320000Y-90307547D01*
X147264636Y-90313000D01*
X131301150Y-90313000D01*
X131245796Y-90307548D01*
X131190441Y-90313000D01*
X131190431Y-90313000D01*
X131024865Y-90329307D01*
X130812425Y-90393750D01*
X130616639Y-90498400D01*
X130488035Y-90603942D01*
X130488032Y-90603945D01*
X130445031Y-90639235D01*
X130409741Y-90682236D01*
X122432242Y-98659736D01*
X122389235Y-98695031D01*
X122248400Y-98866639D01*
X122143750Y-99062426D01*
X122079307Y-99274866D01*
X122063000Y-99440432D01*
X122063000Y-99440442D01*
X122057548Y-99495796D01*
X122063000Y-99551150D01*
X122063001Y-108093000D01*
X120650000Y-108093000D01*
X120430133Y-108114655D01*
X120218716Y-108178788D01*
X120023872Y-108282934D01*
X119853091Y-108423091D01*
X119712934Y-108593872D01*
X119608788Y-108788716D01*
X119544655Y-109000133D01*
X119523000Y-109220000D01*
X118787000Y-109220000D01*
X118787000Y-87037000D01*
X192363000Y-87037000D01*
X192363001Y-153628000D01*
%TA.AperFunction,Conductor*%
D25*
G36*
X192363001Y-153628000D02*
G01*
X118787000Y-153628000D01*
X118787000Y-135075056D01*
X152358000Y-135075056D01*
X152358000Y-135434944D01*
X152428211Y-135787916D01*
X152543000Y-136065041D01*
X152543000Y-139065000D01*
X152564655Y-139284867D01*
X152628788Y-139496284D01*
X152732934Y-139691128D01*
X152873091Y-139861909D01*
X153043872Y-140002066D01*
X153238716Y-140106212D01*
X153450133Y-140170345D01*
X153670000Y-140192000D01*
X189230000Y-140192000D01*
X189449867Y-140170345D01*
X189661284Y-140106212D01*
X189856128Y-140002066D01*
X190026909Y-139861909D01*
X190167066Y-139691128D01*
X190271212Y-139496284D01*
X190335345Y-139284867D01*
X190357000Y-139065000D01*
X190357000Y-116840000D01*
X190335345Y-116620133D01*
X190271212Y-116408716D01*
X190167066Y-116213872D01*
X190026909Y-116043091D01*
X189856128Y-115902934D01*
X189661284Y-115798788D01*
X189449867Y-115734655D01*
X189230000Y-115713000D01*
X186547000Y-115713000D01*
X186547000Y-106735357D01*
X186552452Y-106680000D01*
X186547000Y-106624643D01*
X186547000Y-106624635D01*
X186530693Y-106459069D01*
X186466250Y-106246629D01*
X186361600Y-106050843D01*
X186256058Y-105922239D01*
X186256055Y-105922236D01*
X186220765Y-105879235D01*
X186177764Y-105843945D01*
X184351062Y-104017244D01*
X184351058Y-104017239D01*
X171016060Y-90682242D01*
X170980765Y-90639235D01*
X170809157Y-90498400D01*
X170613371Y-90393750D01*
X170400931Y-90329307D01*
X170235365Y-90313000D01*
X170235354Y-90313000D01*
X170180000Y-90307548D01*
X170124646Y-90313000D01*
X168521859Y-90313000D01*
X168315938Y-90175409D01*
X168056241Y-90067838D01*
X167780547Y-90013000D01*
X167499453Y-90013000D01*
X167223759Y-90067838D01*
X166964062Y-90175409D01*
X166730340Y-90331576D01*
X166531576Y-90530340D01*
X166375409Y-90764062D01*
X166267838Y-91023759D01*
X166213000Y-91299453D01*
X166213000Y-91580547D01*
X166267838Y-91856241D01*
X166375409Y-92115938D01*
X166531576Y-92349660D01*
X166730340Y-92548424D01*
X166964062Y-92704591D01*
X167223759Y-92812162D01*
X167499453Y-92867000D01*
X167780547Y-92867000D01*
X168056241Y-92812162D01*
X168315938Y-92704591D01*
X168521859Y-92567000D01*
X169713182Y-92567000D01*
X182757239Y-105611058D01*
X182757244Y-105611062D01*
X184293000Y-107146819D01*
X184293001Y-115713000D01*
X153670000Y-115713000D01*
X153450133Y-115734655D01*
X153238716Y-115798788D01*
X153043872Y-115902934D01*
X152873091Y-116043091D01*
X152732934Y-116213872D01*
X152628788Y-116408716D01*
X152564655Y-116620133D01*
X152543000Y-116840000D01*
X152543000Y-134444959D01*
X152428211Y-134722084D01*
X152358000Y-135075056D01*
X118787000Y-135075056D01*
X118787000Y-109220000D01*
X119523000Y-109220000D01*
X119523000Y-127635000D01*
X119544655Y-127854867D01*
X119608788Y-128066284D01*
X119712934Y-128261128D01*
X119853091Y-128431909D01*
X120023872Y-128572066D01*
X120218716Y-128676212D01*
X120430133Y-128740345D01*
X120650000Y-128762000D01*
X136525000Y-128762000D01*
X136744867Y-128740345D01*
X136956284Y-128676212D01*
X137151128Y-128572066D01*
X137321909Y-128431909D01*
X137462066Y-128261128D01*
X137566212Y-128066284D01*
X137630345Y-127854867D01*
X137652000Y-127635000D01*
X137652000Y-109220000D01*
X137635414Y-109051600D01*
X142837675Y-109051600D01*
X143050176Y-109369630D01*
X143360370Y-109679824D01*
X143725120Y-109923542D01*
X144130408Y-110091418D01*
X144560660Y-110177000D01*
X144999340Y-110177000D01*
X145429592Y-110091418D01*
X145834880Y-109923542D01*
X146199630Y-109679824D01*
X146509824Y-109369630D01*
X146705353Y-109077000D01*
X164633182Y-109077000D01*
X165315636Y-109759454D01*
X165306268Y-109782070D01*
X165213000Y-110250961D01*
X165213000Y-110729039D01*
X165306268Y-111197930D01*
X165489221Y-111639615D01*
X165754826Y-112037122D01*
X166092878Y-112375174D01*
X166490385Y-112640779D01*
X166932070Y-112823732D01*
X167400961Y-112917000D01*
X167879039Y-112917000D01*
X168347930Y-112823732D01*
X168789615Y-112640779D01*
X169187122Y-112375174D01*
X169525174Y-112037122D01*
X169790779Y-111639615D01*
X169973732Y-111197930D01*
X170067000Y-110729039D01*
X170067000Y-110250961D01*
X169973732Y-109782070D01*
X169790779Y-109340385D01*
X169525174Y-108942878D01*
X169187122Y-108604826D01*
X168789615Y-108339221D01*
X168347930Y-108156268D01*
X167879039Y-108063000D01*
X167400961Y-108063000D01*
X166932070Y-108156268D01*
X166909454Y-108165636D01*
X165936058Y-107192240D01*
X165900765Y-107149235D01*
X165729157Y-107008400D01*
X165533371Y-106903750D01*
X165320931Y-106839307D01*
X165155365Y-106823000D01*
X165155354Y-106823000D01*
X165100000Y-106817548D01*
X165044646Y-106823000D01*
X146705353Y-106823000D01*
X146509824Y-106530370D01*
X146199630Y-106220176D01*
X145834880Y-105976458D01*
X145429592Y-105808582D01*
X144999340Y-105723000D01*
X144560660Y-105723000D01*
X144130408Y-105808582D01*
X143725120Y-105976458D01*
X143360370Y-106220176D01*
X143050176Y-106530370D01*
X142871619Y-106797600D01*
X136696010Y-106797600D01*
X136565985Y-106710720D01*
X136306270Y-106603143D01*
X136030557Y-106548300D01*
X135749443Y-106548300D01*
X135473730Y-106603143D01*
X135214015Y-106710720D01*
X134980277Y-106866899D01*
X134781499Y-107065677D01*
X134625320Y-107299415D01*
X134517743Y-107559130D01*
X134462900Y-107834843D01*
X134462900Y-108093000D01*
X124317000Y-108093000D01*
X124317000Y-99962614D01*
X125339614Y-98940000D01*
X134384967Y-98940000D01*
X134384967Y-99740000D01*
X134401877Y-99911686D01*
X134451956Y-100076774D01*
X134533279Y-100228920D01*
X134642723Y-100362277D01*
X134763001Y-100460987D01*
X134763000Y-101987962D01*
X134625320Y-102194015D01*
X134517743Y-102453730D01*
X134462900Y-102729443D01*
X134462900Y-103010557D01*
X134517743Y-103286270D01*
X134625320Y-103545985D01*
X134742195Y-103720900D01*
X134625320Y-103895815D01*
X134517743Y-104155530D01*
X134462900Y-104431243D01*
X134462900Y-104712357D01*
X134517743Y-104988070D01*
X134625320Y-105247785D01*
X134781499Y-105481523D01*
X134980277Y-105680301D01*
X135214015Y-105836480D01*
X135473730Y-105944057D01*
X135749443Y-105998900D01*
X136030557Y-105998900D01*
X136306270Y-105944057D01*
X136565985Y-105836480D01*
X136772037Y-105698800D01*
X141132846Y-105698800D01*
X141188200Y-105704252D01*
X141243554Y-105698800D01*
X141243565Y-105698800D01*
X141409131Y-105682493D01*
X141621571Y-105618050D01*
X141817357Y-105513400D01*
X141988965Y-105372565D01*
X142024260Y-105329559D01*
X148077764Y-99276055D01*
X148120765Y-99240765D01*
X148156055Y-99197764D01*
X148156058Y-99197761D01*
X148261600Y-99069157D01*
X148303003Y-98991697D01*
X148433920Y-98921721D01*
X148439673Y-98917000D01*
X151683182Y-98917000D01*
X151756886Y-98977488D01*
X151957016Y-99084459D01*
X152174169Y-99150332D01*
X152400000Y-99172574D01*
X152625830Y-99150332D01*
X152842983Y-99084459D01*
X153035000Y-98981825D01*
X153227016Y-99084459D01*
X153444169Y-99150332D01*
X153670000Y-99172574D01*
X153895830Y-99150332D01*
X154106948Y-99086290D01*
X154173897Y-99122075D01*
X154292087Y-99157927D01*
X154415000Y-99170033D01*
X155465000Y-99170033D01*
X155587913Y-99157927D01*
X155706103Y-99122075D01*
X155815028Y-99063853D01*
X155910501Y-98985501D01*
X155966718Y-98917000D01*
X161822138Y-98917000D01*
X161921956Y-98983696D01*
X162167094Y-99085236D01*
X162427332Y-99137000D01*
X162692668Y-99137000D01*
X162952906Y-99085236D01*
X163198044Y-98983696D01*
X163418663Y-98836284D01*
X163606284Y-98648663D01*
X163753696Y-98428044D01*
X163855236Y-98182906D01*
X163907000Y-97922668D01*
X163907000Y-97657332D01*
X166293000Y-97657332D01*
X166293000Y-97922668D01*
X166344764Y-98182906D01*
X166446304Y-98428044D01*
X166593716Y-98648663D01*
X166781337Y-98836284D01*
X167001956Y-98983696D01*
X167247094Y-99085236D01*
X167507332Y-99137000D01*
X167772668Y-99137000D01*
X168032906Y-99085236D01*
X168278044Y-98983696D01*
X168498663Y-98836284D01*
X168686284Y-98648663D01*
X168833696Y-98428044D01*
X168935236Y-98182906D01*
X168987000Y-97922668D01*
X168987000Y-97657332D01*
X168935236Y-97397094D01*
X168833696Y-97151956D01*
X168686284Y-96931337D01*
X168498663Y-96743716D01*
X168278044Y-96596304D01*
X168032906Y-96494764D01*
X167772668Y-96443000D01*
X167507332Y-96443000D01*
X167247094Y-96494764D01*
X167001956Y-96596304D01*
X166781337Y-96743716D01*
X166593716Y-96931337D01*
X166446304Y-97151956D01*
X166344764Y-97397094D01*
X166293000Y-97657332D01*
X163907000Y-97657332D01*
X163855236Y-97397094D01*
X163753696Y-97151956D01*
X163606284Y-96931337D01*
X163418663Y-96743716D01*
X163198044Y-96596304D01*
X162952906Y-96494764D01*
X162692668Y-96443000D01*
X162427332Y-96443000D01*
X162167094Y-96494764D01*
X161921956Y-96596304D01*
X161822138Y-96663000D01*
X155966718Y-96663000D01*
X155910501Y-96594499D01*
X155815028Y-96516147D01*
X155706103Y-96457925D01*
X155587913Y-96422073D01*
X155465000Y-96409967D01*
X154797000Y-96409967D01*
X154797000Y-92567000D01*
X158683838Y-92567000D01*
X158696147Y-92590028D01*
X158774499Y-92685501D01*
X158869972Y-92763853D01*
X158978897Y-92822075D01*
X159097087Y-92857927D01*
X159220000Y-92870033D01*
X160820000Y-92870033D01*
X160942913Y-92857927D01*
X161061103Y-92822075D01*
X161170028Y-92763853D01*
X161265501Y-92685501D01*
X161343853Y-92590028D01*
X161402075Y-92481103D01*
X161437927Y-92362913D01*
X161450033Y-92240000D01*
X161450033Y-90640000D01*
X161437927Y-90517087D01*
X161402075Y-90398897D01*
X161343853Y-90289972D01*
X161265501Y-90194499D01*
X161170028Y-90116147D01*
X161061103Y-90057925D01*
X160942913Y-90022073D01*
X160820000Y-90009967D01*
X159220000Y-90009967D01*
X159097087Y-90022073D01*
X158978897Y-90057925D01*
X158869972Y-90116147D01*
X158774499Y-90194499D01*
X158696147Y-90289972D01*
X158683838Y-90313000D01*
X154790986Y-90313000D01*
X154692277Y-90192723D01*
X154558920Y-90083279D01*
X154406774Y-90001956D01*
X154241686Y-89951877D01*
X154070000Y-89934967D01*
X153270000Y-89934967D01*
X153098314Y-89951877D01*
X152933226Y-90001956D01*
X152781080Y-90083279D01*
X152647723Y-90192723D01*
X152538279Y-90326080D01*
X152456956Y-90478226D01*
X152406877Y-90643314D01*
X152389967Y-90815000D01*
X152389967Y-92065000D01*
X152406877Y-92236686D01*
X152456956Y-92401774D01*
X152538279Y-92553920D01*
X152543001Y-92559674D01*
X152543000Y-96421510D01*
X152400000Y-96407426D01*
X152174170Y-96429668D01*
X151957017Y-96495541D01*
X151756887Y-96602512D01*
X151683183Y-96663000D01*
X148439673Y-96663000D01*
X148433920Y-96658279D01*
X148281774Y-96576956D01*
X148116686Y-96526877D01*
X147945000Y-96509967D01*
X146695000Y-96509967D01*
X146523314Y-96526877D01*
X146358226Y-96576956D01*
X146206080Y-96658279D01*
X146072723Y-96767723D01*
X145963279Y-96901080D01*
X145881956Y-97053226D01*
X145831877Y-97218314D01*
X145814967Y-97390000D01*
X145814967Y-98190000D01*
X145829422Y-98336759D01*
X140721382Y-103444800D01*
X137196592Y-103444800D01*
X137262257Y-103286270D01*
X137317100Y-103010557D01*
X137317100Y-102729443D01*
X137262257Y-102453730D01*
X137154680Y-102194015D01*
X137017000Y-101987963D01*
X137017000Y-100460986D01*
X137137277Y-100362277D01*
X137246721Y-100228920D01*
X137328044Y-100076774D01*
X137378123Y-99911686D01*
X137395033Y-99740000D01*
X137395033Y-98940000D01*
X137378123Y-98768314D01*
X137328044Y-98603226D01*
X137246721Y-98451080D01*
X137137277Y-98317723D01*
X137003920Y-98208279D01*
X136851774Y-98126956D01*
X136686686Y-98076877D01*
X136515000Y-98059967D01*
X135265000Y-98059967D01*
X135093314Y-98076877D01*
X134928226Y-98126956D01*
X134776080Y-98208279D01*
X134642723Y-98317723D01*
X134533279Y-98451080D01*
X134451956Y-98603226D01*
X134401877Y-98768314D01*
X134384967Y-98940000D01*
X125339614Y-98940000D01*
X128464615Y-95814999D01*
X130549967Y-95814999D01*
X130549967Y-96640001D01*
X130566877Y-96811687D01*
X130616955Y-96976775D01*
X130698279Y-97128921D01*
X130807722Y-97262278D01*
X130941079Y-97371721D01*
X131093225Y-97453045D01*
X131258313Y-97503123D01*
X131429999Y-97520033D01*
X132730001Y-97520033D01*
X132901687Y-97503123D01*
X133066775Y-97453045D01*
X133218921Y-97371721D01*
X133239905Y-97354500D01*
X134755096Y-97354500D01*
X134776080Y-97371721D01*
X134928226Y-97453044D01*
X135093314Y-97503123D01*
X135265000Y-97520033D01*
X136515000Y-97520033D01*
X136686686Y-97503123D01*
X136851774Y-97453044D01*
X137003920Y-97371721D01*
X137137277Y-97262277D01*
X137246721Y-97128920D01*
X137328044Y-96976774D01*
X137378123Y-96811686D01*
X137395033Y-96640000D01*
X137395033Y-95840000D01*
X137378123Y-95668314D01*
X137328044Y-95503226D01*
X137246721Y-95351080D01*
X137137277Y-95217723D01*
X137003920Y-95108279D01*
X136851774Y-95026956D01*
X136686686Y-94976877D01*
X136515000Y-94959967D01*
X135265000Y-94959967D01*
X135093314Y-94976877D01*
X134928226Y-95026956D01*
X134790634Y-95100500D01*
X133239905Y-95100500D01*
X133218921Y-95083279D01*
X133066775Y-95001955D01*
X132901687Y-94951877D01*
X132730001Y-94934967D01*
X131429999Y-94934967D01*
X131258313Y-94951877D01*
X131093225Y-95001955D01*
X130941079Y-95083279D01*
X130807722Y-95192722D01*
X130698279Y-95326079D01*
X130616955Y-95478225D01*
X130566877Y-95643313D01*
X130549967Y-95814999D01*
X128464615Y-95814999D01*
X131712615Y-92567000D01*
X146193001Y-92567000D01*
X146193000Y-93569013D01*
X146072723Y-93667723D01*
X145963279Y-93801080D01*
X145881956Y-93953226D01*
X145831877Y-94118314D01*
X145814967Y-94290000D01*
X145814967Y-95090000D01*
X145831877Y-95261686D01*
X145881956Y-95426774D01*
X145963279Y-95578920D01*
X146072723Y-95712277D01*
X146206080Y-95821721D01*
X146358226Y-95903044D01*
X146523314Y-95953123D01*
X146695000Y-95970033D01*
X147945000Y-95970033D01*
X148116686Y-95953123D01*
X148281774Y-95903044D01*
X148433920Y-95821721D01*
X148567277Y-95712277D01*
X148676721Y-95578920D01*
X148758044Y-95426774D01*
X148808123Y-95261686D01*
X148825033Y-95090000D01*
X148825033Y-94290000D01*
X148808123Y-94118314D01*
X148758044Y-93953226D01*
X148676721Y-93801080D01*
X148567277Y-93667723D01*
X148447000Y-93569014D01*
X148447000Y-92567000D01*
X149449014Y-92567000D01*
X149547723Y-92687277D01*
X149681080Y-92796721D01*
X149833226Y-92878044D01*
X149998314Y-92928123D01*
X150170000Y-92945033D01*
X150970000Y-92945033D01*
X151141686Y-92928123D01*
X151306774Y-92878044D01*
X151458920Y-92796721D01*
X151592277Y-92687277D01*
X151701721Y-92553920D01*
X151783044Y-92401774D01*
X151833123Y-92236686D01*
X151850033Y-92065000D01*
X151850033Y-90815000D01*
X151833123Y-90643314D01*
X151783044Y-90478226D01*
X151701721Y-90326080D01*
X151592277Y-90192723D01*
X151458920Y-90083279D01*
X151306774Y-90001956D01*
X151141686Y-89951877D01*
X150970000Y-89934967D01*
X150170000Y-89934967D01*
X149998314Y-89951877D01*
X149833226Y-90001956D01*
X149681080Y-90083279D01*
X149547723Y-90192723D01*
X149449014Y-90313000D01*
X147375365Y-90313000D01*
X147320000Y-90307547D01*
X147264636Y-90313000D01*
X131301150Y-90313000D01*
X131245796Y-90307548D01*
X131190441Y-90313000D01*
X131190431Y-90313000D01*
X131024865Y-90329307D01*
X130812425Y-90393750D01*
X130616639Y-90498400D01*
X130488035Y-90603942D01*
X130488032Y-90603945D01*
X130445031Y-90639235D01*
X130409741Y-90682236D01*
X122432242Y-98659736D01*
X122389235Y-98695031D01*
X122248400Y-98866639D01*
X122143750Y-99062426D01*
X122079307Y-99274866D01*
X122063000Y-99440432D01*
X122063000Y-99440442D01*
X122057548Y-99495796D01*
X122063000Y-99551150D01*
X122063001Y-108093000D01*
X120650000Y-108093000D01*
X120430133Y-108114655D01*
X120218716Y-108178788D01*
X120023872Y-108282934D01*
X119853091Y-108423091D01*
X119712934Y-108593872D01*
X119608788Y-108788716D01*
X119544655Y-109000133D01*
X119523000Y-109220000D01*
X118787000Y-109220000D01*
X118787000Y-87037000D01*
X192363000Y-87037000D01*
X192363001Y-153628000D01*
G37*
%TD.AperFunction*%
%TD*%
D24*
%TO.N,/Vout*%
X189103000Y-138938000D02*
X153797000Y-138938000D01*
X153797000Y-116967000D01*
X189103000Y-116967000D01*
X189103000Y-138938000D01*
%TA.AperFunction,Conductor*%
D25*
G36*
X189103000Y-138938000D02*
G01*
X153797000Y-138938000D01*
X153797000Y-116967000D01*
X189103000Y-116967000D01*
X189103000Y-138938000D01*
G37*
%TD.AperFunction*%
%TD*%
D24*
%TO.N,/Vin*%
X134661546Y-109472276D02*
X134977176Y-109683174D01*
X135327886Y-109828442D01*
X135700197Y-109902500D01*
X136079803Y-109902500D01*
X136398000Y-109839206D01*
X136398000Y-113120546D01*
X136397780Y-113120958D01*
X136319110Y-113380296D01*
X136292547Y-113649999D01*
X136292547Y-114950001D01*
X136319110Y-115219704D01*
X136397780Y-115479042D01*
X136398000Y-115479454D01*
X136398000Y-127508000D01*
X120777000Y-127508000D01*
X120777000Y-109347000D01*
X134536270Y-109347000D01*
X134661546Y-109472276D01*
%TA.AperFunction,Conductor*%
D25*
G36*
X134661546Y-109472276D02*
G01*
X134977176Y-109683174D01*
X135327886Y-109828442D01*
X135700197Y-109902500D01*
X136079803Y-109902500D01*
X136398000Y-109839206D01*
X136398000Y-113120546D01*
X136397780Y-113120958D01*
X136319110Y-113380296D01*
X136292547Y-113649999D01*
X136292547Y-114950001D01*
X136319110Y-115219704D01*
X136397780Y-115479042D01*
X136398000Y-115479454D01*
X136398000Y-127508000D01*
X120777000Y-127508000D01*
X120777000Y-109347000D01*
X134536270Y-109347000D01*
X134661546Y-109472276D01*
G37*
%TD.AperFunction*%
%TD*%
M02*
